EB Garamond-Bold.ufo
<glyph name="ampersand" format="1">
  <advance width="789"/>
  <unicode hex="0026"/>
  <note>
	ampersand
  </note>
  <outline>
    <contour>
      <point x="261" y="-16"/>
      <point x="345" y="9"/>
      <point x="403" y="78" type="curve" smooth="yes"/>
      <point x="408" y="84" type="line"/>
      <point x="420" y="70" type="line" smooth="yes"/>
      <point x="471" y="11"/>
      <point x="511" y="-15"/>
      <point x="592" y="-15" type="curve" smooth="yes"/>
      <point x="693" y="-15"/>
      <point x="763" y="44"/>
      <point x="763" y="75" type="curve" smooth="yes"/>
      <point x="763" y="92"/>
      <point x="756" y="100"/>
      <point x="743" y="100" type="curve" smooth="yes"/>
      <point x="735" y="100"/>
      <point x="726" y="97"/>
      <point x="719" y="93" type="curve"/>
      <point x="685" y="76"/>
      <point x="664" y="68"/>
      <point x="642" y="68" type="curve" smooth="yes"/>
      <point x="603" y="68"/>
      <point x="567" y="114"/>
      <point x="526" y="163" type="curve"/>
      <point x="514" y="178" type="line"/>
      <point x="560" y="223"/>
      <point x="607" y="268"/>
      <point x="653" y="313" type="curve" smooth="yes"/>
      <point x="675" y="335"/>
      <point x="705" y="361"/>
      <point x="749" y="369" type="curve" smooth="yes"/>
      <point x="771" y="373"/>
      <point x="784" y="386"/>
      <point x="784" y="398" type="curve" smooth="yes"/>
      <point x="784" y="404"/>
      <point x="778" y="412"/>
      <point x="767" y="412" type="curve" smooth="yes"/>
      <point x="732" y="412"/>
      <point x="673" y="389"/>
      <point x="630" y="389" type="curve" smooth="yes"/>
      <point x="592" y="389"/>
      <point x="558" y="397"/>
      <point x="529" y="397" type="curve" smooth="yes"/>
      <point x="512" y="397"/>
      <point x="498" y="396"/>
      <point x="498" y="382" type="curve" smooth="yes"/>
      <point x="498" y="370"/>
      <point x="508" y="367"/>
      <point x="520" y="362" type="curve" smooth="yes"/>
      <point x="534" y="356"/>
      <point x="549" y="348"/>
      <point x="549" y="327" type="curve" smooth="yes"/>
      <point x="549" y="303"/>
      <point x="526" y="269"/>
      <point x="488" y="236" type="curve" smooth="yes"/>
      <point x="475" y="224" type="line"/>
      <point x="455" y="244" type="line"/>
      <point x="422" y="277"/>
      <point x="388" y="314"/>
      <point x="355" y="347" type="curve"/>
      <point x="336" y="366" type="line"/>
      <point x="360" y="375" type="line" smooth="yes"/>
      <point x="425" y="399"/>
      <point x="463" y="431"/>
      <point x="463" y="494" type="curve" smooth="yes"/>
      <point x="463" y="557"/>
      <point x="394" y="600"/>
      <point x="302" y="600" type="curve" smooth="yes"/>
      <point x="187" y="600"/>
      <point x="111" y="544"/>
      <point x="111" y="474" type="curve" smooth="yes"/>
      <point x="111" y="415"/>
      <point x="158" y="374"/>
      <point x="179" y="352" type="curve" smooth="yes"/>
      <point x="186" y="345" type="line"/>
      <point x="165" y="335" type="line" smooth="yes"/>
      <point x="65" y="287"/>
      <point x="10" y="204"/>
      <point x="10" y="131" type="curve" smooth="yes"/>
      <point x="10" y="31"/>
      <point x="109" y="-16"/>
      <point x="187" y="-16" type="curve" smooth="yes"/>
    </contour>
    <contour>
      <point x="199" y="85"/>
      <point x="154" y="133"/>
      <point x="154" y="215" type="curve" smooth="yes"/>
      <point x="154" y="252"/>
      <point x="166" y="284"/>
      <point x="192" y="301" type="curve" smooth="yes"/>
      <point x="209" y="312" type="line"/>
      <point x="221" y="298" type="line"/>
      <point x="267" y="245"/>
      <point x="309" y="193"/>
      <point x="355" y="140" type="curve"/>
      <point x="366" y="127" type="line"/>
      <point x="359" y="120" type="line" smooth="yes"/>
      <point x="332" y="93"/>
      <point x="297" y="85"/>
      <point x="270" y="85" type="curve" smooth="yes"/>
    </contour>
    <contour>
      <point x="294" y="412" type="line" smooth="yes"/>
      <point x="283" y="423"/>
      <point x="254" y="454"/>
      <point x="254" y="511" type="curve" smooth="yes"/>
      <point x="254" y="541"/>
      <point x="275" y="562"/>
      <point x="297" y="562" type="curve" smooth="yes"/>
      <point x="332" y="562"/>
      <point x="345" y="526"/>
      <point x="344" y="488" type="curve" smooth="yes"/>
      <point x="344" y="456"/>
      <point x="334" y="423"/>
      <point x="319" y="408" type="curve" smooth="yes"/>
      <point x="309" y="398" type="line"/>
    </contour>
  </outline>
</glyph>
<glyph name="plus" format="1">
  <advance width="604"/>
  <unicode hex="002B"/>
  <note>
	plus
  </note>
  <outline>
    <contour>
      <point x="299" y="-12"/>
      <point x="334" y="-4"/>
      <point x="334" y="17" type="curve" smooth="yes"/>
      <point x="334" y="206" type="line" smooth="yes"/>
      <point x="334" y="215"/>
      <point x="338" y="219"/>
      <point x="347" y="219" type="curve" smooth="yes"/>
      <point x="540" y="219" type="line" smooth="yes"/>
      <point x="559" y="219"/>
      <point x="574" y="249"/>
      <point x="574" y="266" type="curve" smooth="yes"/>
      <point x="574" y="276"/>
      <point x="563" y="282"/>
      <point x="551" y="282" type="curve" smooth="yes"/>
      <point x="347" y="282" type="line" smooth="yes"/>
      <point x="338" y="282"/>
      <point x="334" y="286"/>
      <point x="334" y="296" type="curve" smooth="yes"/>
      <point x="334" y="489" type="line" smooth="yes"/>
      <point x="334" y="501"/>
      <point x="328" y="512"/>
      <point x="318" y="512" type="curve" smooth="yes"/>
      <point x="301" y="512"/>
      <point x="271" y="497"/>
      <point x="271" y="478" type="curve" smooth="yes"/>
      <point x="271" y="296" type="line" smooth="yes"/>
      <point x="271" y="286"/>
      <point x="270" y="282"/>
      <point x="257" y="282" type="curve" smooth="yes"/>
      <point x="59" y="282" type="line" smooth="yes"/>
      <point x="38" y="282"/>
      <point x="30" y="247"/>
      <point x="30" y="232" type="curve" smooth="yes"/>
      <point x="30" y="226"/>
      <point x="38" y="219"/>
      <point x="47" y="219" type="curve" smooth="yes"/>
      <point x="258" y="219" type="line" smooth="yes"/>
      <point x="268" y="219"/>
      <point x="271" y="213"/>
      <point x="271" y="206" type="curve" smooth="yes"/>
      <point x="271" y="5" type="line" smooth="yes"/>
      <point x="271" y="-4"/>
      <point x="278" y="-12"/>
      <point x="284" y="-12" type="curve" smooth="yes"/>
    </contour>
  </outline>
</glyph>
<glyph name="comma" format="1">
  <advance width="244"/>
  <unicode hex="002C"/>
  <note>
	comma
  </note>
  <outline>
    <contour>
      <point x="126" y="-161"/>
      <point x="214" y="-94"/>
      <point x="214" y="15" type="curve" smooth="yes"/>
      <point x="214" y="77"/>
      <point x="172" y="120"/>
      <point x="109" y="120" type="curve" smooth="yes"/>
      <point x="72" y="120"/>
      <point x="36" y="91"/>
      <point x="36" y="55" type="curve" smooth="yes"/>
      <point x="36" y="20"/>
      <point x="56" y="3"/>
      <point x="78" y="-6" type="curve" smooth="yes"/>
      <point x="98" y="-14"/>
      <point x="120" y="-22"/>
      <point x="120" y="-44" type="curve" smooth="yes"/>
      <point x="120" y="-86"/>
      <point x="76" y="-117"/>
      <point x="33" y="-122" type="curve" smooth="yes"/>
      <point x="19" y="-124"/>
      <point x="12" y="-131"/>
      <point x="12" y="-142" type="curve" smooth="yes"/>
      <point x="12" y="-153"/>
      <point x="23" y="-161"/>
      <point x="39" y="-161" type="curve" smooth="yes"/>
    </contour>
  </outline>
</glyph>
<glyph name="period" format="1">
  <advance width="270"/>
  <unicode hex="002E"/>
  <note>
	period
  </note>
  <outline>
    <contour>
      <point x="188" y="-14"/>
      <point x="231" y="29"/>
      <point x="231" y="81" type="curve" smooth="yes"/>
      <point x="231" y="136"/>
      <point x="188" y="179"/>
      <point x="133" y="179" type="curve" smooth="yes"/>
      <point x="81" y="179"/>
      <point x="38" y="136"/>
      <point x="38" y="81" type="curve" smooth="yes"/>
      <point x="38" y="29"/>
      <point x="81" y="-14"/>
      <point x="133" y="-14" type="curve" smooth="yes"/>
    </contour>
  </outline>
</glyph>
<glyph name="one" format="1">
  <advance width="338"/>
  <unicode hex="0031"/>
  <note>
	one
  </note>
  <outline>
    <contour>
      <point x="99" y="-5"/>
      <point x="115" y="2"/>
      <point x="169" y="2" type="curve" smooth="yes"/>
      <point x="223" y="2"/>
      <point x="234" y="-5"/>
      <point x="306" y="-5" type="curve" smooth="yes"/>
      <point x="313" y="-5"/>
      <point x="318" y="3"/>
      <point x="318" y="11" type="curve" smooth="yes"/>
      <point x="318" y="20"/>
      <point x="314" y="28"/>
      <point x="307" y="29" type="curve"/>
      <point x="266" y="37"/>
      <point x="242" y="39"/>
      <point x="242" y="92" type="curve" smooth="yes"/>
      <point x="242" y="332" type="line" smooth="yes"/>
      <point x="242" y="385"/>
      <point x="266" y="387"/>
      <point x="307" y="395" type="curve"/>
      <point x="314" y="396"/>
      <point x="318" y="404"/>
      <point x="318" y="413" type="curve" smooth="yes"/>
      <point x="318" y="421"/>
      <point x="313" y="429"/>
      <point x="306" y="429" type="curve" smooth="yes"/>
      <point x="234" y="429"/>
      <point x="223" y="422"/>
      <point x="169" y="422" type="curve" smooth="yes"/>
      <point x="115" y="422"/>
      <point x="99" y="429"/>
      <point x="30" y="429" type="curve" smooth="yes"/>
      <point x="22" y="429"/>
      <point x="20" y="419"/>
      <point x="20" y="410" type="curve" smooth="yes"/>
      <point x="20" y="402"/>
      <point x="23" y="395"/>
      <point x="30" y="395" type="curve"/>
      <point x="55" y="392"/>
      <point x="97" y="388"/>
      <point x="97" y="332" type="curve" smooth="yes"/>
      <point x="97" y="92" type="line" smooth="yes"/>
      <point x="97" y="36"/>
      <point x="55" y="32"/>
      <point x="30" y="29" type="curve"/>
      <point x="23" y="29"/>
      <point x="20" y="22"/>
      <point x="20" y="14" type="curve" smooth="yes"/>
      <point x="20" y="5"/>
      <point x="22" y="-5"/>
      <point x="30" y="-5" type="curve" smooth="yes"/>
    </contour>
  </outline>
</glyph>
<glyph name="two" format="1">
  <advance width="484"/>
  <unicode hex="0032"/>
  <note>
	two
  </note>
  <outline>
    <contour>
      <point x="409" y="-4"/>
      <point x="427" y="4"/>
      <point x="427" y="18" type="curve" smooth="yes"/>
      <point x="427" y="31"/>
      <point x="451" y="113"/>
      <point x="473" y="174" type="curve" smooth="yes"/>
      <point x="477" y="185"/>
      <point x="472" y="196"/>
      <point x="461" y="196" type="curve" smooth="yes"/>
      <point x="448" y="196"/>
      <point x="436" y="184"/>
      <point x="432" y="175" type="curve" smooth="yes"/>
      <point x="414" y="134"/>
      <point x="384" y="111"/>
      <point x="343" y="111" type="curve" smooth="yes"/>
      <point x="216" y="111" type="line" smooth="yes"/>
      <point x="208" y="111"/>
      <point x="197" y="114"/>
      <point x="204" y="119" type="curve" smooth="yes"/>
      <point x="233" y="139"/>
      <point x="278" y="166"/>
      <point x="318" y="203" type="curve" smooth="yes"/>
      <point x="350" y="233"/>
      <point x="370" y="275"/>
      <point x="370" y="309" type="curve" smooth="yes"/>
      <point x="370" y="375"/>
      <point x="318" y="437"/>
      <point x="233" y="437" type="curve" smooth="yes"/>
      <point x="79" y="437"/>
      <point x="17" y="331"/>
      <point x="17" y="321" type="curve" smooth="yes"/>
      <point x="17" y="310"/>
      <point x="19" y="296"/>
      <point x="31" y="296" type="curve" smooth="yes"/>
      <point x="42" y="296"/>
      <point x="46" y="302"/>
      <point x="54" y="308" type="curve"/>
      <point x="81" y="331"/>
      <point x="110" y="341"/>
      <point x="137" y="341" type="curve" smooth="yes"/>
      <point x="185" y="341"/>
      <point x="211" y="312"/>
      <point x="211" y="267" type="curve" smooth="yes"/>
      <point x="211" y="191"/>
      <point x="159" y="128"/>
      <point x="90" y="77" type="curve" smooth="yes"/>
      <point x="73" y="65"/>
      <point x="39" y="36"/>
      <point x="21" y="18" type="curve" smooth="yes"/>
      <point x="17" y="14"/>
      <point x="14" y="10"/>
      <point x="14" y="6" type="curve" smooth="yes"/>
      <point x="14" y="1"/>
      <point x="18" y="-3"/>
      <point x="21" y="-3" type="curve" smooth="yes"/>
      <point x="27" y="-3"/>
      <point x="126" y="0"/>
      <point x="194" y="0" type="curve" smooth="yes"/>
      <point x="264" y="0"/>
      <point x="391" y="-4"/>
      <point x="406" y="-4" type="curve" smooth="yes"/>
    </contour>
  </outline>
</glyph>
<glyph name="three" format="1">
  <advance width="404"/>
  <unicode hex="0033"/>
  <note>
	three
  </note>
  <outline>
    <contour>
      <point x="128" y="-176"/>
      <point x="156" y="-167"/>
      <point x="216" y="-142" type="curve" smooth="yes"/>
      <point x="281" y="-115"/>
      <point x="383" y="-50"/>
      <point x="383" y="65" type="curve" smooth="yes"/>
      <point x="383" y="132"/>
      <point x="339" y="171"/>
      <point x="244" y="183" type="curve" smooth="yes"/>
      <point x="238" y="184"/>
      <point x="239" y="189"/>
      <point x="244" y="191" type="curve"/>
      <point x="328" y="233"/>
      <point x="356" y="284"/>
      <point x="356" y="332" type="curve" smooth="yes"/>
      <point x="356" y="395"/>
      <point x="308" y="436"/>
      <point x="214" y="436" type="curve" smooth="yes"/>
      <point x="108" y="436"/>
      <point x="18" y="356"/>
      <point x="18" y="333" type="curve" smooth="yes"/>
      <point x="18" y="320"/>
      <point x="23" y="309"/>
      <point x="31" y="309" type="curve" smooth="yes"/>
      <point x="41" y="309"/>
      <point x="50" y="315"/>
      <point x="54" y="320" type="curve" smooth="yes"/>
      <point x="78" y="346"/>
      <point x="108" y="365"/>
      <point x="144" y="365" type="curve" smooth="yes"/>
      <point x="188" y="365"/>
      <point x="212" y="343"/>
      <point x="212" y="306" type="curve" smooth="yes"/>
      <point x="212" y="260"/>
      <point x="191" y="231"/>
      <point x="171" y="215" type="curve" smooth="yes"/>
      <point x="139" y="190"/>
      <point x="128" y="181"/>
      <point x="104" y="166" type="curve" smooth="yes"/>
      <point x="87" y="156"/>
      <point x="59" y="134"/>
      <point x="59" y="123" type="curve" smooth="yes"/>
      <point x="59" y="110"/>
      <point x="77" y="98"/>
      <point x="85" y="98" type="curve" smooth="yes"/>
      <point x="88" y="98"/>
      <point x="116" y="123"/>
      <point x="149" y="123" type="curve" smooth="yes"/>
      <point x="218" y="123"/>
      <point x="225" y="67"/>
      <point x="225" y="35" type="curve" smooth="yes"/>
      <point x="225" y="-54"/>
      <point x="191" y="-93"/>
      <point x="145" y="-115" type="curve" smooth="yes"/>
      <point x="122" y="-126"/>
      <point x="103" y="-118"/>
      <point x="87" y="-118" type="curve" smooth="yes"/>
      <point x="71" y="-118"/>
      <point x="42" y="-140"/>
      <point x="42" y="-161" type="curve" smooth="yes"/>
      <point x="42" y="-171"/>
      <point x="83" y="-176"/>
      <point x="100" y="-176" type="curve" smooth="yes"/>
    </contour>
  </outline>
</glyph>
<glyph name="four" format="1">
  <advance width="539"/>
  <unicode hex="0034"/>
  <note>
	four
  </note>
  <outline>
    <contour>
      <point x="286" y="-181"/>
      <point x="409" y="-157"/>
      <point x="409" y="-131" type="curve" smooth="yes"/>
      <point x="409" y="21" type="line" smooth="yes"/>
      <point x="409" y="22"/>
      <point x="418" y="26"/>
      <point x="423" y="27" type="curve"/>
      <point x="432" y="28"/>
      <point x="435" y="29"/>
      <point x="448" y="29" type="curve" smooth="yes"/>
      <point x="465" y="29"/>
      <point x="485" y="28"/>
      <point x="501" y="28" type="curve" smooth="yes"/>
      <point x="509" y="28"/>
      <point x="524" y="89"/>
      <point x="524" y="105" type="curve" smooth="yes"/>
      <point x="524" y="109"/>
      <point x="519" y="112"/>
      <point x="512" y="112" type="curve"/>
      <point x="488" y="111"/>
      <point x="469" y="110"/>
      <point x="448" y="110" type="curve" smooth="yes"/>
      <point x="435" y="110"/>
      <point x="430" y="110"/>
      <point x="413" y="111" type="curve"/>
      <point x="410" y="111"/>
      <point x="408" y="115"/>
      <point x="408" y="118" type="curve" smooth="yes"/>
      <point x="408" y="238"/>
      <point x="412" y="308"/>
      <point x="412" y="429" type="curve" smooth="yes"/>
      <point x="412" y="434"/>
      <point x="415" y="441"/>
      <point x="409" y="441" type="curve" smooth="yes"/>
      <point x="406" y="441"/>
      <point x="370" y="408"/>
      <point x="356" y="393" type="curve" smooth="yes"/>
      <point x="20" y="31" type="line" smooth="yes"/>
      <point x="19" y="30"/>
      <point x="16" y="24"/>
      <point x="16" y="23" type="curve" smooth="yes"/>
      <point x="16" y="17"/>
      <point x="25" y="17"/>
      <point x="30" y="17" type="curve" smooth="yes"/>
      <point x="97" y="17"/>
      <point x="188" y="25"/>
      <point x="246" y="25" type="curve" smooth="yes"/>
      <point x="247" y="25"/>
      <point x="263" y="22"/>
      <point x="263" y="15" type="curve" smooth="yes"/>
      <point x="263" y="-168" type="line" smooth="yes"/>
      <point x="263" y="-178"/>
      <point x="270" y="-181"/>
      <point x="279" y="-181" type="curve" smooth="yes"/>
    </contour>
    <contour>
      <point x="177" y="112"/>
      <point x="175" y="115"/>
      <point x="176" y="118" type="curve"/>
      <point x="259" y="211" type="line"/>
      <point x="260" y="213"/>
      <point x="263" y="212"/>
      <point x="263" y="211" type="curve" smooth="yes"/>
      <point x="263" y="118" type="line" smooth="yes"/>
      <point x="263" y="115"/>
      <point x="260" y="112"/>
      <point x="256" y="112" type="curve" smooth="yes"/>
      <point x="179" y="112" type="line" smooth="yes"/>
    </contour>
  </outline>
</glyph>
<glyph name="six" format="1">
  <advance width="478"/>
  <unicode hex="0036"/>
  <note>
	six
  </note>
  <outline>
    <contour>
      <point x="385" y="-14"/>
      <point x="458" y="91"/>
      <point x="458" y="202" type="curve" smooth="yes"/>
      <point x="458" y="283"/>
      <point x="398" y="340"/>
      <point x="324" y="340" type="curve" smooth="yes"/>
      <point x="285" y="340"/>
      <point x="235" y="315"/>
      <point x="219" y="302" type="curve" smooth="yes"/>
      <point x="211" y="295"/>
      <point x="205" y="290"/>
      <point x="197" y="282" type="curve"/>
      <point x="180" y="263"/>
      <point x="187" y="242"/>
      <point x="215" y="255" type="curve" smooth="yes"/>
      <point x="224" y="259"/>
      <point x="232" y="261"/>
      <point x="246" y="261" type="curve" smooth="yes"/>
      <point x="277" y="261"/>
      <point x="303" y="209"/>
      <point x="303" y="149" type="curve" smooth="yes"/>
      <point x="303" y="92"/>
      <point x="283" y="37"/>
      <point x="240" y="37" type="curve" smooth="yes"/>
      <point x="189" y="37"/>
      <point x="164" y="129"/>
      <point x="164" y="198" type="curve" smooth="yes"/>
      <point x="164" y="312"/>
      <point x="212" y="406"/>
      <point x="241" y="453" type="curve" smooth="yes"/>
      <point x="282" y="518"/>
      <point x="325" y="558"/>
      <point x="393" y="593" type="curve"/>
      <point x="398" y="596"/>
      <point x="430" y="610"/>
      <point x="430" y="632" type="curve" smooth="yes"/>
      <point x="430" y="643"/>
      <point x="402" y="640"/>
      <point x="378" y="631" type="curve" smooth="yes"/>
      <point x="270" y="592"/>
      <point x="174" y="527"/>
      <point x="128" y="472" type="curve" smooth="yes"/>
      <point x="95" y="432"/>
      <point x="21" y="339"/>
      <point x="21" y="193" type="curve" smooth="yes"/>
      <point x="21" y="73"/>
      <point x="85" y="-14"/>
      <point x="230" y="-14" type="curve" smooth="yes"/>
    </contour>
  </outline>
</glyph>
<glyph name="eight" format="1">
  <advance width="513"/>
  <unicode hex="0038"/>
  <note>
	eight
  </note>
  <outline>
    <contour>
      <point x="370" y="-13"/>
      <point x="473" y="55"/>
      <point x="473" y="164" type="curve" smooth="yes"/>
      <point x="473" y="234"/>
      <point x="421" y="268"/>
      <point x="352" y="313" type="curve" smooth="yes"/>
      <point x="339" y="322"/>
      <point x="337" y="325"/>
      <point x="358" y="338" type="curve" smooth="yes"/>
      <point x="369" y="345"/>
      <point x="381" y="353"/>
      <point x="392" y="360" type="curve" smooth="yes"/>
      <point x="421" y="379"/>
      <point x="453" y="407"/>
      <point x="453" y="456" type="curve" smooth="yes"/>
      <point x="453" y="536"/>
      <point x="364" y="590"/>
      <point x="271" y="590" type="curve" smooth="yes"/>
      <point x="167" y="590"/>
      <point x="60" y="537"/>
      <point x="60" y="450" type="curve" smooth="yes"/>
      <point x="60" y="378"/>
      <point x="109" y="331"/>
      <point x="167" y="288" type="curve" smooth="yes"/>
      <point x="177" y="281"/>
      <point x="182" y="277"/>
      <point x="171" y="271" type="curve" smooth="yes"/>
      <point x="112" y="240"/>
      <point x="40" y="205"/>
      <point x="40" y="135" type="curve" smooth="yes"/>
      <point x="40" y="47"/>
      <point x="130" y="-13"/>
      <point x="243" y="-13" type="curve" smooth="yes"/>
    </contour>
    <contour>
      <point x="213" y="52"/>
      <point x="181" y="99"/>
      <point x="181" y="149" type="curve" smooth="yes"/>
      <point x="181" y="192"/>
      <point x="193" y="215"/>
      <point x="218" y="237" type="curve"/>
      <point x="223" y="241"/>
      <point x="226" y="243"/>
      <point x="229" y="243" type="curve" smooth="yes"/>
      <point x="234" y="243"/>
      <point x="237" y="240"/>
      <point x="244" y="235" type="curve" smooth="yes"/>
      <point x="284" y="207"/>
      <point x="335" y="165"/>
      <point x="335" y="122" type="curve" smooth="yes"/>
      <point x="335" y="82"/>
      <point x="304" y="52"/>
      <point x="261" y="52" type="curve" smooth="yes"/>
    </contour>
    <contour>
      <point x="232" y="396"/>
      <point x="194" y="428"/>
      <point x="194" y="476" type="curve" smooth="yes"/>
      <point x="194" y="512"/>
      <point x="226" y="537"/>
      <point x="258" y="537" type="curve" smooth="yes"/>
      <point x="295" y="537"/>
      <point x="316" y="499"/>
      <point x="316" y="458" type="curve" smooth="yes"/>
      <point x="316" y="420"/>
      <point x="310" y="385"/>
      <point x="298" y="366" type="curve" smooth="yes"/>
      <point x="292" y="356"/>
      <point x="282" y="359"/>
      <point x="273" y="366" type="curve" smooth="yes"/>
    </contour>
  </outline>
</glyph>
<glyph name="equal" format="1">
  <advance width="643"/>
  <unicode hex="003D"/>
  <note>
	equal
  </note>
  <outline>
    <contour>
      <point x="571" y="316" type="line" smooth="yes"/>
      <point x="588" y="316"/>
      <point x="603" y="342"/>
      <point x="603" y="358" type="curve" smooth="yes"/>
      <point x="603" y="367"/>
      <point x="593" y="374"/>
      <point x="580" y="374" type="curve" smooth="yes"/>
      <point x="58" y="374" type="line" smooth="yes"/>
      <point x="37" y="374"/>
      <point x="30" y="341"/>
      <point x="30" y="329" type="curve" smooth="yes"/>
      <point x="30" y="324"/>
      <point x="37" y="316"/>
      <point x="46" y="316" type="curve" smooth="yes"/>
    </contour>
    <contour>
      <point x="571" y="133" type="line" smooth="yes"/>
      <point x="588" y="133"/>
      <point x="603" y="159"/>
      <point x="603" y="175" type="curve" smooth="yes"/>
      <point x="603" y="184"/>
      <point x="593" y="191"/>
      <point x="580" y="191" type="curve" smooth="yes"/>
      <point x="58" y="191" type="line" smooth="yes"/>
      <point x="37" y="191"/>
      <point x="30" y="158"/>
      <point x="30" y="146" type="curve" smooth="yes"/>
      <point x="30" y="141"/>
      <point x="37" y="133"/>
      <point x="46" y="133" type="curve" smooth="yes"/>
    </contour>
  </outline>
</glyph>
<glyph name="B" format="1">
  <advance width="635"/>
  <unicode hex="0042"/>
  <note>
	B
  </note>
  <outline>
    <contour>
      <point x="74" y="-5"/>
      <point x="138" y="0"/>
      <point x="179" y="0" type="curve" smooth="yes"/>
      <point x="231" y="0"/>
      <point x="275" y="-4"/>
      <point x="326" y="-4" type="curve" smooth="yes"/>
      <point x="403" y="-4"/>
      <point x="457" y="6"/>
      <point x="501" y="27" type="curve" smooth="yes"/>
      <point x="543" y="48"/>
      <point x="607" y="81"/>
      <point x="607" y="194" type="curve" smooth="yes"/>
      <point x="607" y="310"/>
      <point x="515" y="342"/>
      <point x="443" y="355" type="curve" smooth="yes"/>
      <point x="437" y="356"/>
      <point x="438" y="364"/>
      <point x="443" y="365" type="curve" smooth="yes"/>
      <point x="471" y="371"/>
      <point x="496" y="384"/>
      <point x="517" y="402" type="curve" smooth="yes"/>
      <point x="550" y="429"/>
      <point x="571" y="468"/>
      <point x="571" y="508" type="curve" smooth="yes"/>
      <point x="571" y="617"/>
      <point x="486" y="657"/>
      <point x="327" y="657" type="curve" smooth="yes"/>
      <point x="254" y="657"/>
      <point x="226" y="647"/>
      <point x="178" y="647" type="curve" smooth="yes"/>
      <point x="126" y="647"/>
      <point x="100" y="655"/>
      <point x="35" y="655" type="curve" smooth="yes"/>
      <point x="23" y="655"/>
      <point x="15" y="648"/>
      <point x="15" y="639" type="curve" smooth="yes"/>
      <point x="15" y="631"/>
      <point x="20" y="622"/>
      <point x="36" y="618" type="curve" smooth="yes"/>
      <point x="83" y="607"/>
      <point x="96" y="594"/>
      <point x="96" y="551" type="curve" smooth="yes"/>
      <point x="96" y="95" type="line" smooth="yes"/>
      <point x="96" y="54"/>
      <point x="80" y="45"/>
      <point x="36" y="32" type="curve" smooth="yes"/>
      <point x="23" y="28"/>
      <point x="16" y="19"/>
      <point x="16" y="11" type="curve" smooth="yes"/>
      <point x="16" y="3"/>
      <point x="23" y="-5"/>
      <point x="35" y="-5" type="curve" smooth="yes"/>
    </contour>
    <contour>
      <point x="287" y="54"/>
      <point x="266" y="76"/>
      <point x="266" y="116" type="curve" smooth="yes"/>
      <point x="266" y="288" type="line" smooth="yes"/>
      <point x="266" y="311"/>
      <point x="293" y="320"/>
      <point x="310" y="320" type="curve" smooth="yes"/>
      <point x="346" y="320"/>
      <point x="371" y="307"/>
      <point x="381" y="298" type="curve" smooth="yes"/>
      <point x="398" y="284"/>
      <point x="426" y="253"/>
      <point x="426" y="186" type="curve" smooth="yes"/>
      <point x="426" y="111"/>
      <point x="379" y="54"/>
      <point x="323" y="54" type="curve" smooth="yes"/>
    </contour>
    <contour>
      <point x="289" y="368"/>
      <point x="266" y="379"/>
      <point x="266" y="403" type="curve" smooth="yes"/>
      <point x="266" y="568" type="line" smooth="yes"/>
      <point x="266" y="596"/>
      <point x="283" y="610"/>
      <point x="317" y="610" type="curve" smooth="yes"/>
      <point x="379" y="610"/>
      <point x="411" y="574"/>
      <point x="411" y="485" type="curve" smooth="yes"/>
      <point x="411" y="431"/>
      <point x="391" y="404"/>
      <point x="382" y="395" type="curve" smooth="yes"/>
      <point x="358" y="374"/>
      <point x="336" y="368"/>
      <point x="305" y="368" type="curve" smooth="yes"/>
    </contour>
    <contour>
      <point x="302" y="675" type="move" name="top.cap"/>
    </contour>
    <contour>
      <point x="318" y="-30" type="move" name="bottom.cap"/>
    </contour>
  </outline>
</glyph>
<glyph name="G" format="1">
  <advance width="733"/>
  <unicode hex="0047"/>
  <note>
	G
  </note>
  <outline>
    <contour>
      <point x="529" y="-14"/>
      <point x="610" y="45"/>
      <point x="632" y="48" type="curve" smooth="yes"/>
      <point x="647" y="50"/>
      <point x="653" y="60"/>
      <point x="653" y="70" type="curve" smooth="yes"/>
      <point x="653" y="78"/>
      <point x="650" y="85"/>
      <point x="643" y="92" type="curve" smooth="yes"/>
      <point x="636" y="99"/>
      <point x="629" y="105"/>
      <point x="629" y="112" type="curve" smooth="yes"/>
      <point x="629" y="146" type="line" smooth="yes"/>
      <point x="629" y="172"/>
      <point x="630" y="192"/>
      <point x="636" y="221" type="curve" smooth="yes"/>
      <point x="641" y="248"/>
      <point x="651" y="259"/>
      <point x="691" y="270" type="curve" smooth="yes"/>
      <point x="703" y="273"/>
      <point x="710" y="278"/>
      <point x="710" y="291" type="curve" smooth="yes"/>
      <point x="710" y="301"/>
      <point x="704" y="306"/>
      <point x="694" y="306" type="curve" smooth="yes"/>
      <point x="652" y="306"/>
      <point x="602" y="302"/>
      <point x="563" y="302" type="curve" smooth="yes"/>
      <point x="523" y="302"/>
      <point x="448" y="307"/>
      <point x="404" y="307" type="curve" smooth="yes"/>
      <point x="393" y="307"/>
      <point x="382" y="301"/>
      <point x="382" y="292" type="curve" smooth="yes"/>
      <point x="382" y="280"/>
      <point x="395" y="272"/>
      <point x="407" y="269" type="curve" smooth="yes"/>
      <point x="425" y="265"/>
      <point x="444" y="259"/>
      <point x="464" y="251" type="curve" smooth="yes"/>
      <point x="484" y="243"/>
      <point x="490" y="229"/>
      <point x="490" y="215" type="curve" smooth="yes"/>
      <point x="490" y="197"/>
      <point x="489" y="144"/>
      <point x="488" y="127" type="curve" smooth="yes"/>
      <point x="487" y="99"/>
      <point x="479" y="74"/>
      <point x="466" y="65" type="curve" smooth="yes"/>
      <point x="452" y="55"/>
      <point x="433" y="43"/>
      <point x="409" y="43" type="curve" smooth="yes"/>
      <point x="269" y="43"/>
      <point x="208" y="165"/>
      <point x="208" y="344" type="curve" smooth="yes"/>
      <point x="208" y="483"/>
      <point x="287" y="609"/>
      <point x="440" y="609" type="curve" smooth="yes"/>
      <point x="501" y="609"/>
      <point x="534" y="588"/>
      <point x="560" y="562" type="curve" smooth="yes"/>
      <point x="583" y="539"/>
      <point x="600" y="506"/>
      <point x="612" y="480" type="curve" smooth="yes"/>
      <point x="618" y="468"/>
      <point x="624" y="460"/>
      <point x="640" y="460" type="curve" smooth="yes"/>
      <point x="650" y="460"/>
      <point x="657" y="467"/>
      <point x="657" y="480" type="curve" smooth="yes"/>
      <point x="657" y="509"/>
      <point x="652" y="553"/>
      <point x="645" y="601" type="curve" smooth="yes"/>
      <point x="643" y="616"/>
      <point x="635" y="623"/>
      <point x="623" y="628" type="curve" smooth="yes"/>
      <point x="576" y="646"/>
      <point x="477" y="664"/>
      <point x="422" y="664" type="curve" smooth="yes"/>
      <point x="176" y="664"/>
      <point x="25" y="495"/>
      <point x="25" y="315" type="curve" smooth="yes"/>
      <point x="25" y="118"/>
      <point x="188" y="-14"/>
      <point x="392" y="-14" type="curve" smooth="yes"/>
    </contour>
  </outline>
</glyph>
<glyph name="I" format="1">
  <advance width="369"/>
  <unicode hex="0049"/>
  <note>
	I
  </note>
  <outline>
    <contour>
      <point x="77" y="-3"/>
      <point x="143" y="2"/>
      <point x="183" y="2" type="curve" smooth="yes"/>
      <point x="222" y="2"/>
      <point x="296" y="-2"/>
      <point x="338" y="-2" type="curve" smooth="yes"/>
      <point x="348" y="-2"/>
      <point x="354" y="3"/>
      <point x="354" y="13" type="curve" smooth="yes"/>
      <point x="354" y="26"/>
      <point x="347" y="30"/>
      <point x="335" y="34" type="curve" smooth="yes"/>
      <point x="283" y="49"/>
      <point x="270" y="61"/>
      <point x="270" y="98" type="curve" smooth="yes"/>
      <point x="270" y="550" type="line" smooth="yes"/>
      <point x="270" y="590"/>
      <point x="280" y="602"/>
      <point x="335" y="618" type="curve" smooth="yes"/>
      <point x="347" y="622"/>
      <point x="354" y="626"/>
      <point x="354" y="639" type="curve" smooth="yes"/>
      <point x="354" y="649"/>
      <point x="348" y="654"/>
      <point x="338" y="654" type="curve" smooth="yes"/>
      <point x="296" y="654"/>
      <point x="222" y="650"/>
      <point x="183" y="650" type="curve" smooth="yes"/>
      <point x="143" y="650"/>
      <point x="77" y="655"/>
      <point x="33" y="655" type="curve" smooth="yes"/>
      <point x="25" y="655"/>
      <point x="15" y="649"/>
      <point x="15" y="640" type="curve" smooth="yes"/>
      <point x="15" y="628"/>
      <point x="22" y="621"/>
      <point x="34" y="618" type="curve" smooth="yes"/>
      <point x="87" y="606"/>
      <point x="100" y="594"/>
      <point x="100" y="551" type="curve" smooth="yes"/>
      <point x="100" y="97" type="line" smooth="yes"/>
      <point x="100" y="56"/>
      <point x="85" y="45"/>
      <point x="34" y="34" type="curve" smooth="yes"/>
      <point x="22" y="31"/>
      <point x="15" y="24"/>
      <point x="15" y="12" type="curve" smooth="yes"/>
      <point x="15" y="3"/>
      <point x="25" y="-3"/>
      <point x="33" y="-3" type="curve" smooth="yes"/>
    </contour>
  </outline>
</glyph>
<glyph name="K" format="1">
  <advance width="781"/>
  <unicode hex="004B"/>
  <note>
	K
  </note>
  <outline>
    <contour>
      <point x="112" y="-6"/>
      <point x="143" y="4"/>
      <point x="183" y="4" type="curve" smooth="yes"/>
      <point x="222" y="4"/>
      <point x="262" y="-4"/>
      <point x="326" y="-4" type="curve" smooth="yes"/>
      <point x="339" y="-4"/>
      <point x="354" y="3"/>
      <point x="354" y="13" type="curve" smooth="yes"/>
      <point x="354" y="26"/>
      <point x="341" y="30"/>
      <point x="329" y="34" type="curve"/>
      <point x="277" y="49"/>
      <point x="274" y="61"/>
      <point x="272" y="98" type="curve" smooth="yes"/>
      <point x="269" y="158"/>
      <point x="269" y="217"/>
      <point x="269" y="277" type="curve" smooth="yes"/>
      <point x="269" y="288"/>
      <point x="274" y="293"/>
      <point x="280" y="293" type="curve" smooth="yes"/>
      <point x="287" y="293"/>
      <point x="295" y="288"/>
      <point x="304" y="277" type="curve"/>
      <point x="456" y="97" type="line"/>
      <point x="467" y="84"/>
      <point x="473" y="73"/>
      <point x="473" y="63" type="curve" smooth="yes"/>
      <point x="472" y="50"/>
      <point x="459" y="40"/>
      <point x="429" y="34" type="curve" smooth="yes"/>
      <point x="417" y="31"/>
      <point x="410" y="24"/>
      <point x="410" y="12" type="curve" smooth="yes"/>
      <point x="410" y="3"/>
      <point x="420" y="-3"/>
      <point x="428" y="-3" type="curve" smooth="yes"/>
      <point x="475" y="-3"/>
      <point x="514" y="2"/>
      <point x="563" y="2" type="curve" smooth="yes"/>
      <point x="627" y="2"/>
      <point x="689" y="-5"/>
      <point x="750" y="-5" type="curve" smooth="yes"/>
      <point x="777" y="-5"/>
      <point x="791" y="3"/>
      <point x="791" y="13" type="curve" smooth="yes"/>
      <point x="791" y="26"/>
      <point x="772" y="30"/>
      <point x="760" y="34" type="curve"/>
      <point x="708" y="49"/>
      <point x="683" y="71"/>
      <point x="659" y="98" type="curve" smooth="yes"/>
      <point x="423" y="364" type="line" smooth="yes"/>
      <point x="413" y="375"/>
      <point x="413" y="387"/>
      <point x="423" y="396" type="curve" smooth="yes"/>
      <point x="482" y="450"/>
      <point x="531" y="513"/>
      <point x="589" y="557" type="curve" smooth="yes"/>
      <point x="626" y="585"/>
      <point x="672" y="609"/>
      <point x="743" y="618" type="curve" smooth="yes"/>
      <point x="755" y="620"/>
      <point x="773" y="626"/>
      <point x="773" y="639" type="curve" smooth="yes"/>
      <point x="773" y="649"/>
      <point x="759" y="654"/>
      <point x="746" y="654" type="curve" smooth="yes"/>
      <point x="664" y="654"/>
      <point x="609" y="651"/>
      <point x="540" y="651" type="curve"/>
      <point x="468" y="651" type="line"/>
      <point x="460" y="651"/>
      <point x="450" y="645"/>
      <point x="450" y="636" type="curve" smooth="yes"/>
      <point x="450" y="624"/>
      <point x="457" y="617"/>
      <point x="469" y="614" type="curve" smooth="yes"/>
      <point x="500" y="607"/>
      <point x="515" y="596"/>
      <point x="515" y="582" type="curve" smooth="yes"/>
      <point x="515" y="573"/>
      <point x="507" y="563"/>
      <point x="496" y="551" type="curve" smooth="yes"/>
      <point x="305" y="343" type="line"/>
      <point x="294" y="334"/>
      <point x="288" y="328"/>
      <point x="281" y="328" type="curve" smooth="yes"/>
      <point x="275" y="328"/>
      <point x="270" y="332"/>
      <point x="270" y="343" type="curve" smooth="yes"/>
      <point x="270" y="550" type="line" smooth="yes"/>
      <point x="270" y="590"/>
      <point x="280" y="602"/>
      <point x="335" y="618" type="curve"/>
      <point x="347" y="622"/>
      <point x="354" y="626"/>
      <point x="354" y="639" type="curve" smooth="yes"/>
      <point x="354" y="649"/>
      <point x="348" y="654"/>
      <point x="338" y="654" type="curve" smooth="yes"/>
      <point x="296" y="654"/>
      <point x="222" y="650"/>
      <point x="183" y="650" type="curve" smooth="yes"/>
      <point x="143" y="650"/>
      <point x="77" y="655"/>
      <point x="33" y="655" type="curve" smooth="yes"/>
      <point x="25" y="655"/>
      <point x="15" y="649"/>
      <point x="15" y="640" type="curve" smooth="yes"/>
      <point x="15" y="628"/>
      <point x="22" y="621"/>
      <point x="34" y="618" type="curve" smooth="yes"/>
      <point x="87" y="606"/>
      <point x="100" y="594"/>
      <point x="100" y="551" type="curve" smooth="yes"/>
      <point x="100" y="97" type="line" smooth="yes"/>
      <point x="100" y="56"/>
      <point x="91" y="44"/>
      <point x="40" y="34" type="curve" smooth="yes"/>
      <point x="24" y="31"/>
      <point x="15" y="24"/>
      <point x="15" y="12" type="curve" smooth="yes"/>
      <point x="15" y="3"/>
      <point x="31" y="-6"/>
      <point x="43" y="-6" type="curve" smooth="yes"/>
    </contour>
    <contour>
      <point x="402" y="675" type="move" name="top.cap"/>
    </contour>
    <contour>
      <point x="381" y="-30" type="move" name="bottom.cap"/>
    </contour>
  </outline>
</glyph>
<glyph name="L" format="1">
  <advance width="586"/>
  <unicode hex="004C"/>
  <note>
	L
  </note>
  <outline>
    <contour>
      <point x="78" y="-5"/>
      <point x="143" y="0"/>
      <point x="183" y="0" type="curve" smooth="yes"/>
      <point x="304" y="0"/>
      <point x="493" y="-5"/>
      <point x="530" y="-5" type="curve" smooth="yes"/>
      <point x="542" y="-5"/>
      <point x="546" y="5"/>
      <point x="547" y="14" type="curve" smooth="yes"/>
      <point x="552" y="64"/>
      <point x="563" y="103"/>
      <point x="580" y="163" type="curve"/>
      <point x="580" y="165"/>
      <point x="581" y="167"/>
      <point x="581" y="169" type="curve" smooth="yes"/>
      <point x="581" y="178"/>
      <point x="577" y="190"/>
      <point x="567" y="190" type="curve" smooth="yes"/>
      <point x="559" y="190"/>
      <point x="553" y="188"/>
      <point x="548" y="178" type="curve"/>
      <point x="535" y="147"/>
      <point x="512" y="102"/>
      <point x="494" y="86" type="curve" smooth="yes"/>
      <point x="471" y="65"/>
      <point x="442" y="59"/>
      <point x="416" y="59" type="curve" smooth="yes"/>
      <point x="319" y="59" type="line" smooth="yes"/>
      <point x="285" y="59"/>
      <point x="270" y="73"/>
      <point x="270" y="110" type="curve" smooth="yes"/>
      <point x="270" y="550" type="line" smooth="yes"/>
      <point x="270" y="590"/>
      <point x="280" y="602"/>
      <point x="335" y="618" type="curve"/>
      <point x="347" y="622"/>
      <point x="354" y="626"/>
      <point x="354" y="639" type="curve" smooth="yes"/>
      <point x="354" y="649"/>
      <point x="348" y="654"/>
      <point x="338" y="654" type="curve" smooth="yes"/>
      <point x="296" y="654"/>
      <point x="222" y="650"/>
      <point x="183" y="650" type="curve" smooth="yes"/>
      <point x="143" y="650"/>
      <point x="77" y="655"/>
      <point x="33" y="655" type="curve" smooth="yes"/>
      <point x="25" y="655"/>
      <point x="15" y="649"/>
      <point x="15" y="640" type="curve" smooth="yes"/>
      <point x="15" y="628"/>
      <point x="22" y="621"/>
      <point x="34" y="618" type="curve" smooth="yes"/>
      <point x="87" y="606"/>
      <point x="100" y="594"/>
      <point x="100" y="551" type="curve" smooth="yes"/>
      <point x="100" y="95" type="line" smooth="yes"/>
      <point x="100" y="54"/>
      <point x="84" y="45"/>
      <point x="40" y="32" type="curve" smooth="yes"/>
      <point x="27" y="28"/>
      <point x="20" y="19"/>
      <point x="20" y="11" type="curve" smooth="yes"/>
      <point x="20" y="3"/>
      <point x="27" y="-5"/>
      <point x="39" y="-5" type="curve" smooth="yes"/>
    </contour>
  </outline>
</glyph>
<glyph name="M" format="1">
  <advance width="921"/>
  <unicode hex="004D"/>
  <note>
	M
  </note>
  <outline>
    <contour>
      <point x="43" y="-3"/>
      <point x="108" y="1"/>
      <point x="154" y="1" type="curve" smooth="yes"/>
      <point x="195" y="1"/>
      <point x="202" y="-2"/>
      <point x="257" y="-2" type="curve" smooth="yes"/>
      <point x="267" y="-2"/>
      <point x="281" y="3"/>
      <point x="281" y="13" type="curve" smooth="yes"/>
      <point x="281" y="26"/>
      <point x="266" y="31"/>
      <point x="254" y="34" type="curve" smooth="yes"/>
      <point x="201" y="47"/>
      <point x="183" y="61"/>
      <point x="183" y="98" type="curve" smooth="yes"/>
      <point x="183" y="195"/>
      <point x="198" y="302"/>
      <point x="206" y="392" type="curve" smooth="yes"/>
      <point x="208" y="409"/>
      <point x="219" y="414"/>
      <point x="224" y="401" type="curve" smooth="yes"/>
      <point x="283" y="257"/>
      <point x="335" y="155"/>
      <point x="405" y="1" type="curve" smooth="yes"/>
      <point x="410" y="-10"/>
      <point x="425" y="-18"/>
      <point x="433" y="3" type="curve"/>
      <point x="612" y="421" type="line" smooth="yes"/>
      <point x="616" y="430"/>
      <point x="621" y="431"/>
      <point x="621" y="423" type="curve" smooth="yes"/>
      <point x="626" y="314"/>
      <point x="630" y="216"/>
      <point x="637" y="97" type="curve" smooth="yes"/>
      <point x="639" y="57"/>
      <point x="622" y="45"/>
      <point x="571" y="34" type="curve" smooth="yes"/>
      <point x="559" y="31"/>
      <point x="549" y="24"/>
      <point x="549" y="12" type="curve" smooth="yes"/>
      <point x="549" y="3"/>
      <point x="559" y="-3"/>
      <point x="570" y="-3" type="curve" smooth="yes"/>
      <point x="614" y="-3"/>
      <point x="680" y="2"/>
      <point x="720" y="2" type="curve" smooth="yes"/>
      <point x="759" y="2"/>
      <point x="840" y="-2"/>
      <point x="882" y="-2" type="curve" smooth="yes"/>
      <point x="892" y="-2"/>
      <point x="901" y="3"/>
      <point x="901" y="13" type="curve" smooth="yes"/>
      <point x="901" y="26"/>
      <point x="891" y="30"/>
      <point x="879" y="34" type="curve"/>
      <point x="839" y="45"/>
      <point x="810" y="65"/>
      <point x="807" y="98" type="curve"/>
      <point x="795" y="277"/>
      <point x="791" y="326"/>
      <point x="782" y="522" type="curve" smooth="yes"/>
      <point x="779" y="572"/>
      <point x="797" y="594"/>
      <point x="837" y="613" type="curve" smooth="yes"/>
      <point x="842" y="615"/>
      <point x="852" y="620"/>
      <point x="858" y="622" type="curve" smooth="yes"/>
      <point x="870" y="626"/>
      <point x="881" y="630"/>
      <point x="881" y="642" type="curve" smooth="yes"/>
      <point x="881" y="654"/>
      <point x="870" y="658"/>
      <point x="855" y="658" type="curve" smooth="yes"/>
      <point x="818" y="658"/>
      <point x="745" y="649"/>
      <point x="686" y="647" type="curve"/>
      <point x="641" y="647" type="line"/>
      <point x="632" y="647"/>
      <point x="627" y="643"/>
      <point x="624" y="634" type="curve" smooth="yes"/>
      <point x="619" y="618"/>
      <point x="614" y="590"/>
      <point x="610" y="570" type="curve"/>
      <point x="464" y="242" type="line"/>
      <point x="462" y="236"/>
      <point x="458" y="237"/>
      <point x="456" y="242" type="curve"/>
      <point x="320" y="562" type="line" smooth="yes"/>
      <point x="309" y="589"/>
      <point x="302" y="608"/>
      <point x="292" y="635" type="curve" smooth="yes"/>
      <point x="289" y="643"/>
      <point x="278" y="653"/>
      <point x="268" y="653" type="curve" smooth="yes"/>
      <point x="196" y="653"/>
      <point x="111" y="658"/>
      <point x="69" y="658" type="curve" smooth="yes"/>
      <point x="54" y="658"/>
      <point x="43" y="654"/>
      <point x="43" y="642" type="curve" smooth="yes"/>
      <point x="43" y="630"/>
      <point x="54" y="624"/>
      <point x="70" y="620" type="curve" smooth="yes"/>
      <point x="90" y="615"/>
      <point x="107" y="607"/>
      <point x="122" y="599" type="curve" smooth="yes"/>
      <point x="139" y="590"/>
      <point x="148" y="576"/>
      <point x="148" y="550" type="curve" smooth="yes"/>
      <point x="148" y="535"/>
      <point x="148" y="522"/>
      <point x="147" y="516" type="curve" smooth="yes"/>
      <point x="133" y="352"/>
      <point x="113" y="189"/>
      <point x="103" y="115" type="curve" smooth="yes"/>
      <point x="98" y="75"/>
      <point x="78" y="42"/>
      <point x="47" y="30" type="curve" smooth="yes"/>
      <point x="35" y="25"/>
      <point x="20" y="24"/>
      <point x="20" y="12" type="curve" smooth="yes"/>
      <point x="20" y="3"/>
      <point x="27" y="-3"/>
      <point x="43" y="-3" type="curve" smooth="yes"/>
    </contour>
  </outline>
</glyph>
<glyph name="Q" format="1">
  <advance width="759"/>
  <unicode hex="0051"/>
  <note>
	Q
  </note>
  <outline>
    <contour>
      <point x="788" y="-248"/>
      <point x="838" y="-238"/>
      <point x="865" y="-221" type="curve" smooth="yes"/>
      <point x="880" y="-212"/>
      <point x="888" y="-201"/>
      <point x="888" y="-189" type="curve" smooth="yes"/>
      <point x="888" y="-170"/>
      <point x="876" y="-161"/>
      <point x="857" y="-161" type="curve" smooth="yes"/>
      <point x="849" y="-161"/>
      <point x="842" y="-162"/>
      <point x="834" y="-163" type="curve" smooth="yes"/>
      <point x="826" y="-164"/>
      <point x="816" y="-165"/>
      <point x="803" y="-165" type="curve" smooth="yes"/>
      <point x="752" y="-165"/>
      <point x="694" y="-151"/>
      <point x="629" y="-97" type="curve" smooth="yes"/>
      <point x="579" y="-56"/>
      <point x="554" y="-33"/>
      <point x="525" y="-5" type="curve" smooth="yes"/>
      <point x="522" y="-2"/>
      <point x="520" y="0"/>
      <point x="520" y="5" type="curve" smooth="yes"/>
      <point x="520" y="10"/>
      <point x="524" y="14"/>
      <point x="531" y="16" type="curve"/>
      <point x="664" y="73"/>
      <point x="734" y="201"/>
      <point x="734" y="335" type="curve" smooth="yes"/>
      <point x="734" y="532"/>
      <point x="570" y="664"/>
      <point x="384" y="664" type="curve" smooth="yes"/>
      <point x="150" y="664"/>
      <point x="25" y="495"/>
      <point x="25" y="315" type="curve" smooth="yes"/>
      <point x="25" y="122"/>
      <point x="159" y="41"/>
      <point x="243" y="11" type="curve" smooth="yes"/>
      <point x="298" y="-9"/>
      <point x="333" y="-49"/>
      <point x="356" y="-70" type="curve" smooth="yes"/>
      <point x="400" y="-110"/>
      <point x="436" y="-136"/>
      <point x="484" y="-170" type="curve" smooth="yes"/>
      <point x="554" y="-220"/>
      <point x="650" y="-248"/>
      <point x="726" y="-248" type="curve" smooth="yes"/>
    </contour>
    <contour>
      <point x="271" y="42"/>
      <point x="208" y="165"/>
      <point x="208" y="344" type="curve" smooth="yes"/>
      <point x="208" y="504"/>
      <point x="263" y="607"/>
      <point x="371" y="607" type="curve" smooth="yes"/>
      <point x="488" y="607"/>
      <point x="551" y="484"/>
      <point x="551" y="306" type="curve" smooth="yes"/>
      <point x="551" y="145"/>
      <point x="495" y="42"/>
      <point x="386" y="42" type="curve" smooth="yes"/>
    </contour>
  </outline>
</glyph>
<glyph name="R" format="1">
  <advance width="770"/>
  <unicode hex="0052"/>
  <note>
	R
  </note>
  <outline>
    <contour>
      <point x="725" y="-21"/>
      <point x="775" y="-2"/>
      <point x="775" y="46" type="curve" smooth="yes"/>
      <point x="775" y="59"/>
      <point x="770" y="65"/>
      <point x="760" y="65" type="curve" smooth="yes"/>
      <point x="713" y="65"/>
      <point x="661" y="66"/>
      <point x="615" y="110" type="curve" smooth="yes"/>
      <point x="557" y="165"/>
      <point x="507" y="227"/>
      <point x="448" y="316" type="curve"/>
      <point x="445" y="320"/>
      <point x="444" y="326"/>
      <point x="449" y="328" type="curve"/>
      <point x="510" y="355"/>
      <point x="573" y="403"/>
      <point x="573" y="493" type="curve" smooth="yes"/>
      <point x="573" y="602"/>
      <point x="486" y="657"/>
      <point x="326" y="657" type="curve" smooth="yes"/>
      <point x="251" y="657"/>
      <point x="230" y="647"/>
      <point x="182" y="647" type="curve" smooth="yes"/>
      <point x="130" y="647"/>
      <point x="104" y="655"/>
      <point x="39" y="655" type="curve" smooth="yes"/>
      <point x="27" y="655"/>
      <point x="19" y="648"/>
      <point x="19" y="639" type="curve" smooth="yes"/>
      <point x="19" y="631"/>
      <point x="24" y="622"/>
      <point x="40" y="618" type="curve" smooth="yes"/>
      <point x="87" y="607"/>
      <point x="100" y="594"/>
      <point x="100" y="551" type="curve" smooth="yes"/>
      <point x="100" y="97" type="line" smooth="yes"/>
      <point x="100" y="56"/>
      <point x="85" y="45"/>
      <point x="34" y="34" type="curve" smooth="yes"/>
      <point x="22" y="31"/>
      <point x="15" y="24"/>
      <point x="15" y="12" type="curve" smooth="yes"/>
      <point x="15" y="3"/>
      <point x="25" y="-3"/>
      <point x="33" y="-3" type="curve" smooth="yes"/>
      <point x="77" y="-3"/>
      <point x="143" y="2"/>
      <point x="183" y="2" type="curve" smooth="yes"/>
      <point x="222" y="2"/>
      <point x="309" y="-2"/>
      <point x="351" y="-2" type="curve" smooth="yes"/>
      <point x="361" y="-2"/>
      <point x="367" y="3"/>
      <point x="367" y="13" type="curve" smooth="yes"/>
      <point x="367" y="26"/>
      <point x="360" y="31"/>
      <point x="348" y="34" type="curve"/>
      <point x="291" y="46"/>
      <point x="270" y="56"/>
      <point x="270" y="98" type="curve" smooth="yes"/>
      <point x="270" y="280" type="line" smooth="yes"/>
      <point x="270" y="292"/>
      <point x="273" y="300"/>
      <point x="280" y="300" type="curve" smooth="yes"/>
      <point x="287" y="300"/>
      <point x="296" y="298"/>
      <point x="304" y="293" type="curve" smooth="yes"/>
      <point x="314" y="287"/>
      <point x="330" y="281"/>
      <point x="336" y="268" type="curve" smooth="yes"/>
      <point x="372" y="185"/>
      <point x="404" y="136"/>
      <point x="446" y="79" type="curve" smooth="yes"/>
      <point x="486" y="25"/>
      <point x="534" y="-21"/>
      <point x="647" y="-21" type="curve" smooth="yes"/>
    </contour>
    <contour>
      <point x="283" y="346"/>
      <point x="270" y="357"/>
      <point x="270" y="384" type="curve" smooth="yes"/>
      <point x="270" y="444"/>
      <point x="270" y="504"/>
      <point x="270" y="564" type="curve" smooth="yes"/>
      <point x="270" y="595"/>
      <point x="282" y="610"/>
      <point x="318" y="610" type="curve" smooth="yes"/>
      <point x="377" y="610"/>
      <point x="410" y="571"/>
      <point x="410" y="473" type="curve" smooth="yes"/>
      <point x="410" y="397"/>
      <point x="376" y="346"/>
      <point x="305" y="346" type="curve" smooth="yes"/>
    </contour>
  </outline>
</glyph>
<glyph name="T" format="1">
  <advance width="701"/>
  <unicode hex="0054"/>
  <note>
	T
  </note>
  <outline>
    <contour>
      <point x="248" y="-3"/>
      <point x="319" y="2"/>
      <point x="359" y="2" type="curve" smooth="yes"/>
      <point x="398" y="2"/>
      <point x="477" y="-2"/>
      <point x="519" y="-2" type="curve" smooth="yes"/>
      <point x="529" y="-2"/>
      <point x="538" y="3"/>
      <point x="538" y="13" type="curve" smooth="yes"/>
      <point x="538" y="26"/>
      <point x="528" y="30"/>
      <point x="516" y="34" type="curve"/>
      <point x="464" y="49"/>
      <point x="446" y="61"/>
      <point x="446" y="98" type="curve" smooth="yes"/>
      <point x="446" y="546" type="line" smooth="yes"/>
      <point x="446" y="575"/>
      <point x="470" y="592"/>
      <point x="503" y="592" type="curve" smooth="yes"/>
      <point x="534" y="592" type="line" smooth="yes"/>
      <point x="591" y="592"/>
      <point x="617" y="569"/>
      <point x="634" y="516" type="curve" smooth="yes"/>
      <point x="643" y="488"/>
      <point x="651" y="477"/>
      <point x="664" y="477" type="curve" smooth="yes"/>
      <point x="677" y="477"/>
      <point x="681" y="490"/>
      <point x="681" y="514" type="curve" smooth="yes"/>
      <point x="681" y="535" type="line" smooth="yes"/>
      <point x="681" y="570"/>
      <point x="690" y="618"/>
      <point x="703" y="667" type="curve" smooth="yes"/>
      <point x="705" y="675"/>
      <point x="706" y="683"/>
      <point x="706" y="689" type="curve" smooth="yes"/>
      <point x="706" y="701"/>
      <point x="702" y="709"/>
      <point x="691" y="709" type="curve" smooth="yes"/>
      <point x="671" y="709"/>
      <point x="658" y="684"/>
      <point x="632" y="668" type="curve" smooth="yes"/>
      <point x="620" y="661"/>
      <point x="592" y="651"/>
      <point x="556" y="651" type="curve"/>
      <point x="220" y="650" type="line"/>
      <point x="182" y="650"/>
      <point x="146" y="653"/>
      <point x="131" y="669" type="curve" smooth="yes"/>
      <point x="118" y="683"/>
      <point x="110" y="708"/>
      <point x="97" y="708" type="curve" smooth="yes"/>
      <point x="81" y="708"/>
      <point x="69" y="699"/>
      <point x="67" y="678" type="curve" smooth="yes"/>
      <point x="62" y="621"/>
      <point x="50" y="579"/>
      <point x="25" y="526" type="curve" smooth="yes"/>
      <point x="21" y="518"/>
      <point x="18" y="507"/>
      <point x="18" y="499" type="curve" smooth="yes"/>
      <point x="18" y="490"/>
      <point x="22" y="481"/>
      <point x="34" y="481" type="curve" smooth="yes"/>
      <point x="55" y="481"/>
      <point x="81" y="519"/>
      <point x="92" y="534" type="curve" smooth="yes"/>
      <point x="115" y="567"/>
      <point x="159" y="592"/>
      <point x="203" y="592" type="curve" smooth="yes"/>
      <point x="220" y="592" type="line"/>
      <point x="227" y="592"/>
      <point x="251" y="591"/>
      <point x="261" y="585" type="curve" smooth="yes"/>
      <point x="270" y="580"/>
      <point x="276" y="575"/>
      <point x="276" y="546" type="curve" smooth="yes"/>
      <point x="276" y="97" type="line" smooth="yes"/>
      <point x="276" y="56"/>
      <point x="256" y="45"/>
      <point x="205" y="34" type="curve" smooth="yes"/>
      <point x="193" y="31"/>
      <point x="183" y="24"/>
      <point x="183" y="12" type="curve" smooth="yes"/>
      <point x="183" y="3"/>
      <point x="196" y="-3"/>
      <point x="204" y="-3" type="curve" smooth="yes"/>
    </contour>
    <contour>
      <point x="360" y="675" type="move" name="top.cap"/>
    </contour>
    <contour>
      <point x="364" y="-30" type="move" name="bottom.cap"/>
    </contour>
  </outline>
</glyph>
<glyph name="U" format="1">
  <advance width="746"/>
  <unicode hex="0055"/>
  <note>
	U
  </note>
  <outline>
    <contour>
      <point x="523" y="-14"/>
      <point x="646" y="100"/>
      <point x="646" y="265" type="curve" smooth="yes"/>
      <point x="646" y="352"/>
      <point x="647" y="433"/>
      <point x="651" y="530" type="curve" smooth="yes"/>
      <point x="653" y="580"/>
      <point x="665" y="604"/>
      <point x="712" y="618" type="curve" smooth="yes"/>
      <point x="729" y="623"/>
      <point x="738" y="630"/>
      <point x="738" y="640" type="curve" smooth="yes"/>
      <point x="738" y="652"/>
      <point x="727" y="655"/>
      <point x="713" y="655" type="curve" smooth="yes"/>
      <point x="671" y="655"/>
      <point x="657" y="651"/>
      <point x="619" y="651" type="curve" smooth="yes"/>
      <point x="582" y="651"/>
      <point x="565" y="654"/>
      <point x="513" y="654" type="curve" smooth="yes"/>
      <point x="494" y="654"/>
      <point x="483" y="649"/>
      <point x="483" y="639" type="curve" smooth="yes"/>
      <point x="483" y="625"/>
      <point x="509" y="622"/>
      <point x="524" y="614" type="curve" smooth="yes"/>
      <point x="564" y="593"/>
      <point x="574" y="573"/>
      <point x="577" y="476" type="curve" smooth="yes"/>
      <point x="579" y="418"/>
      <point x="577" y="350"/>
      <point x="577" y="296" type="curve" smooth="yes"/>
      <point x="577" y="151"/>
      <point x="527" y="81"/>
      <point x="410" y="81" type="curve" smooth="yes"/>
      <point x="328" y="81"/>
      <point x="258" y="140"/>
      <point x="258" y="272" type="curve" smooth="yes"/>
      <point x="258" y="530" type="line" smooth="yes"/>
      <point x="258" y="575"/>
      <point x="274" y="598"/>
      <point x="295" y="608" type="curve" smooth="yes"/>
      <point x="316" y="618"/>
      <point x="344" y="623"/>
      <point x="344" y="639" type="curve" smooth="yes"/>
      <point x="344" y="649"/>
      <point x="334" y="654"/>
      <point x="318" y="654" type="curve" smooth="yes"/>
      <point x="276" y="654"/>
      <point x="210" y="650"/>
      <point x="171" y="650" type="curve" smooth="yes"/>
      <point x="131" y="650"/>
      <point x="78" y="655"/>
      <point x="34" y="655" type="curve" smooth="yes"/>
      <point x="19" y="655"/>
      <point x="8" y="649"/>
      <point x="8" y="640" type="curve" smooth="yes"/>
      <point x="8" y="630"/>
      <point x="16" y="623"/>
      <point x="35" y="618" type="curve" smooth="yes"/>
      <point x="71" y="608"/>
      <point x="87" y="570"/>
      <point x="87" y="536" type="curve" smooth="yes"/>
      <point x="87" y="256" type="line" smooth="yes"/>
      <point x="87" y="94"/>
      <point x="183" y="-14"/>
      <point x="373" y="-14" type="curve" smooth="yes"/>
    </contour>
    <contour>
      <point x="410" y="675" type="move" name="top.cap"/>
    </contour>
    <contour>
      <point x="387" y="-30" type="move" name="bottom.cap"/>
    </contour>
  </outline>
</glyph>
<glyph name="V" format="1">
  <advance width="714"/>
  <unicode hex="0056"/>
  <note>
	V
  </note>
  <outline>
    <contour>
      <point x="370" y="-18"/>
      <point x="375" y="-13"/>
      <point x="381" y="0" type="curve"/>
      <point x="402" y="45"/>
      <point x="423" y="89"/>
      <point x="461" y="177" type="curve" smooth="yes"/>
      <point x="620" y="554" type="line"/>
      <point x="632" y="584"/>
      <point x="652" y="609"/>
      <point x="692" y="620" type="curve"/>
      <point x="704" y="624"/>
      <point x="718" y="627"/>
      <point x="718" y="640" type="curve" smooth="yes"/>
      <point x="718" y="653"/>
      <point x="703" y="657"/>
      <point x="688" y="657" type="curve" smooth="yes"/>
      <point x="646" y="657"/>
      <point x="618" y="651"/>
      <point x="579" y="651" type="curve" smooth="yes"/>
      <point x="539" y="651"/>
      <point x="507" y="654"/>
      <point x="463" y="654" type="curve" smooth="yes"/>
      <point x="449" y="654"/>
      <point x="434" y="649"/>
      <point x="434" y="640" type="curve" smooth="yes"/>
      <point x="434" y="628"/>
      <point x="451" y="620"/>
      <point x="464" y="618" type="curve" smooth="yes"/>
      <point x="483" y="615"/>
      <point x="527" y="592"/>
      <point x="527" y="572" type="curve" smooth="yes"/>
      <point x="527" y="567"/>
      <point x="523" y="552"/>
      <point x="521" y="546" type="curve" smooth="yes"/>
      <point x="406" y="229" type="line" smooth="yes"/>
      <point x="404" y="223"/>
      <point x="403" y="221"/>
      <point x="400" y="221" type="curve" smooth="yes"/>
      <point x="397" y="221"/>
      <point x="398" y="223"/>
      <point x="396" y="228" type="curve" smooth="yes"/>
      <point x="285" y="555" type="line"/>
      <point x="283" y="563"/>
      <point x="281" y="572"/>
      <point x="281" y="578" type="curve" smooth="yes"/>
      <point x="281" y="601"/>
      <point x="297" y="609"/>
      <point x="337" y="618" type="curve" smooth="yes"/>
      <point x="349" y="621"/>
      <point x="365" y="628"/>
      <point x="365" y="640" type="curve" smooth="yes"/>
      <point x="365" y="649"/>
      <point x="349" y="655"/>
      <point x="338" y="655" type="curve" smooth="yes"/>
      <point x="294" y="655"/>
      <point x="211" y="650"/>
      <point x="171" y="650" type="curve" smooth="yes"/>
      <point x="132" y="650"/>
      <point x="61" y="654"/>
      <point x="19" y="654" type="curve" smooth="yes"/>
      <point x="9" y="654"/>
      <point x="0" y="649"/>
      <point x="0" y="639" type="curve" smooth="yes"/>
      <point x="0" y="626"/>
      <point x="10" y="622"/>
      <point x="22" y="618" type="curve"/>
      <point x="62" y="607"/>
      <point x="77" y="585"/>
      <point x="90" y="554" type="curve"/>
      <point x="304" y="63" type="line"/>
      <point x="313" y="42"/>
      <point x="323" y="21"/>
      <point x="332" y="0" type="curve"/>
      <point x="338" y="-13"/>
      <point x="345" y="-18"/>
      <point x="355" y="-18" type="curve" smooth="yes"/>
    </contour>
    <contour>
      <point x="403" y="675" type="move" name="top.cap"/>
    </contour>
    <contour>
      <point x="352" y="-30" type="move" name="bottom.cap"/>
    </contour>
  </outline>
</glyph>
<glyph name="W" format="1">
  <advance width="1043"/>
  <unicode hex="0057"/>
  <note>
	W
  </note>
  <outline>
    <contour>
      <point x="394" y="-17"/>
      <point x="403" y="-8"/>
      <point x="409" y="5" type="curve"/>
      <point x="449" y="78"/>
      <point x="489" y="150"/>
      <point x="529" y="223" type="curve" smooth="yes"/>
      <point x="533" y="231"/>
      <point x="540" y="232"/>
      <point x="544" y="223" type="curve" smooth="yes"/>
      <point x="600" y="98"/>
      <point x="636" y="39"/>
      <point x="653" y="4" type="curve" smooth="yes"/>
      <point x="659" y="-9"/>
      <point x="666" y="-15"/>
      <point x="678" y="-15" type="curve" smooth="yes"/>
      <point x="689" y="-15"/>
      <point x="693" y="-10"/>
      <point x="699" y="3" type="curve" smooth="yes"/>
      <point x="944" y="554" type="line" smooth="yes"/>
      <point x="958" y="585"/>
      <point x="976" y="609"/>
      <point x="1016" y="620" type="curve" smooth="yes"/>
      <point x="1028" y="624"/>
      <point x="1047" y="627"/>
      <point x="1047" y="640" type="curve" smooth="yes"/>
      <point x="1047" y="653"/>
      <point x="1030" y="657"/>
      <point x="1012" y="657" type="curve" smooth="yes"/>
      <point x="972" y="657"/>
      <point x="956" y="651"/>
      <point x="936" y="651" type="curve" smooth="yes"/>
      <point x="915" y="650"/>
      <point x="901" y="654"/>
      <point x="859" y="654" type="curve" smooth="yes"/>
      <point x="845" y="654"/>
      <point x="830" y="649"/>
      <point x="830" y="640" type="curve" smooth="yes"/>
      <point x="830" y="628"/>
      <point x="847" y="621"/>
      <point x="860" y="618" type="curve" smooth="yes"/>
      <point x="877" y="613"/>
      <point x="886" y="604"/>
      <point x="888" y="591" type="curve" smooth="yes"/>
      <point x="889" y="584"/>
      <point x="887" y="577"/>
      <point x="884" y="568" type="curve"/>
      <point x="831" y="450"/>
      <point x="782" y="332"/>
      <point x="729" y="214" type="curve"/>
      <point x="726" y="207"/>
      <point x="721" y="200"/>
      <point x="716" y="213" type="curve"/>
      <point x="655" y="355" type="line"/>
      <point x="647" y="375"/>
      <point x="644" y="391"/>
      <point x="652" y="408" type="curve" smooth="yes"/>
      <point x="673" y="452"/>
      <point x="705" y="508"/>
      <point x="726" y="552" type="curve" smooth="yes"/>
      <point x="740" y="582"/>
      <point x="753" y="607"/>
      <point x="793" y="618" type="curve"/>
      <point x="805" y="622"/>
      <point x="819" y="625"/>
      <point x="819" y="638" type="curve" smooth="yes"/>
      <point x="819" y="651"/>
      <point x="804" y="655"/>
      <point x="789" y="655" type="curve" smooth="yes"/>
      <point x="748" y="655"/>
      <point x="733" y="651"/>
      <point x="713" y="650" type="curve" smooth="yes"/>
      <point x="694" y="650"/>
      <point x="683" y="653"/>
      <point x="646" y="653" type="curve" smooth="yes"/>
      <point x="625" y="653"/>
      <point x="620" y="647"/>
      <point x="620" y="638" type="curve" smooth="yes"/>
      <point x="620" y="615"/>
      <point x="671" y="619"/>
      <point x="671" y="587" type="curve" smooth="yes"/>
      <point x="671" y="581"/>
      <point x="669" y="572"/>
      <point x="666" y="566" type="curve"/>
      <point x="656" y="543"/>
      <point x="631" y="499"/>
      <point x="621" y="476" type="curve" smooth="yes"/>
      <point x="616" y="465"/>
      <point x="611" y="456"/>
      <point x="603" y="476" type="curve" smooth="yes"/>
      <point x="593" y="502"/>
      <point x="576" y="550"/>
      <point x="566" y="576" type="curve" smooth="yes"/>
      <point x="559" y="594"/>
      <point x="561" y="612"/>
      <point x="589" y="618" type="curve" smooth="yes"/>
      <point x="613" y="623"/>
      <point x="624" y="628"/>
      <point x="624" y="640" type="curve" smooth="yes"/>
      <point x="624" y="649"/>
      <point x="611" y="654"/>
      <point x="590" y="654" type="curve" smooth="yes"/>
      <point x="546" y="654"/>
      <point x="501" y="650"/>
      <point x="461" y="650" type="curve" smooth="yes"/>
      <point x="422" y="650"/>
      <point x="351" y="654"/>
      <point x="309" y="654" type="curve" smooth="yes"/>
      <point x="299" y="654"/>
      <point x="290" y="649"/>
      <point x="290" y="639" type="curve" smooth="yes"/>
      <point x="290" y="626"/>
      <point x="300" y="622"/>
      <point x="312" y="618" type="curve"/>
      <point x="352" y="607"/>
      <point x="376" y="585"/>
      <point x="388" y="554" type="curve"/>
      <point x="495" y="325" type="line"/>
      <point x="498" y="318"/>
      <point x="500" y="313"/>
      <point x="500" y="308" type="curve" smooth="yes"/>
      <point x="500" y="302"/>
      <point x="497" y="297"/>
      <point x="493" y="290" type="curve"/>
      <point x="443" y="205" type="line"/>
      <point x="435" y="189"/>
      <point x="432" y="191"/>
      <point x="426" y="206" type="curve" smooth="yes"/>
      <point x="376" y="327"/>
      <point x="328" y="442"/>
      <point x="277" y="562" type="curve" smooth="yes"/>
      <point x="275" y="567"/>
      <point x="272" y="582"/>
      <point x="272" y="588" type="curve" smooth="yes"/>
      <point x="272" y="603"/>
      <point x="272" y="613"/>
      <point x="295" y="618" type="curve" smooth="yes"/>
      <point x="315" y="622"/>
      <point x="327" y="626"/>
      <point x="327" y="640" type="curve" smooth="yes"/>
      <point x="327" y="649"/>
      <point x="313" y="655"/>
      <point x="296" y="655" type="curve" smooth="yes"/>
      <point x="252" y="655"/>
      <point x="208" y="650"/>
      <point x="168" y="650" type="curve" smooth="yes"/>
      <point x="129" y="650"/>
      <point x="67" y="654"/>
      <point x="25" y="654" type="curve" smooth="yes"/>
      <point x="15" y="654"/>
      <point x="0" y="649"/>
      <point x="0" y="639" type="curve" smooth="yes"/>
      <point x="0" y="626"/>
      <point x="16" y="622"/>
      <point x="28" y="618" type="curve"/>
      <point x="68" y="607"/>
      <point x="81" y="584"/>
      <point x="95" y="554" type="curve" smooth="yes"/>
      <point x="355" y="8" type="line" smooth="yes"/>
      <point x="361" y="-5"/>
      <point x="369" y="-17"/>
      <point x="382" y="-17" type="curve" smooth="yes"/>
    </contour>
    <contour>
      <point x="598" y="675" type="move" name="top.cap"/>
    </contour>
    <contour>
      <point x="533" y="-30" type="move" name="bottom.cap"/>
    </contour>
  </outline>
</glyph>
<glyph name="X" format="1">
  <advance width="760"/>
  <unicode hex="0058"/>
  <note>
	X
  </note>
  <outline>
    <contour>
      <point x="67" y="-7"/>
      <point x="95" y="-1"/>
      <point x="134" y="-1" type="curve" smooth="yes"/>
      <point x="174" y="-1"/>
      <point x="206" y="-4"/>
      <point x="250" y="-4" type="curve" smooth="yes"/>
      <point x="264" y="-4"/>
      <point x="279" y="1"/>
      <point x="279" y="10" type="curve" smooth="yes"/>
      <point x="279" y="22"/>
      <point x="262" y="30"/>
      <point x="249" y="32" type="curve" smooth="yes"/>
      <point x="221" y="37"/>
      <point x="204" y="49"/>
      <point x="203" y="67" type="curve" smooth="yes"/>
      <point x="202" y="76"/>
      <point x="206" y="86"/>
      <point x="213" y="97" type="curve" smooth="yes"/>
      <point x="305" y="238" type="line"/>
      <point x="325" y="266"/>
      <point x="336" y="261"/>
      <point x="354" y="235" type="curve" smooth="yes"/>
      <point x="453" y="94" type="line"/>
      <point x="458" y="86"/>
      <point x="461" y="79"/>
      <point x="461" y="73" type="curve" smooth="yes"/>
      <point x="461" y="50"/>
      <point x="428" y="41"/>
      <point x="401" y="35" type="curve" smooth="yes"/>
      <point x="389" y="32"/>
      <point x="373" y="25"/>
      <point x="373" y="13" type="curve" smooth="yes"/>
      <point x="373" y="4"/>
      <point x="389" y="-2"/>
      <point x="400" y="-2" type="curve" smooth="yes"/>
      <point x="442" y="-2"/>
      <point x="482" y="1"/>
      <point x="522" y="1" type="curve" smooth="yes"/>
      <point x="589" y="2"/>
      <point x="645" y="-5"/>
      <point x="730" y="-5" type="curve" smooth="yes"/>
      <point x="744" y="-5"/>
      <point x="755" y="0"/>
      <point x="755" y="10" type="curve" smooth="yes"/>
      <point x="755" y="23"/>
      <point x="731" y="33"/>
      <point x="719" y="36" type="curve" smooth="yes"/>
      <point x="696" y="42"/>
      <point x="673" y="65"/>
      <point x="654" y="92" type="curve" smooth="yes"/>
      <point x="488" y="326" type="line" smooth="yes"/>
      <point x="474" y="346"/>
      <point x="473" y="363"/>
      <point x="487" y="381" type="curve" smooth="yes"/>
      <point x="634" y="562" type="line" smooth="yes"/>
      <point x="655" y="587"/>
      <point x="679" y="611"/>
      <point x="707" y="620" type="curve" smooth="yes"/>
      <point x="719" y="624"/>
      <point x="736" y="627"/>
      <point x="736" y="640" type="curve" smooth="yes"/>
      <point x="736" y="653"/>
      <point x="718" y="657"/>
      <point x="703" y="657" type="curve" smooth="yes"/>
      <point x="661" y="657"/>
      <point x="633" y="650"/>
      <point x="594" y="650" type="curve" smooth="yes"/>
      <point x="554" y="650"/>
      <point x="524" y="654"/>
      <point x="480" y="654" type="curve" smooth="yes"/>
      <point x="466" y="654"/>
      <point x="451" y="649"/>
      <point x="451" y="640" type="curve" smooth="yes"/>
      <point x="451" y="628"/>
      <point x="468" y="620"/>
      <point x="481" y="618" type="curve" smooth="yes"/>
      <point x="525" y="612"/>
      <point x="544" y="598"/>
      <point x="544" y="584" type="curve" smooth="yes"/>
      <point x="544" y="575"/>
      <point x="541" y="566"/>
      <point x="534" y="558" type="curve"/>
      <point x="444" y="431" type="line"/>
      <point x="430" y="414"/>
      <point x="418" y="416"/>
      <point x="406" y="433" type="curve" smooth="yes"/>
      <point x="321" y="548" type="line" smooth="yes"/>
      <point x="314" y="557"/>
      <point x="308" y="571"/>
      <point x="308" y="577" type="curve" smooth="yes"/>
      <point x="308" y="600"/>
      <point x="327" y="609"/>
      <point x="369" y="618" type="curve" smooth="yes"/>
      <point x="381" y="621"/>
      <point x="397" y="628"/>
      <point x="397" y="640" type="curve" smooth="yes"/>
      <point x="397" y="649"/>
      <point x="381" y="655"/>
      <point x="370" y="655" type="curve" smooth="yes"/>
      <point x="321" y="655"/>
      <point x="280" y="648"/>
      <point x="236" y="648" type="curve" smooth="yes"/>
      <point x="170" y="647"/>
      <point x="104" y="654"/>
      <point x="37" y="654" type="curve" smooth="yes"/>
      <point x="27" y="654"/>
      <point x="18" y="649"/>
      <point x="18" y="639" type="curve" smooth="yes"/>
      <point x="18" y="626"/>
      <point x="28" y="622"/>
      <point x="40" y="618" type="curve"/>
      <point x="80" y="607"/>
      <point x="96" y="581"/>
      <point x="116" y="554" type="curve" smooth="yes"/>
      <point x="255" y="360" type="line" smooth="yes"/>
      <point x="273" y="335"/>
      <point x="274" y="311"/>
      <point x="256" y="289" type="curve"/>
      <point x="123" y="96" type="line"/>
      <point x="96" y="63"/>
      <point x="60" y="42"/>
      <point x="21" y="30" type="curve" smooth="yes"/>
      <point x="9" y="26"/>
      <point x="-5" y="23"/>
      <point x="-5" y="10" type="curve" smooth="yes"/>
      <point x="-5" y="-3"/>
      <point x="10" y="-7"/>
      <point x="25" y="-7" type="curve" smooth="yes"/>
    </contour>
  </outline>
</glyph>
<glyph name="Z" format="1">
  <advance width="595"/>
  <unicode hex="005A"/>
  <note>
	Z
  </note>
  <outline>
    <contour>
      <point x="533" y="-4"/>
      <point x="543" y="2"/>
      <point x="547" y="16" type="curve" smooth="yes"/>
      <point x="560" y="64"/>
      <point x="580" y="124"/>
      <point x="580" y="160" type="curve" smooth="yes"/>
      <point x="580" y="169"/>
      <point x="573" y="175"/>
      <point x="565" y="175" type="curve" smooth="yes"/>
      <point x="557" y="175"/>
      <point x="551" y="173"/>
      <point x="546" y="163" type="curve"/>
      <point x="520" y="100"/>
      <point x="488" y="64"/>
      <point x="428" y="59" type="curve" smooth="yes"/>
      <point x="397" y="57"/>
      <point x="379" y="57"/>
      <point x="349" y="57" type="curve" smooth="yes"/>
      <point x="333" y="57"/>
      <point x="297" y="58"/>
      <point x="282" y="59" type="curve" smooth="yes"/>
      <point x="265" y="60"/>
      <point x="257" y="63"/>
      <point x="257" y="71" type="curve" smooth="yes"/>
      <point x="257" y="78"/>
      <point x="260" y="86"/>
      <point x="269" y="100" type="curve"/>
      <point x="339" y="226"/>
      <point x="433" y="384"/>
      <point x="514" y="516" type="curve" smooth="yes"/>
      <point x="584" y="630" type="line" smooth="yes"/>
      <point x="587" y="635"/>
      <point x="576" y="655"/>
      <point x="566" y="655" type="curve" smooth="yes"/>
      <point x="522" y="655"/>
      <point x="380" y="650"/>
      <point x="340" y="650" type="curve" smooth="yes"/>
      <point x="301" y="650"/>
      <point x="263" y="650"/>
      <point x="224" y="650" type="curve" smooth="yes"/>
      <point x="186" y="650"/>
      <point x="164" y="648"/>
      <point x="138" y="658" type="curve" smooth="yes"/>
      <point x="118" y="666"/>
      <point x="95" y="688"/>
      <point x="82" y="688" type="curve" smooth="yes"/>
      <point x="66" y="688"/>
      <point x="61" y="680"/>
      <point x="59" y="659" type="curve" smooth="yes"/>
      <point x="54" y="602"/>
      <point x="54" y="579"/>
      <point x="29" y="526" type="curve" smooth="yes"/>
      <point x="25" y="518"/>
      <point x="22" y="507"/>
      <point x="22" y="499" type="curve" smooth="yes"/>
      <point x="22" y="490"/>
      <point x="26" y="481"/>
      <point x="38" y="481" type="curve" smooth="yes"/>
      <point x="59" y="481"/>
      <point x="72" y="500"/>
      <point x="82" y="516" type="curve" smooth="yes"/>
      <point x="111" y="564"/>
      <point x="163" y="592"/>
      <point x="207" y="592" type="curve" smooth="yes"/>
      <point x="230" y="592"/>
      <point x="252" y="592"/>
      <point x="275" y="592" type="curve"/>
      <point x="296" y="592"/>
      <point x="317" y="592"/>
      <point x="338" y="592" type="curve" smooth="yes"/>
      <point x="350" y="592"/>
      <point x="353" y="587"/>
      <point x="353" y="581" type="curve" smooth="yes"/>
      <point x="353" y="575"/>
      <point x="350" y="569"/>
      <point x="347" y="563" type="curve"/>
      <point x="259" y="416"/>
      <point x="165" y="272"/>
      <point x="79" y="122" type="curve" smooth="yes"/>
      <point x="61" y="91"/>
      <point x="41" y="59"/>
      <point x="21" y="27" type="curve" smooth="yes"/>
      <point x="17" y="21"/>
      <point x="22" y="-5"/>
      <point x="36" y="-5" type="curve"/>
      <point x="113" y="-3" type="line"/>
      <point x="163" y="-2"/>
      <point x="214" y="-1"/>
      <point x="264" y="0" type="curve"/>
      <point x="377" y="-1"/>
      <point x="508" y="-4"/>
      <point x="518" y="-4" type="curve" smooth="yes"/>
    </contour>
  </outline>
</glyph>
<glyph name="backslash" format="1">
  <advance width="407"/>
  <unicode hex="005C"/>
  <note>
	backslash
  </note>
  <outline>
    <contour>
      <point x="384" y="-62"/>
      <point x="397" y="-50"/>
      <point x="391" y="-37" type="curve" smooth="yes"/>
      <point x="101" y="638" type="line" smooth="yes"/>
      <point x="90" y="662"/>
      <point x="69" y="665"/>
      <point x="42" y="665" type="curve" smooth="yes"/>
      <point x="20" y="665"/>
      <point x="11" y="650"/>
      <point x="16" y="638" type="curve" smooth="yes"/>
      <point x="306" y="-37" type="line" smooth="yes"/>
      <point x="316" y="-60"/>
      <point x="341" y="-62"/>
      <point x="365" y="-62" type="curve" smooth="yes"/>
    </contour>
  </outline>
</glyph>
<glyph name="a" format="1">
  <advance width="457"/>
  <unicode hex="0061"/>
  <note>
	a
  </note>
  <outline>
    <contour>
      <point x="195" y="-14"/>
      <point x="230" y="23"/>
      <point x="256" y="46" type="curve"/>
      <point x="258" y="46" type="line"/>
      <point x="276" y="13"/>
      <point x="307" y="-14"/>
      <point x="355" y="-14" type="curve" smooth="yes"/>
      <point x="393" y="-14"/>
      <point x="422" y="4"/>
      <point x="442" y="24" type="curve" smooth="yes"/>
      <point x="449" y="31"/>
      <point x="462" y="45"/>
      <point x="462" y="56" type="curve" smooth="yes"/>
      <point x="462" y="62"/>
      <point x="456" y="68"/>
      <point x="450" y="68" type="curve" smooth="yes"/>
      <point x="448" y="68"/>
      <point x="446" y="67"/>
      <point x="444" y="65" type="curve" smooth="yes"/>
      <point x="435" y="57"/>
      <point x="426" y="52"/>
      <point x="412" y="52" type="curve" smooth="yes"/>
      <point x="394" y="52"/>
      <point x="382" y="79"/>
      <point x="383" y="108" type="curve" smooth="yes"/>
      <point x="388" y="302" type="line" smooth="yes"/>
      <point x="390" y="383"/>
      <point x="334" y="437"/>
      <point x="256" y="437" type="curve" smooth="yes"/>
      <point x="197" y="437"/>
      <point x="118" y="392"/>
      <point x="80" y="362" type="curve" smooth="yes"/>
      <point x="48" y="337"/>
      <point x="32" y="315"/>
      <point x="32" y="292" type="curve" smooth="yes"/>
      <point x="32" y="279"/>
      <point x="40" y="269"/>
      <point x="51" y="269" type="curve" smooth="yes"/>
      <point x="78" y="269"/>
      <point x="145" y="294"/>
      <point x="145" y="310" type="curve" smooth="yes"/>
      <point x="145" y="318"/>
      <point x="143" y="330"/>
      <point x="143" y="338" type="curve" smooth="yes"/>
      <point x="143" y="345"/>
      <point x="144" y="352"/>
      <point x="149" y="357" type="curve" smooth="yes"/>
      <point x="158" y="366"/>
      <point x="180" y="376"/>
      <point x="197" y="376" type="curve" smooth="yes"/>
      <point x="229" y="376"/>
      <point x="243" y="354"/>
      <point x="242" y="316" type="curve" smooth="yes"/>
      <point x="241" y="263" type="line" smooth="yes"/>
      <point x="241" y="237"/>
      <point x="238" y="231"/>
      <point x="211" y="220" type="curve" smooth="yes"/>
      <point x="105" y="173" type="line" smooth="yes"/>
      <point x="53" y="151"/>
      <point x="27" y="121"/>
      <point x="27" y="76" type="curve" smooth="yes"/>
      <point x="27" y="26"/>
      <point x="72" y="-14"/>
      <point x="124" y="-14" type="curve" smooth="yes"/>
    </contour>
    <contour>
      <point x="179" y="50"/>
      <point x="160" y="62"/>
      <point x="160" y="102" type="curve" smooth="yes"/>
      <point x="160" y="149"/>
      <point x="184" y="162"/>
      <point x="223" y="180" type="curve" smooth="yes"/>
      <point x="227" y="182"/>
      <point x="230" y="183"/>
      <point x="233" y="183" type="curve" smooth="yes"/>
      <point x="238" y="183"/>
      <point x="239" y="178"/>
      <point x="239" y="166" type="curve"/>
      <point x="236" y="93" type="line"/>
      <point x="236" y="83"/>
      <point x="233" y="75"/>
      <point x="230" y="70" type="curve"/>
      <point x="220" y="60"/>
      <point x="212" y="50"/>
      <point x="198" y="50" type="curve" smooth="yes"/>
    </contour>
  </outline>
</glyph>
<glyph name="b" format="1">
  <advance width="547"/>
  <unicode hex="0062"/>
  <note>
	b
  </note>
  <outline>
    <contour>
      <point x="448" y="-14"/>
      <point x="527" y="105"/>
      <point x="527" y="227" type="curve" smooth="yes"/>
      <point x="527" y="343"/>
      <point x="448" y="437"/>
      <point x="340" y="437" type="curve" smooth="yes"/>
      <point x="300" y="437"/>
      <point x="256" y="422"/>
      <point x="215" y="399" type="curve"/>
      <point x="212" y="399"/>
      <point x="208" y="407"/>
      <point x="208" y="421" type="curve" smooth="yes"/>
      <point x="209" y="638" type="line" smooth="yes"/>
      <point x="209" y="657"/>
      <point x="214" y="682"/>
      <point x="214" y="692" type="curve" smooth="yes"/>
      <point x="214" y="698"/>
      <point x="211" y="705"/>
      <point x="202" y="705" type="curve" smooth="yes"/>
      <point x="195" y="705"/>
      <point x="85" y="660"/>
      <point x="25" y="649" type="curve" smooth="yes"/>
      <point x="21" y="648"/>
      <point x="16" y="640"/>
      <point x="16" y="634" type="curve" smooth="yes"/>
      <point x="16" y="628"/>
      <point x="21" y="619"/>
      <point x="26" y="618" type="curve" smooth="yes"/>
      <point x="60" y="611"/>
      <point x="65" y="582"/>
      <point x="65" y="546" type="curve" smooth="yes"/>
      <point x="70" y="110" type="line" smooth="yes"/>
      <point x="71" y="52"/>
      <point x="59" y="16"/>
      <point x="59" y="4" type="curve" smooth="yes"/>
      <point x="59" y="-3"/>
      <point x="65" y="-9"/>
      <point x="78" y="-9" type="curve" smooth="yes"/>
      <point x="83" y="-9"/>
      <point x="88" y="-6"/>
      <point x="94" y="-2" type="curve" smooth="yes"/>
      <point x="105" y="6"/>
      <point x="119" y="11"/>
      <point x="132" y="11" type="curve" smooth="yes"/>
      <point x="160" y="11"/>
      <point x="209" y="-14"/>
      <point x="279" y="-14" type="curve" smooth="yes"/>
    </contour>
    <contour>
      <point x="250" y="17"/>
      <point x="208" y="63"/>
      <point x="208" y="136" type="curve" smooth="yes"/>
      <point x="208" y="268" type="line" smooth="yes"/>
      <point x="208" y="312"/>
      <point x="212" y="329"/>
      <point x="221" y="343" type="curve" smooth="yes"/>
      <point x="237" y="366"/>
      <point x="269" y="377"/>
      <point x="287" y="377" type="curve" smooth="yes"/>
      <point x="347" y="377"/>
      <point x="373" y="273"/>
      <point x="373" y="200" type="curve" smooth="yes"/>
      <point x="373" y="96"/>
      <point x="344" y="17"/>
      <point x="295" y="17" type="curve" smooth="yes"/>
    </contour>
  </outline>
</glyph>
<glyph name="c" format="1">
  <advance width="402"/>
  <unicode hex="0063"/>
  <note>
	c
  </note>
  <outline>
    <contour>
      <point x="308" y="-14"/>
      <point x="369" y="61"/>
      <point x="391" y="134" type="curve" smooth="yes"/>
      <point x="394" y="143"/>
      <point x="397" y="154"/>
      <point x="397" y="161" type="curve" smooth="yes"/>
      <point x="397" y="170"/>
      <point x="392" y="174"/>
      <point x="386" y="174" type="curve" smooth="yes"/>
      <point x="381" y="174"/>
      <point x="376" y="171"/>
      <point x="372" y="167" type="curve"/>
      <point x="346" y="138"/>
      <point x="311" y="116"/>
      <point x="266" y="116" type="curve" smooth="yes"/>
      <point x="197" y="116"/>
      <point x="142" y="159"/>
      <point x="142" y="253" type="curve" smooth="yes"/>
      <point x="142" y="331"/>
      <point x="164" y="380"/>
      <point x="222" y="380" type="curve" smooth="yes"/>
      <point x="254" y="380"/>
      <point x="273" y="370"/>
      <point x="307" y="323" type="curve" smooth="yes"/>
      <point x="316" y="311"/>
      <point x="327" y="306"/>
      <point x="340" y="306" type="curve" smooth="yes"/>
      <point x="367" y="305"/>
      <point x="396" y="328"/>
      <point x="396" y="360" type="curve" smooth="yes"/>
      <point x="396" y="365"/>
      <point x="393" y="372"/>
      <point x="388" y="378" type="curve"/>
      <point x="348" y="420"/>
      <point x="293" y="437"/>
      <point x="247" y="437" type="curve" smooth="yes"/>
      <point x="115" y="437"/>
      <point x="21" y="328"/>
      <point x="21" y="205" type="curve" smooth="yes"/>
      <point x="21" y="68"/>
      <point x="114" y="-14"/>
      <point x="211" y="-14" type="curve" smooth="yes"/>
    </contour>
  </outline>
</glyph>
<glyph name="d" format="1">
  <advance width="562"/>
  <unicode hex="0064"/>
  <note>
	d
  </note>
  <outline>
    <contour>
      <point x="354" y="-19"/>
      <point x="371" y="-15"/>
      <point x="375" y="-13" type="curve"/>
      <point x="411" y="0"/>
      <point x="473" y="17"/>
      <point x="537" y="24" type="curve"/>
      <point x="543" y="24"/>
      <point x="552" y="31"/>
      <point x="552" y="44" type="curve" smooth="yes"/>
      <point x="552" y="56"/>
      <point x="544" y="64"/>
      <point x="536" y="62" type="curve"/>
      <point x="525" y="60"/>
      <point x="510" y="59"/>
      <point x="500" y="59" type="curve" smooth="yes"/>
      <point x="483" y="59"/>
      <point x="477" y="77"/>
      <point x="477" y="122" type="curve" smooth="yes"/>
      <point x="483" y="638" type="line"/>
      <point x="484" y="657"/>
      <point x="488" y="682"/>
      <point x="488" y="692" type="curve" smooth="yes"/>
      <point x="488" y="698"/>
      <point x="485" y="705"/>
      <point x="476" y="705" type="curve" smooth="yes"/>
      <point x="467" y="705"/>
      <point x="371" y="666"/>
      <point x="299" y="649" type="curve" smooth="yes"/>
      <point x="295" y="648"/>
      <point x="290" y="640"/>
      <point x="290" y="634" type="curve" smooth="yes"/>
      <point x="290" y="628"/>
      <point x="295" y="619"/>
      <point x="300" y="618" type="curve" smooth="yes"/>
      <point x="334" y="611"/>
      <point x="339" y="582"/>
      <point x="339" y="546" type="curve" smooth="yes"/>
      <point x="339" y="425" type="line" smooth="yes"/>
      <point x="339" y="417"/>
      <point x="338" y="413"/>
      <point x="335" y="413" type="curve" smooth="yes"/>
      <point x="333" y="413"/>
      <point x="328" y="417"/>
      <point x="325" y="419" type="curve" smooth="yes"/>
      <point x="315" y="426"/>
      <point x="286" y="433"/>
      <point x="263" y="433" type="curve" smooth="yes"/>
      <point x="113" y="433"/>
      <point x="20" y="329"/>
      <point x="20" y="196" type="curve" smooth="yes"/>
      <point x="20" y="95"/>
      <point x="88" y="-14"/>
      <point x="215" y="-14" type="curve" smooth="yes"/>
      <point x="282" y="-14"/>
      <point x="327" y="26"/>
      <point x="348" y="57" type="curve"/>
      <point x="348" y="51" type="line"/>
      <point x="347" y="31"/>
      <point x="342" y="-2"/>
      <point x="342" y="-15" type="curve" smooth="yes"/>
      <point x="342" y="-18"/>
      <point x="341" y="-19"/>
      <point x="346" y="-19" type="curve" smooth="yes"/>
    </contour>
    <contour>
      <point x="241" y="55"/>
      <point x="174" y="79"/>
      <point x="174" y="224" type="curve" smooth="yes"/>
      <point x="174" y="341"/>
      <point x="221" y="384"/>
      <point x="257" y="384" type="curve" smooth="yes"/>
      <point x="303" y="384"/>
      <point x="339" y="342"/>
      <point x="339" y="299" type="curve" smooth="yes"/>
      <point x="339" y="135" type="line" smooth="yes"/>
      <point x="339" y="88"/>
      <point x="307" y="55"/>
      <point x="270" y="55" type="curve" smooth="yes"/>
    </contour>
  </outline>
</glyph>
<glyph name="e" format="1">
  <advance width="423"/>
  <unicode hex="0065"/>
  <note>
	e
  </note>
  <outline>
    <contour>
      <point x="308" y="-14"/>
      <point x="369" y="62"/>
      <point x="391" y="135" type="curve" smooth="yes"/>
      <point x="394" y="144"/>
      <point x="397" y="155"/>
      <point x="397" y="162" type="curve" smooth="yes"/>
      <point x="397" y="171"/>
      <point x="392" y="175"/>
      <point x="386" y="175" type="curve" smooth="yes"/>
      <point x="381" y="175"/>
      <point x="376" y="172"/>
      <point x="372" y="168" type="curve"/>
      <point x="346" y="139"/>
      <point x="313" y="121"/>
      <point x="268" y="121" type="curve" smooth="yes"/>
      <point x="199" y="121"/>
      <point x="144" y="158"/>
      <point x="144" y="221" type="curve" smooth="yes"/>
      <point x="144" y="249"/>
      <point x="154" y="256"/>
      <point x="171" y="256" type="curve" smooth="yes"/>
      <point x="362" y="256" type="line" smooth="yes"/>
      <point x="390" y="256"/>
      <point x="400" y="272"/>
      <point x="400" y="304" type="curve" smooth="yes"/>
      <point x="400" y="381"/>
      <point x="342" y="437"/>
      <point x="239" y="437" type="curve" smooth="yes"/>
      <point x="116" y="437"/>
      <point x="21" y="327"/>
      <point x="21" y="205" type="curve" smooth="yes"/>
      <point x="21" y="68"/>
      <point x="114" y="-14"/>
      <point x="211" y="-14" type="curve" smooth="yes"/>
    </contour>
    <contour>
      <point x="170" y="300"/>
      <point x="163" y="307"/>
      <point x="163" y="317" type="curve" smooth="yes"/>
      <point x="163" y="361"/>
      <point x="194" y="394"/>
      <point x="232" y="394" type="curve" smooth="yes"/>
      <point x="276" y="394"/>
      <point x="291" y="364"/>
      <point x="291" y="335" type="curve" smooth="yes"/>
      <point x="291" y="319"/>
      <point x="285" y="307"/>
      <point x="280" y="305" type="curve" smooth="yes"/>
      <point x="265" y="299"/>
      <point x="249" y="300"/>
      <point x="224" y="300" type="curve" smooth="yes"/>
      <point x="180" y="300" type="line" smooth="yes"/>
    </contour>
  </outline>
</glyph>
<glyph name="f" format="1">
  <advance width="359"/>
  <unicode hex="0066"/>
  <note>
	f
  </note>
  <outline>
    <contour>
      <point x="80" y="-3"/>
      <point x="120" y="2"/>
      <point x="155" y="2" type="curve" smooth="yes"/>
      <point x="190" y="2"/>
      <point x="242" y="-3"/>
      <point x="282" y="-3" type="curve" smooth="yes"/>
      <point x="290" y="-3"/>
      <point x="298" y="4"/>
      <point x="298" y="12" type="curve" smooth="yes"/>
      <point x="298" y="22"/>
      <point x="290" y="30"/>
      <point x="279" y="33" type="curve" smooth="yes"/>
      <point x="247" y="40"/>
      <point x="225" y="48"/>
      <point x="225" y="75" type="curve" smooth="yes"/>
      <point x="225" y="341" type="line" smooth="yes"/>
      <point x="225" y="351"/>
      <point x="229" y="366"/>
      <point x="265" y="366" type="curve" smooth="yes"/>
      <point x="336" y="366" type="line" smooth="yes"/>
      <point x="343" y="366"/>
      <point x="349" y="393"/>
      <point x="349" y="412" type="curve" smooth="yes"/>
      <point x="349" y="418"/>
      <point x="348" y="423"/>
      <point x="345" y="423" type="curve" smooth="yes"/>
      <point x="250" y="423" type="line" smooth="yes"/>
      <point x="237" y="423"/>
      <point x="225" y="427"/>
      <point x="225" y="445" type="curve" smooth="yes"/>
      <point x="225" y="496" type="line" smooth="yes"/>
      <point x="225" y="599"/>
      <point x="260" y="650"/>
      <point x="310" y="650" type="curve" smooth="yes"/>
      <point x="357" y="650"/>
      <point x="382" y="623"/>
      <point x="401" y="601" type="curve" smooth="yes"/>
      <point x="414" y="584"/>
      <point x="424" y="570"/>
      <point x="436" y="570" type="curve" smooth="yes"/>
      <point x="462" y="570"/>
      <point x="479" y="593"/>
      <point x="479" y="624" type="curve" smooth="yes"/>
      <point x="479" y="676"/>
      <point x="437" y="706"/>
      <point x="345" y="706" type="curve" smooth="yes"/>
      <point x="240" y="706"/>
      <point x="94" y="635"/>
      <point x="80" y="423" type="curve"/>
      <point x="61" y="412"/>
      <point x="35" y="397"/>
      <point x="21" y="392" type="curve" smooth="yes"/>
      <point x="19" y="391"/>
      <point x="14" y="389"/>
      <point x="14" y="386" type="curve" smooth="yes"/>
      <point x="14" y="379"/>
      <point x="24" y="369"/>
      <point x="28" y="368" type="curve"/>
      <point x="49" y="366"/>
      <point x="67" y="366"/>
      <point x="80" y="366" type="curve"/>
      <point x="80" y="71" type="line" smooth="yes"/>
      <point x="80" y="44"/>
      <point x="63" y="39"/>
      <point x="43" y="33" type="curve" smooth="yes"/>
      <point x="32" y="29"/>
      <point x="20" y="23"/>
      <point x="20" y="12" type="curve" smooth="yes"/>
      <point x="20" y="3"/>
      <point x="32" y="-3"/>
      <point x="40" y="-3" type="curve" smooth="yes"/>
    </contour>
  </outline>
</glyph>
<glyph name="g" format="1">
  <advance width="514"/>
  <unicode hex="0067"/>
  <note>
	g
  </note>
  <outline>
    <contour>
      <point x="347" y="-289"/>
      <point x="492" y="-173"/>
      <point x="492" y="-57" type="curve" smooth="yes"/>
      <point x="492" y="26"/>
      <point x="379" y="40"/>
      <point x="281" y="48" type="curve" smooth="yes"/>
      <point x="206" y="54"/>
      <point x="136" y="61"/>
      <point x="136" y="84" type="curve" smooth="yes"/>
      <point x="136" y="103"/>
      <point x="166" y="113"/>
      <point x="174" y="119" type="curve"/>
      <point x="127" y="140" type="line"/>
      <point x="100" y="108"/>
      <point x="70" y="86"/>
      <point x="60" y="77" type="curve" smooth="yes"/>
      <point x="45" y="62"/>
      <point x="35" y="57"/>
      <point x="35" y="36" type="curve" smooth="yes"/>
      <point x="35" y="-54"/>
      <point x="140" y="-69"/>
      <point x="232" y="-79" type="curve" smooth="yes"/>
      <point x="304" y="-87"/>
      <point x="358" y="-91"/>
      <point x="358" y="-130" type="curve" smooth="yes"/>
      <point x="358" y="-180"/>
      <point x="309" y="-236"/>
      <point x="223" y="-236" type="curve" smooth="yes"/>
      <point x="145" y="-236"/>
      <point x="103" y="-192"/>
      <point x="103" y="-133" type="curve" smooth="yes"/>
      <point x="103" y="-109"/>
      <point x="117" y="-85"/>
      <point x="152" y="-62" type="curve"/>
      <point x="109" y="-53" type="line"/>
      <point x="91" y="-65"/>
      <point x="73" y="-76"/>
      <point x="55" y="-88" type="curve" smooth="yes"/>
      <point x="27" y="-107"/>
      <point x="8" y="-130"/>
      <point x="8" y="-176" type="curve" smooth="yes"/>
      <point x="8" y="-263"/>
      <point x="126" y="-289"/>
      <point x="227" y="-289" type="curve" smooth="yes"/>
    </contour>
    <contour>
      <point x="193" y="140"/>
      <point x="165" y="200"/>
      <point x="165" y="273" type="curve" smooth="yes"/>
      <point x="165" y="328"/>
      <point x="185" y="393"/>
      <point x="231" y="393" type="curve" smooth="yes"/>
      <point x="277" y="393"/>
      <point x="299" y="336"/>
      <point x="299" y="268" type="curve" smooth="yes"/>
      <point x="299" y="195"/>
      <point x="277" y="140"/>
      <point x="234" y="140" type="curve" smooth="yes"/>
    </contour>
    <contour>
      <point x="332" y="94"/>
      <point x="425" y="182"/>
      <point x="425" y="288" type="curve" smooth="yes"/>
      <point x="425" y="303"/>
      <point x="425" y="324"/>
      <point x="430" y="335" type="curve"/>
      <point x="439" y="343"/>
      <point x="482" y="343"/>
      <point x="497" y="343" type="curve" smooth="yes"/>
      <point x="505" y="343"/>
      <point x="509" y="360"/>
      <point x="509" y="378" type="curve" smooth="yes"/>
      <point x="509" y="396"/>
      <point x="505" y="414"/>
      <point x="497" y="414" type="curve" smooth="yes"/>
      <point x="484" y="414"/>
      <point x="469" y="411"/>
      <point x="448" y="411" type="curve" smooth="yes"/>
      <point x="416" y="411"/>
      <point x="390" y="414"/>
      <point x="366" y="418" type="curve" smooth="yes"/>
      <point x="318" y="425"/>
      <point x="282" y="437"/>
      <point x="241" y="437" type="curve" smooth="yes"/>
      <point x="132" y="437"/>
      <point x="33" y="365"/>
      <point x="33" y="263" type="curve" smooth="yes"/>
      <point x="33" y="164"/>
      <point x="134" y="94"/>
      <point x="222" y="94" type="curve" smooth="yes"/>
    </contour>
  </outline>
</glyph>
<glyph name="h" format="1">
  <advance width="569"/>
  <unicode hex="0068"/>
  <note>
	h
  </note>
  <outline>
    <contour>
      <point x="76" y="-3"/>
      <point x="110" y="2"/>
      <point x="145" y="2" type="curve" smooth="yes"/>
      <point x="180" y="2"/>
      <point x="216" y="-3"/>
      <point x="256" y="-3" type="curve" smooth="yes"/>
      <point x="267" y="-3"/>
      <point x="273" y="4"/>
      <point x="273" y="13" type="curve" smooth="yes"/>
      <point x="273" y="23"/>
      <point x="263" y="30"/>
      <point x="253" y="34" type="curve" smooth="yes"/>
      <point x="236" y="40"/>
      <point x="221" y="46"/>
      <point x="221" y="73" type="curve" smooth="yes"/>
      <point x="221" y="267" type="line" smooth="yes"/>
      <point x="221" y="301"/>
      <point x="225" y="312"/>
      <point x="239" y="327" type="curve" smooth="yes"/>
      <point x="251" y="339"/>
      <point x="276" y="346"/>
      <point x="293" y="346" type="curve" smooth="yes"/>
      <point x="320" y="346"/>
      <point x="353" y="312"/>
      <point x="353" y="270" type="curve" smooth="yes"/>
      <point x="353" y="75" type="line" smooth="yes"/>
      <point x="353" y="46"/>
      <point x="336" y="38"/>
      <point x="319" y="33" type="curve" smooth="yes"/>
      <point x="309" y="30"/>
      <point x="299" y="24"/>
      <point x="299" y="13" type="curve" smooth="yes"/>
      <point x="299" y="2"/>
      <point x="308" y="-3"/>
      <point x="324" y="-3" type="curve" smooth="yes"/>
      <point x="374" y="-3"/>
      <point x="378" y="2"/>
      <point x="424" y="2" type="curve" smooth="yes"/>
      <point x="467" y="2"/>
      <point x="482" y="-3"/>
      <point x="532" y="-3" type="curve" smooth="yes"/>
      <point x="547" y="-3"/>
      <point x="554" y="4"/>
      <point x="554" y="12" type="curve" smooth="yes"/>
      <point x="554" y="23"/>
      <point x="546" y="28"/>
      <point x="533" y="33" type="curve" smooth="yes"/>
      <point x="514" y="40"/>
      <point x="498" y="45"/>
      <point x="498" y="73" type="curve" smooth="yes"/>
      <point x="498" y="293" type="line" smooth="yes"/>
      <point x="498" y="373"/>
      <point x="449" y="437"/>
      <point x="379" y="437" type="curve" smooth="yes"/>
      <point x="310" y="437"/>
      <point x="253" y="393"/>
      <point x="222" y="368" type="curve"/>
      <point x="221" y="369"/>
      <point x="220" y="374"/>
      <point x="220" y="380" type="curve" smooth="yes"/>
      <point x="220" y="638" type="line"/>
      <point x="221" y="657"/>
      <point x="225" y="682"/>
      <point x="225" y="692" type="curve" smooth="yes"/>
      <point x="225" y="698"/>
      <point x="223" y="705"/>
      <point x="214" y="705" type="curve" smooth="yes"/>
      <point x="210" y="705"/>
      <point x="206" y="704"/>
      <point x="200" y="702" type="curve" smooth="yes"/>
      <point x="169" y="691"/>
      <point x="87" y="659"/>
      <point x="37" y="649" type="curve" smooth="yes"/>
      <point x="31" y="648"/>
      <point x="27" y="643"/>
      <point x="27" y="634" type="curve" smooth="yes"/>
      <point x="27" y="624"/>
      <point x="31" y="619"/>
      <point x="38" y="618" type="curve" smooth="yes"/>
      <point x="71" y="611"/>
      <point x="76" y="582"/>
      <point x="76" y="546" type="curve" smooth="yes"/>
      <point x="76" y="71" type="line" smooth="yes"/>
      <point x="76" y="42"/>
      <point x="59" y="40"/>
      <point x="39" y="33" type="curve" smooth="yes"/>
      <point x="24" y="28"/>
      <point x="16" y="22"/>
      <point x="16" y="12" type="curve" smooth="yes"/>
      <point x="16" y="3"/>
      <point x="23" y="-3"/>
      <point x="36" y="-3" type="curve" smooth="yes"/>
    </contour>
  </outline>
</glyph>
<glyph name="i" format="1">
  <advance width="306"/>
  <unicode hex="0069"/>
  <note>
	i
  </note>
  <outline>
    <contour>
      <point x="75" y="-3"/>
      <point x="121" y="2"/>
      <point x="156" y="2" type="curve" smooth="yes"/>
      <point x="191" y="2"/>
      <point x="243" y="-2"/>
      <point x="281" y="-2" type="curve" smooth="yes"/>
      <point x="290" y="-2"/>
      <point x="296" y="3"/>
      <point x="296" y="12" type="curve" smooth="yes"/>
      <point x="296" y="23"/>
      <point x="289" y="27"/>
      <point x="278" y="31" type="curve" smooth="yes"/>
      <point x="240" y="43"/>
      <point x="230" y="52"/>
      <point x="230" y="69" type="curve" smooth="yes"/>
      <point x="230" y="288" type="line" smooth="yes"/>
      <point x="230" y="337"/>
      <point x="240" y="399"/>
      <point x="243" y="437" type="curve" smooth="yes"/>
      <point x="243" y="445"/>
      <point x="238" y="451"/>
      <point x="229" y="451" type="curve" smooth="yes"/>
      <point x="226" y="451"/>
      <point x="218" y="448"/>
      <point x="207" y="443" type="curve" smooth="yes"/>
      <point x="176" y="429"/>
      <point x="114" y="399"/>
      <point x="42" y="385" type="curve" smooth="yes"/>
      <point x="35" y="384"/>
      <point x="30" y="376"/>
      <point x="30" y="367" type="curve" smooth="yes"/>
      <point x="30" y="358"/>
      <point x="34" y="349"/>
      <point x="42" y="348" type="curve" smooth="yes"/>
      <point x="71" y="344"/>
      <point x="85" y="332"/>
      <point x="85" y="284" type="curve" smooth="yes"/>
      <point x="85" y="68" type="line" smooth="yes"/>
      <point x="85" y="47"/>
      <point x="73" y="40"/>
      <point x="37" y="31" type="curve" smooth="yes"/>
      <point x="26" y="28"/>
      <point x="20" y="21"/>
      <point x="20" y="11" type="curve" smooth="yes"/>
      <point x="20" y="3"/>
      <point x="28" y="-3"/>
      <point x="36" y="-3" type="curve" smooth="yes"/>
    </contour>
    <contour>
      <point x="203" y="497"/>
      <point x="241" y="535"/>
      <point x="241" y="581" type="curve" smooth="yes"/>
      <point x="241" y="630"/>
      <point x="203" y="668"/>
      <point x="154" y="668" type="curve" smooth="yes"/>
      <point x="108" y="668"/>
      <point x="70" y="630"/>
      <point x="70" y="581" type="curve" smooth="yes"/>
      <point x="70" y="535"/>
      <point x="108" y="497"/>
      <point x="154" y="497" type="curve" smooth="yes"/>
    </contour>
  </outline>
</glyph>
<glyph name="l" format="1">
  <advance width="289"/>
  <unicode hex="006C"/>
  <note>
	l
  </note>
  <outline>
    <contour>
      <point x="76" y="-3"/>
      <point x="110" y="2"/>
      <point x="145" y="2" type="curve" smooth="yes"/>
      <point x="180" y="2"/>
      <point x="216" y="-3"/>
      <point x="256" y="-3" type="curve" smooth="yes"/>
      <point x="267" y="-3"/>
      <point x="273" y="4"/>
      <point x="273" y="13" type="curve" smooth="yes"/>
      <point x="273" y="23"/>
      <point x="263" y="30"/>
      <point x="253" y="34" type="curve" smooth="yes"/>
      <point x="236" y="40"/>
      <point x="221" y="46"/>
      <point x="221" y="73" type="curve"/>
      <point x="220" y="638" type="line"/>
      <point x="221" y="657"/>
      <point x="225" y="682"/>
      <point x="225" y="692" type="curve" smooth="yes"/>
      <point x="225" y="698"/>
      <point x="223" y="705"/>
      <point x="214" y="705" type="curve" smooth="yes"/>
      <point x="210" y="705"/>
      <point x="206" y="704"/>
      <point x="200" y="702" type="curve" smooth="yes"/>
      <point x="169" y="691"/>
      <point x="87" y="659"/>
      <point x="37" y="649" type="curve" smooth="yes"/>
      <point x="31" y="648"/>
      <point x="27" y="643"/>
      <point x="27" y="634" type="curve" smooth="yes"/>
      <point x="27" y="624"/>
      <point x="31" y="619"/>
      <point x="38" y="618" type="curve" smooth="yes"/>
      <point x="71" y="611"/>
      <point x="76" y="582"/>
      <point x="76" y="546" type="curve" smooth="yes"/>
      <point x="76" y="71" type="line" smooth="yes"/>
      <point x="76" y="42"/>
      <point x="59" y="40"/>
      <point x="39" y="33" type="curve" smooth="yes"/>
      <point x="24" y="28"/>
      <point x="16" y="22"/>
      <point x="16" y="12" type="curve" smooth="yes"/>
      <point x="16" y="3"/>
      <point x="23" y="-3"/>
      <point x="36" y="-3" type="curve" smooth="yes"/>
    </contour>
  </outline>
</glyph>
<glyph name="m" format="1">
  <advance width="813"/>
  <unicode hex="006D"/>
  <note>
	m
  </note>
  <outline>
    <contour>
      <point x="80" y="-3"/>
      <point x="116" y="2"/>
      <point x="151" y="2" type="curve" smooth="yes"/>
      <point x="186" y="2"/>
      <point x="212" y="-3"/>
      <point x="252" y="-3" type="curve" smooth="yes"/>
      <point x="260" y="-3"/>
      <point x="268" y="4"/>
      <point x="268" y="12" type="curve" smooth="yes"/>
      <point x="268" y="22"/>
      <point x="260" y="29"/>
      <point x="249" y="33" type="curve"/>
      <point x="229" y="39"/>
      <point x="225" y="47"/>
      <point x="225" y="70" type="curve" smooth="yes"/>
      <point x="225" y="264" type="line" smooth="yes"/>
      <point x="225" y="292"/>
      <point x="229" y="315"/>
      <point x="243" y="329" type="curve" smooth="yes"/>
      <point x="257" y="342"/>
      <point x="274" y="346"/>
      <point x="288" y="346" type="curve" smooth="yes"/>
      <point x="318" y="345"/>
      <point x="338" y="316"/>
      <point x="338" y="267" type="curve" smooth="yes"/>
      <point x="338" y="63" type="line" smooth="yes"/>
      <point x="338" y="44"/>
      <point x="331" y="38"/>
      <point x="314" y="33" type="curve"/>
      <point x="303" y="29"/>
      <point x="295" y="23"/>
      <point x="295" y="12" type="curve" smooth="yes"/>
      <point x="295" y="3"/>
      <point x="303" y="-3"/>
      <point x="311" y="-3" type="curve" smooth="yes"/>
      <point x="351" y="-3"/>
      <point x="376" y="2"/>
      <point x="411" y="2" type="curve" smooth="yes"/>
      <point x="446" y="2"/>
      <point x="473" y="-3"/>
      <point x="513" y="-3" type="curve" smooth="yes"/>
      <point x="521" y="-3"/>
      <point x="530" y="3"/>
      <point x="530" y="12" type="curve" smooth="yes"/>
      <point x="530" y="23"/>
      <point x="521" y="29"/>
      <point x="510" y="33" type="curve"/>
      <point x="490" y="39"/>
      <point x="483" y="43"/>
      <point x="483" y="70" type="curve" smooth="yes"/>
      <point x="483" y="264" type="line"/>
      <point x="483" y="292"/>
      <point x="487" y="315"/>
      <point x="501" y="329" type="curve" smooth="yes"/>
      <point x="515" y="342"/>
      <point x="532" y="346"/>
      <point x="546" y="346" type="curve" smooth="yes"/>
      <point x="576" y="345"/>
      <point x="596" y="316"/>
      <point x="596" y="267" type="curve" smooth="yes"/>
      <point x="596" y="63" type="line" smooth="yes"/>
      <point x="596" y="44"/>
      <point x="589" y="38"/>
      <point x="572" y="33" type="curve"/>
      <point x="561" y="29"/>
      <point x="553" y="23"/>
      <point x="553" y="12" type="curve" smooth="yes"/>
      <point x="553" y="3"/>
      <point x="561" y="-3"/>
      <point x="569" y="-3" type="curve" smooth="yes"/>
      <point x="609" y="-3"/>
      <point x="634" y="2"/>
      <point x="669" y="2" type="curve" smooth="yes"/>
      <point x="704" y="2"/>
      <point x="741" y="-3"/>
      <point x="781" y="-3" type="curve" smooth="yes"/>
      <point x="789" y="-3"/>
      <point x="798" y="3"/>
      <point x="798" y="12" type="curve" smooth="yes"/>
      <point x="798" y="23"/>
      <point x="789" y="29"/>
      <point x="778" y="33" type="curve"/>
      <point x="758" y="39"/>
      <point x="741" y="43"/>
      <point x="741" y="70" type="curve" smooth="yes"/>
      <point x="741" y="292" type="line" smooth="yes"/>
      <point x="741" y="373"/>
      <point x="696" y="437"/>
      <point x="637" y="437" type="curve" smooth="yes"/>
      <point x="575" y="437"/>
      <point x="522" y="407"/>
      <point x="478" y="360" type="curve"/>
      <point x="473" y="360" type="line"/>
      <point x="455" y="404"/>
      <point x="419" y="437"/>
      <point x="379" y="437" type="curve" smooth="yes"/>
      <point x="321" y="437"/>
      <point x="274" y="415"/>
      <point x="232" y="368" type="curve"/>
      <point x="230" y="368" type="line"/>
      <point x="229" y="369"/>
      <point x="228" y="374"/>
      <point x="228" y="380" type="curve" smooth="yes"/>
      <point x="228" y="399"/>
      <point x="233" y="428"/>
      <point x="233" y="439" type="curve" smooth="yes"/>
      <point x="233" y="446"/>
      <point x="230" y="451"/>
      <point x="223" y="451" type="curve" smooth="yes"/>
      <point x="219" y="451"/>
      <point x="215" y="448"/>
      <point x="210" y="445" type="curve" smooth="yes"/>
      <point x="172" y="424"/>
      <point x="98" y="404"/>
      <point x="50" y="392" type="curve" smooth="yes"/>
      <point x="42" y="390"/>
      <point x="39" y="385"/>
      <point x="39" y="374" type="curve" smooth="yes"/>
      <point x="39" y="360"/>
      <point x="45" y="356"/>
      <point x="51" y="355" type="curve" smooth="yes"/>
      <point x="73" y="351"/>
      <point x="80" y="329"/>
      <point x="80" y="303" type="curve" smooth="yes"/>
      <point x="80" y="71" type="line" smooth="yes"/>
      <point x="80" y="44"/>
      <point x="63" y="39"/>
      <point x="43" y="33" type="curve"/>
      <point x="32" y="29"/>
      <point x="20" y="23"/>
      <point x="20" y="12" type="curve" smooth="yes"/>
      <point x="20" y="3"/>
      <point x="32" y="-3"/>
      <point x="40" y="-3" type="curve" smooth="yes"/>
    </contour>
  </outline>
</glyph>
<glyph name="n" format="1">
  <advance width="574"/>
  <unicode hex="006E"/>
  <note>
	n
  </note>
  <outline>
    <contour>
      <point x="80" y="-3"/>
      <point x="120" y="2"/>
      <point x="155" y="2" type="curve" smooth="yes"/>
      <point x="190" y="2"/>
      <point x="222" y="-3"/>
      <point x="262" y="-3" type="curve" smooth="yes"/>
      <point x="270" y="-3"/>
      <point x="278" y="4"/>
      <point x="278" y="12" type="curve" smooth="yes"/>
      <point x="278" y="22"/>
      <point x="270" y="29"/>
      <point x="259" y="33" type="curve" smooth="yes"/>
      <point x="240" y="40"/>
      <point x="225" y="43"/>
      <point x="225" y="70" type="curve" smooth="yes"/>
      <point x="225" y="267" type="line" smooth="yes"/>
      <point x="225" y="299"/>
      <point x="229" y="318"/>
      <point x="240" y="327" type="curve" smooth="yes"/>
      <point x="258" y="341"/>
      <point x="279" y="346"/>
      <point x="299" y="346" type="curve" smooth="yes"/>
      <point x="334" y="345"/>
      <point x="357" y="316"/>
      <point x="357" y="267" type="curve" smooth="yes"/>
      <point x="357" y="70" type="line" smooth="yes"/>
      <point x="357" y="43"/>
      <point x="343" y="39"/>
      <point x="323" y="33" type="curve" smooth="yes"/>
      <point x="312" y="29"/>
      <point x="304" y="23"/>
      <point x="304" y="12" type="curve" smooth="yes"/>
      <point x="304" y="3"/>
      <point x="312" y="-3"/>
      <point x="320" y="-3" type="curve" smooth="yes"/>
      <point x="360" y="-3"/>
      <point x="395" y="2"/>
      <point x="430" y="2" type="curve" smooth="yes"/>
      <point x="465" y="2"/>
      <point x="502" y="-3"/>
      <point x="542" y="-3" type="curve" smooth="yes"/>
      <point x="550" y="-3"/>
      <point x="559" y="3"/>
      <point x="559" y="12" type="curve" smooth="yes"/>
      <point x="559" y="23"/>
      <point x="550" y="29"/>
      <point x="539" y="33" type="curve" smooth="yes"/>
      <point x="519" y="39"/>
      <point x="502" y="43"/>
      <point x="502" y="70" type="curve" smooth="yes"/>
      <point x="502" y="292" type="line" smooth="yes"/>
      <point x="502" y="373"/>
      <point x="454" y="437"/>
      <point x="390" y="437" type="curve" smooth="yes"/>
      <point x="328" y="437"/>
      <point x="277" y="409"/>
      <point x="230" y="367" type="curve"/>
      <point x="229" y="368"/>
      <point x="228" y="376"/>
      <point x="228" y="382" type="curve" smooth="yes"/>
      <point x="228" y="401"/>
      <point x="233" y="427"/>
      <point x="233" y="438" type="curve" smooth="yes"/>
      <point x="233" y="444"/>
      <point x="232" y="451"/>
      <point x="223" y="451" type="curve" smooth="yes"/>
      <point x="218" y="451"/>
      <point x="209" y="445"/>
      <point x="203" y="442" type="curve" smooth="yes"/>
      <point x="163" y="422"/>
      <point x="94" y="402"/>
      <point x="49" y="392" type="curve"/>
      <point x="42" y="390"/>
      <point x="39" y="383"/>
      <point x="39" y="374" type="curve" smooth="yes"/>
      <point x="39" y="362"/>
      <point x="45" y="356"/>
      <point x="50" y="355" type="curve" smooth="yes"/>
      <point x="72" y="351"/>
      <point x="80" y="329"/>
      <point x="80" y="303" type="curve" smooth="yes"/>
      <point x="80" y="71" type="line" smooth="yes"/>
      <point x="80" y="44"/>
      <point x="63" y="39"/>
      <point x="43" y="33" type="curve" smooth="yes"/>
      <point x="32" y="29"/>
      <point x="20" y="23"/>
      <point x="20" y="12" type="curve" smooth="yes"/>
      <point x="20" y="3"/>
      <point x="32" y="-3"/>
      <point x="40" y="-3" type="curve" smooth="yes"/>
    </contour>
  </outline>
</glyph>
<glyph name="s" format="1">
  <advance width="368"/>
  <unicode hex="0073"/>
  <note>
	s
  </note>
  <outline>
    <contour>
      <point x="280" y="-14"/>
      <point x="338" y="37"/>
      <point x="338" y="127" type="curve" smooth="yes"/>
      <point x="338" y="199"/>
      <point x="306" y="233"/>
      <point x="218" y="279" type="curve" smooth="yes"/>
      <point x="182" y="298"/>
      <point x="153" y="317"/>
      <point x="153" y="344" type="curve" smooth="yes"/>
      <point x="153" y="370"/>
      <point x="176" y="391"/>
      <point x="206" y="391" type="curve" smooth="yes"/>
      <point x="248" y="391"/>
      <point x="273" y="363"/>
      <point x="291" y="314" type="curve" smooth="yes"/>
      <point x="294" y="307"/>
      <point x="303" y="303"/>
      <point x="311" y="303" type="curve" smooth="yes"/>
      <point x="319" y="303"/>
      <point x="328" y="307"/>
      <point x="328" y="312" type="curve" smooth="yes"/>
      <point x="328" y="360"/>
      <point x="322" y="401"/>
      <point x="311" y="415" type="curve"/>
      <point x="296" y="424"/>
      <point x="254" y="437"/>
      <point x="209" y="437" type="curve" smooth="yes"/>
      <point x="118" y="437"/>
      <point x="45" y="385"/>
      <point x="45" y="304" type="curve" smooth="yes"/>
      <point x="45" y="224"/>
      <point x="105" y="184"/>
      <point x="161" y="157" type="curve" smooth="yes"/>
      <point x="194" y="141"/>
      <point x="226" y="119"/>
      <point x="226" y="85" type="curve" smooth="yes"/>
      <point x="226" y="59"/>
      <point x="209" y="34"/>
      <point x="175" y="34" type="curve" smooth="yes"/>
      <point x="117" y="34"/>
      <point x="80" y="87"/>
      <point x="61" y="141" type="curve"/>
      <point x="58" y="147"/>
      <point x="51" y="150"/>
      <point x="42" y="150" type="curve" smooth="yes"/>
      <point x="34" y="150"/>
      <point x="25" y="147"/>
      <point x="25" y="141" type="curve"/>
      <point x="23" y="95"/>
      <point x="29" y="40"/>
      <point x="42" y="19" type="curve"/>
      <point x="78" y="-5"/>
      <point x="121" y="-14"/>
      <point x="166" y="-14" type="curve" smooth="yes"/>
    </contour>
  </outline>
</glyph>
<glyph name="t" format="1">
  <advance width="388"/>
  <unicode hex="0074"/>
  <note>
	t
  </note>
  <outline>
    <contour>
      <point x="306" y="-14"/>
      <point x="380" y="41"/>
      <point x="380" y="53" type="curve" smooth="yes"/>
      <point x="380" y="62"/>
      <point x="374" y="74"/>
      <point x="362" y="73" type="curve"/>
      <point x="351" y="69"/>
      <point x="334" y="57"/>
      <point x="297" y="57" type="curve" smooth="yes"/>
      <point x="267" y="57"/>
      <point x="233" y="77"/>
      <point x="233" y="149" type="curve" smooth="yes"/>
      <point x="233" y="341" type="line" smooth="yes"/>
      <point x="233" y="351"/>
      <point x="237" y="366"/>
      <point x="273" y="366" type="curve" smooth="yes"/>
      <point x="365" y="366" type="line" smooth="yes"/>
      <point x="372" y="366"/>
      <point x="378" y="383"/>
      <point x="378" y="404" type="curve" smooth="yes"/>
      <point x="378" y="411"/>
      <point x="373" y="423"/>
      <point x="370" y="423" type="curve" smooth="yes"/>
      <point x="250" y="423" type="line" smooth="yes"/>
      <point x="237" y="423"/>
      <point x="225" y="427"/>
      <point x="225" y="445" type="curve"/>
      <point x="235" y="519" type="line"/>
      <point x="236" y="530"/>
      <point x="218" y="531"/>
      <point x="210" y="531" type="curve" smooth="yes"/>
      <point x="196" y="531"/>
      <point x="108" y="423"/>
      <point x="31" y="403" type="curve"/>
      <point x="29" y="401"/>
      <point x="25" y="397"/>
      <point x="25" y="394" type="curve" smooth="yes"/>
      <point x="25" y="385"/>
      <point x="36" y="369"/>
      <point x="42" y="369" type="curve" smooth="yes"/>
      <point x="75" y="369"/>
      <point x="88" y="365"/>
      <point x="88" y="351" type="curve" smooth="yes"/>
      <point x="88" y="116" type="line" smooth="yes"/>
      <point x="88" y="25"/>
      <point x="144" y="-14"/>
      <point x="226" y="-14" type="curve" smooth="yes"/>
    </contour>
  </outline>
</glyph>
<glyph name="u" format="1">
  <advance width="556"/>
  <unicode hex="0075"/>
  <note>
	u
  </note>
  <outline>
    <contour>
      <point x="350" y="-21"/>
      <point x="359" y="-18"/>
      <point x="369" y="-14" type="curve" smooth="yes"/>
      <point x="407" y="1"/>
      <point x="463" y="21"/>
      <point x="530" y="27" type="curve" smooth="yes"/>
      <point x="545" y="28"/>
      <point x="548" y="37"/>
      <point x="548" y="50" type="curve" smooth="yes"/>
      <point x="548" y="61"/>
      <point x="541" y="69"/>
      <point x="528" y="69" type="curve" smooth="yes"/>
      <point x="524" y="69"/>
      <point x="509" y="70"/>
      <point x="504" y="70" type="curve" smooth="yes"/>
      <point x="495" y="70"/>
      <point x="486" y="76"/>
      <point x="486" y="106" type="curve" smooth="yes"/>
      <point x="486" y="338" type="line" smooth="yes"/>
      <point x="486" y="356"/>
      <point x="491" y="400"/>
      <point x="493" y="408" type="curve" smooth="yes"/>
      <point x="495" y="415"/>
      <point x="497" y="420"/>
      <point x="497" y="425" type="curve" smooth="yes"/>
      <point x="497" y="433"/>
      <point x="491" y="437"/>
      <point x="482" y="437" type="curve" smooth="yes"/>
      <point x="478" y="437"/>
      <point x="472" y="435"/>
      <point x="468" y="434" type="curve" smooth="yes"/>
      <point x="430" y="425"/>
      <point x="399" y="422"/>
      <point x="290" y="415" type="curve" smooth="yes"/>
      <point x="277" y="415"/>
      <point x="265" y="409"/>
      <point x="265" y="394" type="curve" smooth="yes"/>
      <point x="265" y="378"/>
      <point x="274" y="372"/>
      <point x="290" y="371" type="curve" smooth="yes"/>
      <point x="324" y="369"/>
      <point x="341" y="347"/>
      <point x="341" y="314" type="curve" smooth="yes"/>
      <point x="341" y="158" type="line" smooth="yes"/>
      <point x="341" y="124"/>
      <point x="333" y="105"/>
      <point x="327" y="98" type="curve"/>
      <point x="310" y="81"/>
      <point x="289" y="76"/>
      <point x="271" y="76" type="curve" smooth="yes"/>
      <point x="238" y="77"/>
      <point x="215" y="106"/>
      <point x="215" y="155" type="curve" smooth="yes"/>
      <point x="215" y="346" type="line" smooth="yes"/>
      <point x="215" y="376"/>
      <point x="217" y="392"/>
      <point x="223" y="423" type="curve"/>
      <point x="224" y="433"/>
      <point x="218" y="437"/>
      <point x="210" y="437" type="curve" smooth="yes"/>
      <point x="202" y="437"/>
      <point x="193" y="434"/>
      <point x="186" y="432" type="curve" smooth="yes"/>
      <point x="136" y="420"/>
      <point x="89" y="410"/>
      <point x="30" y="407" type="curve" smooth="yes"/>
      <point x="20" y="406"/>
      <point x="15" y="398"/>
      <point x="15" y="389" type="curve" smooth="yes"/>
      <point x="15" y="377"/>
      <point x="23" y="371"/>
      <point x="31" y="370" type="curve" smooth="yes"/>
      <point x="62" y="365"/>
      <point x="70" y="345"/>
      <point x="70" y="314" type="curve" smooth="yes"/>
      <point x="70" y="130" type="line" smooth="yes"/>
      <point x="70" y="49"/>
      <point x="118" y="-15"/>
      <point x="180" y="-15" type="curve" smooth="yes"/>
      <point x="241" y="-15"/>
      <point x="292" y="8"/>
      <point x="336" y="54" type="curve"/>
      <point x="337" y="53"/>
      <point x="338" y="48"/>
      <point x="338" y="42" type="curve" smooth="yes"/>
      <point x="338" y="28"/>
      <point x="333" y="5"/>
      <point x="333" y="-11" type="curve" smooth="yes"/>
      <point x="333" y="-18"/>
      <point x="337" y="-21"/>
      <point x="342" y="-21" type="curve" smooth="yes"/>
    </contour>
  </outline>
</glyph>
<glyph name="v" format="1">
  <advance width="496"/>
  <unicode hex="0076"/>
  <note>
	v
  </note>
  <outline>
    <contour>
      <point x="274" y="-21" type="line"/>
      <point x="285" y="0"/>
      <point x="307" y="49"/>
      <point x="315" y="67" type="curve" smooth="yes"/>
      <point x="325" y="88"/>
      <point x="337" y="113"/>
      <point x="345" y="135" type="curve" smooth="yes"/>
      <point x="425" y="341" type="line"/>
      <point x="437" y="372"/>
      <point x="458" y="393"/>
      <point x="483" y="402" type="curve" smooth="yes"/>
      <point x="496" y="407"/>
      <point x="501" y="412"/>
      <point x="501" y="424" type="curve" smooth="yes"/>
      <point x="501" y="435"/>
      <point x="485" y="436"/>
      <point x="476" y="436" type="curve"/>
      <point x="437" y="434"/>
      <point x="421" y="434"/>
      <point x="405" y="434" type="curve" smooth="yes"/>
      <point x="388" y="434"/>
      <point x="372" y="435"/>
      <point x="332" y="436" type="curve"/>
      <point x="323" y="436"/>
      <point x="308" y="433"/>
      <point x="308" y="422" type="curve" smooth="yes"/>
      <point x="308" y="410"/>
      <point x="319" y="407"/>
      <point x="330" y="403" type="curve" smooth="yes"/>
      <point x="344" y="398"/>
      <point x="361" y="383"/>
      <point x="361" y="360" type="curve" smooth="yes"/>
      <point x="361" y="348"/>
      <point x="357" y="331"/>
      <point x="354" y="320" type="curve"/>
      <point x="292" y="151" type="line"/>
      <point x="291" y="151"/>
      <point x="290" y="151"/>
      <point x="289" y="151" type="curve"/>
      <point x="232" y="327" type="line" smooth="yes"/>
      <point x="228" y="338"/>
      <point x="228" y="348"/>
      <point x="228" y="360" type="curve" smooth="yes"/>
      <point x="228" y="384"/>
      <point x="237" y="397"/>
      <point x="252" y="403" type="curve"/>
      <point x="263" y="408"/>
      <point x="274" y="410"/>
      <point x="274" y="422" type="curve" smooth="yes"/>
      <point x="274" y="433"/>
      <point x="259" y="436"/>
      <point x="250" y="436" type="curve" smooth="yes"/>
      <point x="201" y="436"/>
      <point x="177" y="430"/>
      <point x="134" y="430" type="curve" smooth="yes"/>
      <point x="90" y="430"/>
      <point x="79" y="436"/>
      <point x="30" y="436" type="curve" smooth="yes"/>
      <point x="21" y="436"/>
      <point x="5" y="435"/>
      <point x="5" y="424" type="curve" smooth="yes"/>
      <point x="5" y="412"/>
      <point x="10" y="407"/>
      <point x="23" y="402" type="curve" smooth="yes"/>
      <point x="48" y="393"/>
      <point x="60" y="371"/>
      <point x="74" y="341" type="curve" smooth="yes"/>
      <point x="204" y="61" type="line" smooth="yes"/>
      <point x="217" y="34"/>
      <point x="241" y="-21"/>
      <point x="251" y="-21" type="curve" smooth="yes"/>
    </contour>
  </outline>
</glyph>
<glyph name="x" format="1">
  <advance width="520"/>
  <unicode hex="0078"/>
  <note>
	x
  </note>
  <outline>
    <contour>
      <point x="69" y="-2"/>
      <point x="85" y="-2"/>
      <point x="101" y="-2" type="curve" smooth="yes"/>
      <point x="118" y="-2"/>
      <point x="124" y="-3"/>
      <point x="164" y="-4" type="curve" smooth="yes"/>
      <point x="173" y="-4"/>
      <point x="188" y="-1"/>
      <point x="188" y="10" type="curve" smooth="yes"/>
      <point x="188" y="22"/>
      <point x="177" y="24"/>
      <point x="166" y="29" type="curve" smooth="yes"/>
      <point x="152" y="35"/>
      <point x="147" y="45"/>
      <point x="147" y="60" type="curve" smooth="yes"/>
      <point x="147" y="76"/>
      <point x="156" y="94"/>
      <point x="163" y="104" type="curve" smooth="yes"/>
      <point x="213" y="176" type="line"/>
      <point x="214" y="177"/>
      <point x="218" y="177"/>
      <point x="219" y="176" type="curve"/>
      <point x="261" y="113" type="line" smooth="yes"/>
      <point x="272" y="96"/>
      <point x="274" y="87"/>
      <point x="274" y="73" type="curve" smooth="yes"/>
      <point x="274" y="46"/>
      <point x="262" y="37"/>
      <point x="245" y="32" type="curve" smooth="yes"/>
      <point x="232" y="28"/>
      <point x="223" y="25"/>
      <point x="223" y="13" type="curve" smooth="yes"/>
      <point x="223" y="5"/>
      <point x="231" y="-1"/>
      <point x="247" y="-1" type="curve" smooth="yes"/>
      <point x="296" y="-1"/>
      <point x="325" y="5"/>
      <point x="368" y="5" type="curve" smooth="yes"/>
      <point x="412" y="5"/>
      <point x="441" y="-1"/>
      <point x="490" y="-1" type="curve" smooth="yes"/>
      <point x="499" y="-1"/>
      <point x="515" y="0"/>
      <point x="515" y="11" type="curve" smooth="yes"/>
      <point x="515" y="23"/>
      <point x="510" y="28"/>
      <point x="497" y="33" type="curve" smooth="yes"/>
      <point x="472" y="42"/>
      <point x="446" y="66"/>
      <point x="428" y="94" type="curve" smooth="yes"/>
      <point x="350" y="217" type="line" smooth="yes"/>
      <point x="344" y="228"/>
      <point x="341" y="232"/>
      <point x="351" y="247" type="curve" smooth="yes"/>
      <point x="425" y="353" type="line" smooth="yes"/>
      <point x="450" y="388"/>
      <point x="463" y="397"/>
      <point x="476" y="402" type="curve" smooth="yes"/>
      <point x="489" y="407"/>
      <point x="494" y="412"/>
      <point x="494" y="424" type="curve" smooth="yes"/>
      <point x="494" y="435"/>
      <point x="478" y="436"/>
      <point x="469" y="436" type="curve"/>
      <point x="430" y="434"/>
      <point x="414" y="434"/>
      <point x="398" y="434" type="curve" smooth="yes"/>
      <point x="381" y="434"/>
      <point x="375" y="435"/>
      <point x="335" y="436" type="curve" smooth="yes"/>
      <point x="326" y="436"/>
      <point x="311" y="433"/>
      <point x="311" y="422" type="curve" smooth="yes"/>
      <point x="311" y="410"/>
      <point x="322" y="408"/>
      <point x="333" y="403" type="curve" smooth="yes"/>
      <point x="347" y="397"/>
      <point x="352" y="387"/>
      <point x="352" y="372" type="curve" smooth="yes"/>
      <point x="352" y="356"/>
      <point x="343" y="338"/>
      <point x="336" y="328" type="curve" smooth="yes"/>
      <point x="304" y="280" type="line"/>
      <point x="301" y="274"/>
      <point x="297" y="276"/>
      <point x="295" y="280" type="curve"/>
      <point x="252" y="347" type="line" smooth="yes"/>
      <point x="235" y="374"/>
      <point x="247" y="394"/>
      <point x="270" y="403" type="curve"/>
      <point x="281" y="408"/>
      <point x="292" y="410"/>
      <point x="292" y="422" type="curve" smooth="yes"/>
      <point x="292" y="433"/>
      <point x="277" y="436"/>
      <point x="268" y="436" type="curve" smooth="yes"/>
      <point x="219" y="436"/>
      <point x="199" y="430"/>
      <point x="156" y="430" type="curve" smooth="yes"/>
      <point x="112" y="430"/>
      <point x="101" y="436"/>
      <point x="52" y="436" type="curve" smooth="yes"/>
      <point x="43" y="436"/>
      <point x="27" y="435"/>
      <point x="27" y="424" type="curve" smooth="yes"/>
      <point x="27" y="412"/>
      <point x="32" y="407"/>
      <point x="45" y="402" type="curve" smooth="yes"/>
      <point x="67" y="394"/>
      <point x="78" y="377"/>
      <point x="95" y="350" type="curve" smooth="yes"/>
      <point x="168" y="237" type="line" smooth="yes"/>
      <point x="175" y="226"/>
      <point x="175" y="221"/>
      <point x="167" y="211" type="curve"/>
      <point x="74" y="79" type="line" smooth="yes"/>
      <point x="49" y="44"/>
      <point x="36" y="35"/>
      <point x="23" y="30" type="curve" smooth="yes"/>
      <point x="10" y="25"/>
      <point x="5" y="20"/>
      <point x="5" y="8" type="curve" smooth="yes"/>
      <point x="5" y="-3"/>
      <point x="21" y="-4"/>
      <point x="30" y="-4" type="curve"/>
    </contour>
  </outline>
</glyph>
<glyph name="y" format="1">
  <advance width="491"/>
  <unicode hex="0079"/>
  <note>
	y
  </note>
  <outline>
    <contour>
      <point x="134" y="-283"/>
      <point x="171" y="-262"/>
      <point x="189" y="-220" type="curve" smooth="yes"/>
      <point x="215" y="-159"/>
      <point x="242" y="-98"/>
      <point x="268" y="-34" type="curve" smooth="yes"/>
      <point x="420" y="332" type="line" smooth="yes"/>
      <point x="433" y="363"/>
      <point x="453" y="384"/>
      <point x="478" y="393" type="curve" smooth="yes"/>
      <point x="491" y="398"/>
      <point x="496" y="403"/>
      <point x="496" y="415" type="curve" smooth="yes"/>
      <point x="496" y="426"/>
      <point x="480" y="427"/>
      <point x="471" y="427" type="curve"/>
      <point x="432" y="425"/>
      <point x="416" y="425"/>
      <point x="400" y="425" type="curve" smooth="yes"/>
      <point x="383" y="425"/>
      <point x="367" y="426"/>
      <point x="327" y="427" type="curve" smooth="yes"/>
      <point x="318" y="427"/>
      <point x="303" y="424"/>
      <point x="303" y="413" type="curve" smooth="yes"/>
      <point x="303" y="401"/>
      <point x="314" y="398"/>
      <point x="325" y="394" type="curve" smooth="yes"/>
      <point x="339" y="389"/>
      <point x="356" y="374"/>
      <point x="356" y="351" type="curve" smooth="yes"/>
      <point x="356" y="339"/>
      <point x="353" y="322"/>
      <point x="349" y="311" type="curve" smooth="yes"/>
      <point x="298" y="177" type="line"/>
      <point x="297" y="175"/>
      <point x="297" y="175"/>
      <point x="296" y="175" type="curve"/>
      <point x="295" y="175"/>
      <point x="295" y="175"/>
      <point x="294" y="177" type="curve"/>
      <point x="241" y="305" type="line" smooth="yes"/>
      <point x="231" y="329"/>
      <point x="229" y="343"/>
      <point x="229" y="355" type="curve" smooth="yes"/>
      <point x="229" y="379"/>
      <point x="238" y="392"/>
      <point x="253" y="398" type="curve"/>
      <point x="264" y="403"/>
      <point x="275" y="405"/>
      <point x="275" y="417" type="curve" smooth="yes"/>
      <point x="275" y="428"/>
      <point x="260" y="431"/>
      <point x="251" y="431" type="curve" smooth="yes"/>
      <point x="202" y="431"/>
      <point x="178" y="425"/>
      <point x="135" y="425" type="curve" smooth="yes"/>
      <point x="91" y="425"/>
      <point x="80" y="431"/>
      <point x="31" y="431" type="curve" smooth="yes"/>
      <point x="22" y="431"/>
      <point x="6" y="430"/>
      <point x="6" y="419" type="curve" smooth="yes"/>
      <point x="6" y="407"/>
      <point x="11" y="402"/>
      <point x="24" y="397" type="curve" smooth="yes"/>
      <point x="49" y="388"/>
      <point x="62" y="366"/>
      <point x="75" y="336" type="curve" smooth="yes"/>
      <point x="201" y="55" type="line" smooth="yes"/>
      <point x="209" y="37"/>
      <point x="217" y="20"/>
      <point x="217" y="-1" type="curve" smooth="yes"/>
      <point x="217" y="-17"/>
      <point x="212" y="-35"/>
      <point x="203" y="-55" type="curve" smooth="yes"/>
      <point x="179" y="-108"/>
      <point x="155" y="-146"/>
      <point x="139" y="-174" type="curve" smooth="yes"/>
      <point x="132" y="-186"/>
      <point x="122" y="-191"/>
      <point x="111" y="-191" type="curve" smooth="yes"/>
      <point x="94" y="-191"/>
      <point x="76" y="-182"/>
      <point x="53" y="-182" type="curve" smooth="yes"/>
      <point x="23" y="-182"/>
      <point x="11" y="-203"/>
      <point x="11" y="-228" type="curve" smooth="yes"/>
      <point x="11" y="-262"/>
      <point x="53" y="-283"/>
      <point x="90" y="-283" type="curve" smooth="yes"/>
    </contour>
    <contour>
      <point x="286" y="440" type="move" name="top"/>
    </contour>
  </outline>
</glyph>
<glyph name="z" format="1">
  <advance width="436"/>
  <unicode hex="007A"/>
  <note>
	z
  </note>
  <outline>
    <contour>
      <point x="54" y="-5"/>
      <point x="93" y="1"/>
      <point x="125" y="1" type="curve" smooth="yes"/>
      <point x="247" y="1"/>
      <point x="334" y="-5"/>
      <point x="367" y="-5" type="curve" smooth="yes"/>
      <point x="376" y="-5"/>
      <point x="384" y="1"/>
      <point x="387" y="11" type="curve" smooth="yes"/>
      <point x="400" y="63"/>
      <point x="431" y="154"/>
      <point x="431" y="175" type="curve" smooth="yes"/>
      <point x="431" y="191"/>
      <point x="403" y="198"/>
      <point x="393" y="180" type="curve" smooth="yes"/>
      <point x="368" y="135"/>
      <point x="349" y="107"/>
      <point x="322" y="77" type="curve" smooth="yes"/>
      <point x="305" y="58"/>
      <point x="291" y="53"/>
      <point x="271" y="53" type="curve" smooth="yes"/>
      <point x="226" y="53" type="line" smooth="yes"/>
      <point x="207" y="53"/>
      <point x="205" y="59"/>
      <point x="211" y="68" type="curve" smooth="yes"/>
      <point x="371" y="329" type="line"/>
      <point x="387" y="351"/>
      <point x="398" y="366"/>
      <point x="414" y="385" type="curve"/>
      <point x="422" y="396"/>
      <point x="411" y="429"/>
      <point x="394" y="429" type="curve"/>
      <point x="326" y="426"/>
      <point x="240" y="425"/>
      <point x="178" y="425" type="curve" smooth="yes"/>
      <point x="168" y="425"/>
      <point x="152" y="424"/>
      <point x="136" y="424" type="curve" smooth="yes"/>
      <point x="115" y="424"/>
      <point x="94" y="425"/>
      <point x="87" y="431" type="curve"/>
      <point x="81" y="437"/>
      <point x="75" y="441"/>
      <point x="67" y="441" type="curve" smooth="yes"/>
      <point x="55" y="441"/>
      <point x="43" y="429"/>
      <point x="43" y="414" type="curve" smooth="yes"/>
      <point x="43" y="372"/>
      <point x="22" y="292"/>
      <point x="17" y="271" type="curve" smooth="yes"/>
      <point x="15" y="259"/>
      <point x="42" y="251"/>
      <point x="50" y="261" type="curve" smooth="yes"/>
      <point x="57" y="270"/>
      <point x="106" y="343"/>
      <point x="118" y="355" type="curve" smooth="yes"/>
      <point x="132" y="369"/>
      <point x="144" y="373"/>
      <point x="163" y="373" type="curve" smooth="yes"/>
      <point x="208" y="373" type="line" smooth="yes"/>
      <point x="225" y="373"/>
      <point x="222" y="366"/>
      <point x="219" y="361" type="curve" smooth="yes"/>
      <point x="140" y="231"/>
      <point x="117" y="197"/>
      <point x="52" y="94" type="curve" smooth="yes"/>
      <point x="39" y="73"/>
      <point x="10" y="39"/>
      <point x="10" y="25" type="curve" smooth="yes"/>
      <point x="10" y="12"/>
      <point x="29" y="-5"/>
      <point x="35" y="-5" type="curve" smooth="yes"/>
    </contour>
  </outline>
</glyph>
<glyph name="braceleft" format="1">
  <advance width="398"/>
  <unicode hex="007B"/>
  <note>
	braceleft
  </note>
  <outline>
    <contour>
      <point x="354" y="-152"/>
      <point x="368" y="-143"/>
      <point x="368" y="-129" type="curve" smooth="yes"/>
      <point x="368" y="-113"/>
      <point x="346" y="-111"/>
      <point x="330" y="-111" type="curve" smooth="yes"/>
      <point x="260" y="-111"/>
      <point x="224" y="-88"/>
      <point x="224" y="-24" type="curve" smooth="yes"/>
      <point x="224" y="9"/>
      <point x="237" y="97"/>
      <point x="237" y="140" type="curve" smooth="yes"/>
      <point x="237" y="211"/>
      <point x="181" y="264"/>
      <point x="108" y="279" type="curve"/>
      <point x="105" y="280"/>
      <point x="101" y="282"/>
      <point x="106" y="283" type="curve" smooth="yes"/>
      <point x="179" y="298"/>
      <point x="235" y="351"/>
      <point x="235" y="422" type="curve" smooth="yes"/>
      <point x="235" y="465"/>
      <point x="222" y="553"/>
      <point x="222" y="586" type="curve" smooth="yes"/>
      <point x="222" y="650"/>
      <point x="258" y="673"/>
      <point x="328" y="673" type="curve" smooth="yes"/>
      <point x="344" y="673"/>
      <point x="366" y="675"/>
      <point x="366" y="691" type="curve" smooth="yes"/>
      <point x="366" y="705"/>
      <point x="352" y="714"/>
      <point x="338" y="714" type="curve" smooth="yes"/>
      <point x="221" y="714"/>
      <point x="100" y="675"/>
      <point x="108" y="581" type="curve" smooth="yes"/>
      <point x="112" y="531"/>
      <point x="119" y="459"/>
      <point x="119" y="404" type="curve" smooth="yes"/>
      <point x="119" y="333"/>
      <point x="89" y="324"/>
      <point x="52" y="306" type="curve"/>
      <point x="40" y="301"/>
      <point x="20" y="296"/>
      <point x="20" y="280" type="curve" smooth="yes"/>
      <point x="20" y="264"/>
      <point x="37" y="263"/>
      <point x="52" y="257" type="curve" smooth="yes"/>
      <point x="90" y="242"/>
      <point x="121" y="229"/>
      <point x="121" y="158" type="curve" smooth="yes"/>
      <point x="121" y="103"/>
      <point x="114" y="31"/>
      <point x="110" y="-19" type="curve" smooth="yes"/>
      <point x="102" y="-113"/>
      <point x="223" y="-152"/>
      <point x="340" y="-152" type="curve" smooth="yes"/>
    </contour>
  </outline>
</glyph>
<glyph name="macron" format="1">
  <advance width="400"/>
  <unicode hex="00AF"/>
  <note>
	macron
  </note>
  <outline>
    <component base="uni0304" xOffset="5" yOffset="13"/>
    <contour>
      <point x="200" y="440" type="move" name="_top"/>
    </contour>
  </outline>
</glyph>
<glyph name="degree" format="1">
  <advance width="359"/>
  <unicode hex="00B0"/>
  <note>
	degree
  </note>
  <outline>
    <contour>
      <point x="112" y="567"/>
      <point x="142" y="596"/>
      <point x="180" y="596" type="curve" smooth="yes"/>
      <point x="216" y="596"/>
      <point x="247" y="567"/>
      <point x="247" y="525" type="curve" smooth="yes"/>
      <point x="247" y="483"/>
      <point x="216" y="453"/>
      <point x="180" y="453" type="curve" smooth="yes"/>
      <point x="142" y="453"/>
      <point x="112" y="483"/>
      <point x="112" y="525" type="curve" smooth="yes"/>
    </contour>
    <contour>
      <point x="88" y="675"/>
      <point x="25" y="610"/>
      <point x="25" y="531" type="curve" smooth="yes"/>
      <point x="25" y="452"/>
      <point x="88" y="376"/>
      <point x="181" y="376" type="curve" smooth="yes"/>
      <point x="272" y="376"/>
      <point x="334" y="452"/>
      <point x="334" y="531" type="curve" smooth="yes"/>
      <point x="334" y="610"/>
      <point x="272" y="675"/>
      <point x="181" y="675" type="curve" smooth="yes"/>
    </contour>
  </outline>
</glyph>
<glyph name="Eth" format="1">
  <advance width="769"/>
  <unicode hex="00D0"/>
  <note>
	Eth
  </note>
  <outline>
    <contour>
      <point x="342" y="304" type="line" smooth="yes"/>
      <point x="365" y="304"/>
      <point x="380" y="325"/>
      <point x="384" y="342" type="curve"/>
      <point x="384" y="344"/>
      <point x="385" y="345"/>
      <point x="385" y="347" type="curve" smooth="yes"/>
      <point x="385" y="357"/>
      <point x="375" y="366"/>
      <point x="362" y="366" type="curve" smooth="yes"/>
      <point x="62" y="366" type="line" smooth="yes"/>
      <point x="45" y="366"/>
      <point x="33" y="353"/>
      <point x="33" y="335" type="curve" smooth="yes"/>
      <point x="33" y="321"/>
      <point x="40" y="304"/>
      <point x="57" y="304" type="curve" smooth="yes"/>
    </contour>
    <component base="D"/>
  </outline>
</glyph>
<glyph name="dcroat" format="1">
  <advance width="563"/>
  <unicode hex="0111"/>
  <note>
	dcroat
  </note>
  <outline>
    <contour>
      <point x="355" y="-19"/>
      <point x="372" y="-15"/>
      <point x="376" y="-13" type="curve"/>
      <point x="412" y="0"/>
      <point x="474" y="17"/>
      <point x="538" y="24" type="curve"/>
      <point x="544" y="24"/>
      <point x="553" y="31"/>
      <point x="553" y="44" type="curve" smooth="yes"/>
      <point x="553" y="56"/>
      <point x="545" y="63"/>
      <point x="537" y="62" type="curve" smooth="yes"/>
      <point x="526" y="61"/>
      <point x="511" y="59"/>
      <point x="501" y="59" type="curve" smooth="yes"/>
      <point x="484" y="59"/>
      <point x="478" y="77"/>
      <point x="478" y="122" type="curve" smooth="yes"/>
      <point x="484" y="638" type="line"/>
      <point x="485" y="657"/>
      <point x="489" y="682"/>
      <point x="489" y="692" type="curve" smooth="yes"/>
      <point x="489" y="698"/>
      <point x="486" y="705"/>
      <point x="477" y="705" type="curve" smooth="yes"/>
      <point x="474" y="705"/>
      <point x="465" y="701"/>
      <point x="451" y="695" type="curve" smooth="yes"/>
      <point x="416" y="680"/>
      <point x="353" y="660"/>
      <point x="302" y="649" type="curve"/>
      <point x="296" y="648"/>
      <point x="291" y="643"/>
      <point x="291" y="634" type="curve" smooth="yes"/>
      <point x="291" y="625"/>
      <point x="296" y="620"/>
      <point x="303" y="618" type="curve"/>
      <point x="337" y="610"/>
      <point x="340" y="582"/>
      <point x="340" y="546" type="curve" smooth="yes"/>
      <point x="340" y="410" type="line" smooth="yes"/>
      <point x="340" y="402"/>
      <point x="339" y="399"/>
      <point x="336" y="399" type="curve" smooth="yes"/>
      <point x="334" y="399"/>
      <point x="331" y="402"/>
      <point x="326" y="404" type="curve"/>
      <point x="313" y="410"/>
      <point x="287" y="418"/>
      <point x="264" y="418" type="curve" smooth="yes"/>
      <point x="114" y="418"/>
      <point x="21" y="317"/>
      <point x="21" y="189" type="curve" smooth="yes"/>
      <point x="21" y="91"/>
      <point x="89" y="-14"/>
      <point x="216" y="-14" type="curve" smooth="yes"/>
      <point x="283" y="-14"/>
      <point x="328" y="26"/>
      <point x="349" y="57" type="curve"/>
      <point x="349" y="51" type="line"/>
      <point x="348" y="31"/>
      <point x="343" y="-2"/>
      <point x="343" y="-15" type="curve" smooth="yes"/>
      <point x="343" y="-18"/>
      <point x="342" y="-19"/>
      <point x="347" y="-19" type="curve" smooth="yes"/>
    </contour>
    <contour>
      <point x="242" y="55"/>
      <point x="175" y="78"/>
      <point x="175" y="216" type="curve" smooth="yes"/>
      <point x="175" y="328"/>
      <point x="222" y="369"/>
      <point x="258" y="369" type="curve" smooth="yes"/>
      <point x="304" y="369"/>
      <point x="340" y="327"/>
      <point x="340" y="284" type="curve" smooth="yes"/>
      <point x="340" y="135" type="line" smooth="yes"/>
      <point x="340" y="88"/>
      <point x="308" y="55"/>
      <point x="271" y="55" type="curve" smooth="yes"/>
    </contour>
    <contour>
      <point x="510" y="519" type="line" smooth="yes"/>
      <point x="533" y="519"/>
      <point x="548" y="540"/>
      <point x="552" y="557" type="curve"/>
      <point x="552" y="559"/>
      <point x="553" y="560"/>
      <point x="553" y="562" type="curve" smooth="yes"/>
      <point x="553" y="572"/>
      <point x="543" y="581"/>
      <point x="530" y="581" type="curve" smooth="yes"/>
      <point x="214" y="581" type="line" smooth="yes"/>
      <point x="197" y="581"/>
      <point x="185" y="568"/>
      <point x="185" y="550" type="curve" smooth="yes"/>
      <point x="185" y="536"/>
      <point x="192" y="519"/>
      <point x="209" y="519" type="curve" smooth="yes"/>
    </contour>
    <contour>
      <point x="252" y="-30" type="move" name="bottom"/>
    </contour>
  </outline>
</glyph>
<glyph name="uni0196" format="1">
  <advance width="600"/>
  <unicode hex="0196"/>
  <note>
	uni0196
  </note>
  <outline>
    <contour>
      <point x="345" y="-11"/>
      <point x="400" y="27"/>
      <point x="429" y="58" type="curve" smooth="yes"/>
      <point x="440" y="70"/>
      <point x="444" y="83"/>
      <point x="444" y="96" type="curve" smooth="yes"/>
      <point x="444" y="117"/>
      <point x="436" y="122"/>
      <point x="425" y="122" type="curve" smooth="yes"/>
      <point x="420" y="122"/>
      <point x="413" y="118"/>
      <point x="405" y="112" type="curve" smooth="yes"/>
      <point x="387" y="99"/>
      <point x="363" y="79"/>
      <point x="337" y="79" type="curve" smooth="yes"/>
      <point x="289" y="79"/>
      <point x="270" y="115"/>
      <point x="270" y="205" type="curve" smooth="yes"/>
      <point x="270" y="550" type="line" smooth="yes"/>
      <point x="270" y="590"/>
      <point x="280" y="602"/>
      <point x="335" y="618" type="curve"/>
      <point x="347" y="622"/>
      <point x="354" y="626"/>
      <point x="354" y="639" type="curve" smooth="yes"/>
      <point x="354" y="649"/>
      <point x="348" y="654"/>
      <point x="338" y="654" type="curve" smooth="yes"/>
      <point x="296" y="654"/>
      <point x="222" y="650"/>
      <point x="183" y="650" type="curve" smooth="yes"/>
      <point x="143" y="650"/>
      <point x="77" y="655"/>
      <point x="33" y="655" type="curve" smooth="yes"/>
      <point x="25" y="655"/>
      <point x="15" y="649"/>
      <point x="15" y="640" type="curve" smooth="yes"/>
      <point x="15" y="628"/>
      <point x="22" y="621"/>
      <point x="34" y="618" type="curve" smooth="yes"/>
      <point x="87" y="606"/>
      <point x="100" y="594"/>
      <point x="100" y="551" type="curve" smooth="yes"/>
      <point x="100" y="173" type="line" smooth="yes"/>
      <point x="100" y="63"/>
      <point x="155" y="-11"/>
      <point x="264" y="-11" type="curve" smooth="yes"/>
    </contour>
  </outline>
</glyph>
<glyph name="uni019A" format="1">
  <advance width="307"/>
  <unicode hex="019A"/>
  <note>
	uni019A
  </note>
  <outline>
    <contour>
      <point x="249" y="310" type="line" smooth="yes"/>
      <point x="272" y="310"/>
      <point x="287" y="331"/>
      <point x="291" y="348" type="curve"/>
      <point x="291" y="350"/>
      <point x="292" y="351"/>
      <point x="292" y="353" type="curve" smooth="yes"/>
      <point x="292" y="363"/>
      <point x="282" y="372"/>
      <point x="269" y="372" type="curve" smooth="yes"/>
      <point x="44" y="372" type="line" smooth="yes"/>
      <point x="27" y="372"/>
      <point x="15" y="359"/>
      <point x="15" y="341" type="curve" smooth="yes"/>
      <point x="15" y="327"/>
      <point x="22" y="310"/>
      <point x="39" y="310" type="curve" smooth="yes"/>
    </contour>
    <component base="l" xOffset="6"/>
  </outline>
</glyph>
<glyph name="uni019B" format="1">
  <advance width="518"/>
  <unicode hex="019B"/>
  <note>
	uni019B
  </note>
  <outline>
    <contour>
      <point x="69" y="-2"/>
      <point x="85" y="0"/>
      <point x="101" y="0" type="curve" smooth="yes"/>
      <point x="118" y="0"/>
      <point x="134" y="-3"/>
      <point x="174" y="-4" type="curve" smooth="yes"/>
      <point x="183" y="-4"/>
      <point x="198" y="-1"/>
      <point x="198" y="10" type="curve" smooth="yes"/>
      <point x="198" y="22"/>
      <point x="187" y="25"/>
      <point x="176" y="29" type="curve" smooth="yes"/>
      <point x="162" y="34"/>
      <point x="145" y="49"/>
      <point x="145" y="72" type="curve" smooth="yes"/>
      <point x="145" y="84"/>
      <point x="147" y="100"/>
      <point x="152" y="112" type="curve" smooth="yes"/>
      <point x="219" y="258" type="line" smooth="yes"/>
      <point x="223" y="266"/>
      <point x="226" y="266"/>
      <point x="229" y="257" type="curve" smooth="yes"/>
      <point x="280" y="118" type="line" smooth="yes"/>
      <point x="289" y="94"/>
      <point x="292" y="80"/>
      <point x="292" y="68" type="curve" smooth="yes"/>
      <point x="292" y="44"/>
      <point x="283" y="35"/>
      <point x="268" y="29" type="curve"/>
      <point x="257" y="24"/>
      <point x="246" y="22"/>
      <point x="246" y="10" type="curve" smooth="yes"/>
      <point x="246" y="-1"/>
      <point x="261" y="-4"/>
      <point x="270" y="-4" type="curve" smooth="yes"/>
      <point x="319" y="-4"/>
      <point x="343" y="0"/>
      <point x="386" y="0" type="curve" smooth="yes"/>
      <point x="412" y="0"/>
      <point x="439" y="-4"/>
      <point x="488" y="-4" type="curve" smooth="yes"/>
      <point x="497" y="-4"/>
      <point x="513" y="-3"/>
      <point x="513" y="8" type="curve" smooth="yes"/>
      <point x="513" y="20"/>
      <point x="508" y="25"/>
      <point x="495" y="30" type="curve" smooth="yes"/>
      <point x="470" y="39"/>
      <point x="458" y="61"/>
      <point x="444" y="91" type="curve"/>
      <point x="274" y="529" type="line"/>
      <point x="347" y="566" type="line" smooth="yes"/>
      <point x="368" y="577"/>
      <point x="369" y="599"/>
      <point x="369" y="616" type="curve" smooth="yes"/>
      <point x="369" y="635"/>
      <point x="352" y="638"/>
      <point x="337" y="631" type="curve" smooth="yes"/>
      <point x="253" y="588" type="line"/>
      <point x="245" y="609" type="line" smooth="yes"/>
      <point x="229" y="653"/>
      <point x="211" y="703"/>
      <point x="182" y="703" type="curve" smooth="yes"/>
      <point x="142" y="703"/>
      <point x="19" y="650"/>
      <point x="19" y="619" type="curve" smooth="yes"/>
      <point x="19" y="611"/>
      <point x="23" y="599"/>
      <point x="38" y="599" type="curve" smooth="yes"/>
      <point x="49" y="599"/>
      <point x="56" y="602"/>
      <point x="68" y="602" type="curve" smooth="yes"/>
      <point x="96" y="602"/>
      <point x="104" y="585"/>
      <point x="120" y="542" type="curve" smooth="yes"/>
      <point x="127" y="524" type="line"/>
      <point x="33" y="476" type="line" smooth="yes"/>
      <point x="17" y="467"/>
      <point x="14" y="454"/>
      <point x="14" y="430" type="curve" smooth="yes"/>
      <point x="14" y="411"/>
      <point x="29" y="405"/>
      <point x="51" y="416" type="curve" smooth="yes"/>
      <point x="149" y="466" type="line"/>
      <point x="175" y="398" type="line"/>
      <point x="182" y="377"/>
      <point x="189" y="360"/>
      <point x="189" y="344" type="curve" smooth="yes"/>
      <point x="189" y="323"/>
      <point x="181" y="306"/>
      <point x="173" y="288" type="curve" smooth="yes"/>
      <point x="81" y="91" type="line" smooth="yes"/>
      <point x="67" y="61"/>
      <point x="48" y="39"/>
      <point x="23" y="30" type="curve" smooth="yes"/>
      <point x="10" y="25"/>
      <point x="5" y="20"/>
      <point x="5" y="8" type="curve" smooth="yes"/>
      <point x="5" y="-3"/>
      <point x="21" y="-4"/>
      <point x="30" y="-4" type="curve"/>
    </contour>
  </outline>
</glyph>
<glyph name="uni019E" format="1">
  <advance width="570"/>
  <unicode hex="019E"/>
  <note>
	uni019E
  </note>
  <outline>
    <contour>
      <point x="360" y="-285"/>
      <point x="395" y="-280"/>
      <point x="430" y="-280" type="curve" smooth="yes"/>
      <point x="465" y="-280"/>
      <point x="502" y="-285"/>
      <point x="542" y="-285" type="curve" smooth="yes"/>
      <point x="550" y="-285"/>
      <point x="559" y="-279"/>
      <point x="559" y="-270" type="curve" smooth="yes"/>
      <point x="559" y="-259"/>
      <point x="550" y="-253"/>
      <point x="539" y="-249" type="curve" smooth="yes"/>
      <point x="519" y="-243"/>
      <point x="502" y="-239"/>
      <point x="502" y="-212" type="curve" smooth="yes"/>
      <point x="502" y="292" type="line" smooth="yes"/>
      <point x="502" y="373"/>
      <point x="454" y="437"/>
      <point x="390" y="437" type="curve" smooth="yes"/>
      <point x="328" y="437"/>
      <point x="277" y="409"/>
      <point x="230" y="367" type="curve"/>
      <point x="229" y="368"/>
      <point x="228" y="376"/>
      <point x="228" y="382" type="curve" smooth="yes"/>
      <point x="228" y="401"/>
      <point x="233" y="427"/>
      <point x="233" y="438" type="curve" smooth="yes"/>
      <point x="233" y="444"/>
      <point x="232" y="451"/>
      <point x="223" y="451" type="curve" smooth="yes"/>
      <point x="218" y="451"/>
      <point x="209" y="445"/>
      <point x="203" y="442" type="curve" smooth="yes"/>
      <point x="163" y="422"/>
      <point x="94" y="402"/>
      <point x="49" y="392" type="curve"/>
      <point x="42" y="390"/>
      <point x="39" y="383"/>
      <point x="39" y="374" type="curve" smooth="yes"/>
      <point x="39" y="362"/>
      <point x="45" y="356"/>
      <point x="50" y="355" type="curve" smooth="yes"/>
      <point x="72" y="351"/>
      <point x="80" y="329"/>
      <point x="80" y="303" type="curve" smooth="yes"/>
      <point x="80" y="71" type="line" smooth="yes"/>
      <point x="80" y="44"/>
      <point x="63" y="39"/>
      <point x="43" y="33" type="curve" smooth="yes"/>
      <point x="32" y="29"/>
      <point x="20" y="23"/>
      <point x="20" y="12" type="curve" smooth="yes"/>
      <point x="20" y="3"/>
      <point x="32" y="-3"/>
      <point x="40" y="-3" type="curve" smooth="yes"/>
      <point x="80" y="-3"/>
      <point x="120" y="2"/>
      <point x="155" y="2" type="curve" smooth="yes"/>
      <point x="190" y="2"/>
      <point x="222" y="-3"/>
      <point x="262" y="-3" type="curve" smooth="yes"/>
      <point x="270" y="-3"/>
      <point x="278" y="4"/>
      <point x="278" y="12" type="curve" smooth="yes"/>
      <point x="278" y="22"/>
      <point x="270" y="29"/>
      <point x="259" y="33" type="curve" smooth="yes"/>
      <point x="240" y="40"/>
      <point x="225" y="43"/>
      <point x="225" y="70" type="curve" smooth="yes"/>
      <point x="225" y="267" type="line" smooth="yes"/>
      <point x="225" y="299"/>
      <point x="229" y="318"/>
      <point x="240" y="327" type="curve" smooth="yes"/>
      <point x="258" y="341"/>
      <point x="279" y="346"/>
      <point x="299" y="346" type="curve" smooth="yes"/>
      <point x="334" y="345"/>
      <point x="357" y="316"/>
      <point x="357" y="267" type="curve" smooth="yes"/>
      <point x="357" y="-212" type="line" smooth="yes"/>
      <point x="357" y="-239"/>
      <point x="343" y="-243"/>
      <point x="323" y="-249" type="curve" smooth="yes"/>
      <point x="312" y="-253"/>
      <point x="304" y="-259"/>
      <point x="304" y="-270" type="curve" smooth="yes"/>
      <point x="304" y="-279"/>
      <point x="312" y="-285"/>
      <point x="320" y="-285" type="curve" smooth="yes"/>
    </contour>
  </outline>
</glyph>
<glyph name="uni019F" format="1">
  <advance width="759"/>
  <unicode hex="019F"/>
  <note>
	uni019F
  </note>
  <outline>
    <contour>
      <point x="125" y="263" type="line"/>
      <point x="644" y="263" type="line"/>
      <point x="644" y="407" type="line"/>
      <point x="125" y="407" type="line"/>
    </contour>
    <component base="O"/>
  </outline>
</glyph>
<glyph name="uni01A4" format="1">
  <advance width="691"/>
  <unicode hex="01A4"/>
  <note>
	uni01A4
  </note>
  <outline>
    <contour>
      <point x="164" y="-3"/>
      <point x="230" y="2"/>
      <point x="270" y="2" type="curve" smooth="yes"/>
      <point x="309" y="2"/>
      <point x="396" y="-2"/>
      <point x="438" y="-2" type="curve" smooth="yes"/>
      <point x="448" y="-2"/>
      <point x="454" y="3"/>
      <point x="454" y="13" type="curve" smooth="yes"/>
      <point x="454" y="26"/>
      <point x="447" y="31"/>
      <point x="435" y="34" type="curve"/>
      <point x="378" y="46"/>
      <point x="357" y="56"/>
      <point x="357" y="98" type="curve" smooth="yes"/>
      <point x="358" y="560" type="line" smooth="yes"/>
      <point x="358" y="596"/>
      <point x="376" y="613"/>
      <point x="414" y="613" type="curve" smooth="yes"/>
      <point x="479" y="613"/>
      <point x="516" y="562"/>
      <point x="516" y="435" type="curve" smooth="yes"/>
      <point x="516" y="336"/>
      <point x="490" y="268"/>
      <point x="439" y="268" type="curve" smooth="yes"/>
      <point x="422" y="268"/>
      <point x="415" y="273"/>
      <point x="399" y="273" type="curve" smooth="yes"/>
      <point x="392" y="273"/>
      <point x="380" y="268"/>
      <point x="380" y="257" type="curve" smooth="yes"/>
      <point x="380" y="241"/>
      <point x="399" y="229"/>
      <point x="435" y="229" type="curve" smooth="yes"/>
      <point x="600" y="229"/>
      <point x="681" y="337"/>
      <point x="681" y="464" type="curve" smooth="yes"/>
      <point x="681" y="597"/>
      <point x="570" y="664"/>
      <point x="397" y="664" type="curve" smooth="yes"/>
      <point x="137" y="664"/>
      <point x="5" y="617"/>
      <point x="5" y="505" type="curve" smooth="yes"/>
      <point x="5" y="458"/>
      <point x="37" y="414"/>
      <point x="67" y="414" type="curve" smooth="yes"/>
      <point x="86" y="414"/>
      <point x="134" y="443"/>
      <point x="134" y="471" type="curve" smooth="yes"/>
      <point x="134" y="499"/>
      <point x="94" y="501"/>
      <point x="94" y="539" type="curve" smooth="yes"/>
      <point x="94" y="577"/>
      <point x="130" y="600"/>
      <point x="158" y="600" type="curve" smooth="yes"/>
      <point x="178" y="600"/>
      <point x="187" y="587"/>
      <point x="187" y="551" type="curve" smooth="yes"/>
      <point x="187" y="97" type="line" smooth="yes"/>
      <point x="187" y="56"/>
      <point x="172" y="45"/>
      <point x="121" y="34" type="curve" smooth="yes"/>
      <point x="109" y="31"/>
      <point x="102" y="24"/>
      <point x="102" y="12" type="curve" smooth="yes"/>
      <point x="102" y="3"/>
      <point x="112" y="-3"/>
      <point x="120" y="-3" type="curve" smooth="yes"/>
    </contour>
  </outline>
</glyph>
<glyph name="uni01A7" format="1">
  <advance width="486"/>
  <unicode hex="01A7"/>
  <note>
	uni01A7
  </note>
  <outline>
    <contour>
      <point x="324" y="-14"/>
      <point x="379" y="-2"/>
      <point x="427" y="27" type="curve" smooth="yes"/>
      <point x="437" y="33"/>
      <point x="446" y="42"/>
      <point x="450" y="52" type="curve" smooth="yes"/>
      <point x="465" y="90"/>
      <point x="470" y="147"/>
      <point x="467" y="206" type="curve"/>
      <point x="467" y="215"/>
      <point x="454" y="219"/>
      <point x="443" y="219" type="curve" smooth="yes"/>
      <point x="429" y="219"/>
      <point x="421" y="215"/>
      <point x="416" y="206" type="curve"/>
      <point x="388" y="124"/>
      <point x="336" y="45"/>
      <point x="253" y="45" type="curve" smooth="yes"/>
      <point x="197" y="45"/>
      <point x="164" y="90"/>
      <point x="164" y="126" type="curve" smooth="yes"/>
      <point x="164" y="199"/>
      <point x="223" y="241"/>
      <point x="285" y="278" type="curve" smooth="yes"/>
      <point x="356" y="320"/>
      <point x="449" y="342"/>
      <point x="449" y="469" type="curve" smooth="yes"/>
      <point x="449" y="588"/>
      <point x="340" y="664"/>
      <point x="210" y="664" type="curve" smooth="yes"/>
      <point x="159" y="664"/>
      <point x="106" y="651"/>
      <point x="77" y="639" type="curve" smooth="yes"/>
      <point x="60" y="632"/>
      <point x="56" y="628"/>
      <point x="49" y="606" type="curve"/>
      <point x="42" y="578"/>
      <point x="39" y="537"/>
      <point x="39" y="485" type="curve" smooth="yes"/>
      <point x="39" y="478"/>
      <point x="50" y="472"/>
      <point x="62" y="472" type="curve" smooth="yes"/>
      <point x="73" y="472"/>
      <point x="87" y="478"/>
      <point x="90" y="488" type="curve"/>
      <point x="110" y="567"/>
      <point x="156" y="605"/>
      <point x="216" y="605" type="curve" smooth="yes"/>
      <point x="263" y="605"/>
      <point x="305" y="573"/>
      <point x="305" y="528" type="curve" smooth="yes"/>
      <point x="305" y="468"/>
      <point x="270" y="428"/>
      <point x="220" y="397" type="curve" smooth="yes"/>
      <point x="164" y="363"/>
      <point x="23" y="324"/>
      <point x="23" y="189" type="curve" smooth="yes"/>
      <point x="23" y="47"/>
      <point x="120" y="-14"/>
      <point x="266" y="-14" type="curve" smooth="yes"/>
    </contour>
  </outline>
</glyph>
<glyph name="uni01A9" format="1">
  <advance width="616"/>
  <unicode hex="01A9"/>
  <note>
	uni01A9
  </note>
  <outline>
    <contour>
      <point x="91" y="-6"/>
      <point x="105" y="-1"/>
      <point x="155" y="0" type="curve" smooth="yes"/>
      <point x="191" y="1"/>
      <point x="230" y="1"/>
      <point x="272" y="1" type="curve" smooth="yes"/>
      <point x="329" y="1"/>
      <point x="391" y="1"/>
      <point x="455" y="0" type="curve" smooth="yes"/>
      <point x="483" y="0"/>
      <point x="501" y="-5"/>
      <point x="531" y="-5" type="curve" smooth="yes"/>
      <point x="544" y="-5"/>
      <point x="546" y="5"/>
      <point x="550" y="16" type="curve"/>
      <point x="556" y="47"/>
      <point x="578" y="114"/>
      <point x="602" y="177" type="curve" smooth="yes"/>
      <point x="602" y="179"/>
      <point x="604" y="186"/>
      <point x="604" y="187" type="curve" smooth="yes"/>
      <point x="604" y="192"/>
      <point x="601" y="205"/>
      <point x="586" y="205" type="curve" smooth="yes"/>
      <point x="568" y="205"/>
      <point x="556" y="192"/>
      <point x="544" y="170" type="curve" smooth="yes"/>
      <point x="527" y="138"/>
      <point x="516" y="128"/>
      <point x="436" y="128" type="curve" smooth="yes"/>
      <point x="349" y="128"/>
      <point x="300" y="127"/>
      <point x="240" y="135" type="curve"/>
      <point x="229" y="136"/>
      <point x="225" y="144"/>
      <point x="232" y="152" type="curve"/>
      <point x="426" y="347" type="line" smooth="yes"/>
      <point x="443" y="366"/>
      <point x="439" y="377"/>
      <point x="428" y="388" type="curve" smooth="yes"/>
      <point x="397" y="429"/>
      <point x="298" y="531"/>
      <point x="252" y="580" type="curve"/>
      <point x="250" y="583"/>
      <point x="248" y="586"/>
      <point x="248" y="589" type="curve" smooth="yes"/>
      <point x="248" y="593"/>
      <point x="252" y="596"/>
      <point x="267" y="596" type="curve" smooth="yes"/>
      <point x="334" y="596"/>
      <point x="380" y="591"/>
      <point x="440" y="587" type="curve" smooth="yes"/>
      <point x="477" y="585"/>
      <point x="495" y="580"/>
      <point x="510" y="565" type="curve" smooth="yes"/>
      <point x="525" y="550"/>
      <point x="535" y="531"/>
      <point x="550" y="495" type="curve" smooth="yes"/>
      <point x="555" y="483"/>
      <point x="564" y="478"/>
      <point x="571" y="478" type="curve" smooth="yes"/>
      <point x="578" y="478"/>
      <point x="584" y="485"/>
      <point x="584" y="498" type="curve" smooth="yes"/>
      <point x="584" y="534"/>
      <point x="574" y="597"/>
      <point x="565" y="647" type="curve" smooth="yes"/>
      <point x="562" y="663"/>
      <point x="546" y="669"/>
      <point x="536" y="669" type="curve" smooth="yes"/>
      <point x="531" y="669"/>
      <point x="521" y="663"/>
      <point x="511" y="655" type="curve" smooth="yes"/>
      <point x="503" y="649"/>
      <point x="467" y="647"/>
      <point x="438" y="647" type="curve" smooth="yes"/>
      <point x="383" y="647"/>
      <point x="328" y="646"/>
      <point x="279" y="646" type="curve" smooth="yes"/>
      <point x="190" y="646"/>
      <point x="115" y="649"/>
      <point x="41" y="649" type="curve" smooth="yes"/>
      <point x="26" y="649"/>
      <point x="18" y="641"/>
      <point x="18" y="621" type="curve" smooth="yes"/>
      <point x="18" y="609"/>
      <point x="148" y="465"/>
      <point x="267" y="335" type="curve" smooth="yes"/>
      <point x="275" y="326"/>
      <point x="277" y="317"/>
      <point x="269" y="308" type="curve" smooth="yes"/>
      <point x="154" y="167"/>
      <point x="22" y="48"/>
      <point x="22" y="25" type="curve" smooth="yes"/>
      <point x="22" y="4"/>
      <point x="34" y="-6"/>
      <point x="63" y="-6" type="curve" smooth="yes"/>
    </contour>
  </outline>
</glyph>
<glyph name="uhorn" format="1">
  <advance width="609"/>
  <unicode hex="01B0"/>
  <note>
	uhorn
  </note>
  <outline>
    <contour>
      <point x="350" y="-21"/>
      <point x="359" y="-18"/>
      <point x="369" y="-14" type="curve" smooth="yes"/>
      <point x="407" y="1"/>
      <point x="463" y="21"/>
      <point x="530" y="27" type="curve" smooth="yes"/>
      <point x="545" y="28"/>
      <point x="548" y="37"/>
      <point x="548" y="50" type="curve" smooth="yes"/>
      <point x="548" y="61"/>
      <point x="541" y="69"/>
      <point x="528" y="69" type="curve" smooth="yes"/>
      <point x="524" y="69"/>
      <point x="509" y="70"/>
      <point x="504" y="70" type="curve" smooth="yes"/>
      <point x="495" y="70"/>
      <point x="486" y="76"/>
      <point x="486" y="106" type="curve" smooth="yes"/>
      <point x="486" y="367" type="line" smooth="yes"/>
      <point x="486" y="379"/>
      <point x="488" y="394"/>
      <point x="495" y="395" type="curve" smooth="yes"/>
      <point x="571" y="410"/>
      <point x="609" y="442"/>
      <point x="609" y="504" type="curve" smooth="yes"/>
      <point x="609" y="530"/>
      <point x="590" y="557"/>
      <point x="560" y="557" type="curve" smooth="yes"/>
      <point x="527" y="557"/>
      <point x="487" y="547"/>
      <point x="487" y="512" type="curve" smooth="yes"/>
      <point x="487" y="494"/>
      <point x="499" y="482"/>
      <point x="516" y="479" type="curve" smooth="yes"/>
      <point x="528" y="477"/>
      <point x="537" y="472"/>
      <point x="537" y="463" type="curve" smooth="yes"/>
      <point x="537" y="429"/>
      <point x="358" y="419"/>
      <point x="290" y="415" type="curve" smooth="yes"/>
      <point x="277" y="414"/>
      <point x="265" y="409"/>
      <point x="265" y="394" type="curve" smooth="yes"/>
      <point x="265" y="378"/>
      <point x="274" y="372"/>
      <point x="290" y="371" type="curve" smooth="yes"/>
      <point x="324" y="369"/>
      <point x="341" y="347"/>
      <point x="341" y="314" type="curve" smooth="yes"/>
      <point x="341" y="158" type="line" smooth="yes"/>
      <point x="341" y="124"/>
      <point x="334" y="102"/>
      <point x="326" y="96" type="curve" smooth="yes"/>
      <point x="307" y="82"/>
      <point x="289" y="76"/>
      <point x="271" y="76" type="curve" smooth="yes"/>
      <point x="238" y="77"/>
      <point x="215" y="106"/>
      <point x="215" y="155" type="curve" smooth="yes"/>
      <point x="215" y="346" type="line" smooth="yes"/>
      <point x="215" y="376"/>
      <point x="217" y="392"/>
      <point x="223" y="423" type="curve"/>
      <point x="224" y="433"/>
      <point x="218" y="437"/>
      <point x="210" y="437" type="curve" smooth="yes"/>
      <point x="202" y="437"/>
      <point x="193" y="434"/>
      <point x="186" y="432" type="curve"/>
      <point x="136" y="420"/>
      <point x="89" y="410"/>
      <point x="30" y="407" type="curve"/>
      <point x="20" y="406"/>
      <point x="15" y="398"/>
      <point x="15" y="389" type="curve" smooth="yes"/>
      <point x="15" y="377"/>
      <point x="23" y="371"/>
      <point x="31" y="370" type="curve"/>
      <point x="62" y="365"/>
      <point x="70" y="345"/>
      <point x="70" y="314" type="curve" smooth="yes"/>
      <point x="70" y="130" type="line" smooth="yes"/>
      <point x="70" y="49"/>
      <point x="118" y="-15"/>
      <point x="180" y="-15" type="curve" smooth="yes"/>
      <point x="241" y="-15"/>
      <point x="294" y="8"/>
      <point x="338" y="54" type="curve"/>
      <point x="338" y="42" type="line"/>
      <point x="338" y="28"/>
      <point x="333" y="5"/>
      <point x="333" y="-11" type="curve" smooth="yes"/>
      <point x="333" y="-18"/>
      <point x="337" y="-21"/>
      <point x="342" y="-21" type="curve" smooth="yes"/>
    </contour>
    <contour>
      <point x="289" y="440" type="move" name="top"/>
    </contour>
    <contour>
      <point x="277" y="-30" type="move" name="bottom"/>
    </contour>
  </outline>
</glyph>
<glyph name="uni01B1" format="1">
  <advance width="832"/>
  <unicode hex="01B1"/>
  <note>
	uni01B1
  </note>
  <outline>
    <contour>
      <point x="615" y="-15"/>
      <point x="772" y="135"/>
      <point x="772" y="300" type="curve" smooth="yes"/>
      <point x="772" y="423"/>
      <point x="705" y="500"/>
      <point x="627" y="561" type="curve" smooth="yes"/>
      <point x="617" y="569"/>
      <point x="611" y="575"/>
      <point x="611" y="590" type="curve" smooth="yes"/>
      <point x="611" y="612"/>
      <point x="710" y="607"/>
      <point x="768" y="620" type="curve" smooth="yes"/>
      <point x="795" y="626"/>
      <point x="807" y="633"/>
      <point x="807" y="642" type="curve" smooth="yes"/>
      <point x="807" y="650"/>
      <point x="793" y="653"/>
      <point x="772" y="653" type="curve" smooth="yes"/>
      <point x="741" y="653"/>
      <point x="668" y="650"/>
      <point x="622" y="650" type="curve" smooth="yes"/>
      <point x="576" y="650"/>
      <point x="493" y="652"/>
      <point x="488" y="652" type="curve" smooth="yes"/>
      <point x="479" y="652"/>
      <point x="478" y="646"/>
      <point x="478" y="641" type="curve" smooth="yes"/>
      <point x="478" y="622"/>
      <point x="504" y="573"/>
      <point x="528" y="547" type="curve" smooth="yes"/>
      <point x="582" y="488"/>
      <point x="590" y="397"/>
      <point x="590" y="297" type="curve" smooth="yes"/>
      <point x="590" y="166"/>
      <point x="546" y="42"/>
      <point x="427" y="42" type="curve" smooth="yes"/>
      <point x="312" y="42"/>
      <point x="246" y="190"/>
      <point x="246" y="304" type="curve" smooth="yes"/>
      <point x="246" y="417"/>
      <point x="244" y="489"/>
      <point x="301" y="551" type="curve" smooth="yes"/>
      <point x="329" y="581"/>
      <point x="348" y="619"/>
      <point x="348" y="641" type="curve" smooth="yes"/>
      <point x="348" y="646"/>
      <point x="347" y="652"/>
      <point x="338" y="652" type="curve" smooth="yes"/>
      <point x="333" y="652"/>
      <point x="275" y="650"/>
      <point x="229" y="650" type="curve" smooth="yes"/>
      <point x="183" y="650"/>
      <point x="95" y="653"/>
      <point x="64" y="653" type="curve" smooth="yes"/>
      <point x="47" y="653"/>
      <point x="35" y="650"/>
      <point x="35" y="642" type="curve" smooth="yes"/>
      <point x="35" y="633"/>
      <point x="46" y="624"/>
      <point x="68" y="620" type="curve" smooth="yes"/>
      <point x="130" y="610"/>
      <point x="221" y="602"/>
      <point x="221" y="584" type="curve" smooth="yes"/>
      <point x="221" y="573"/>
      <point x="215" y="568"/>
      <point x="205" y="561" type="curve" smooth="yes"/>
      <point x="115" y="495"/>
      <point x="64" y="402"/>
      <point x="64" y="283" type="curve" smooth="yes"/>
      <point x="64" y="105"/>
      <point x="229" y="-15"/>
      <point x="425" y="-15" type="curve" smooth="yes"/>
    </contour>
  </outline>
</glyph>
<glyph name="uni01B4" format="1">
  <advance width="592"/>
  <unicode hex="01B4"/>
  <note>
	uni01B4
  </note>
  <outline>
    <contour>
      <point x="134" y="-283"/>
      <point x="171" y="-262"/>
      <point x="189" y="-220" type="curve" smooth="yes"/>
      <point x="215" y="-159"/>
      <point x="242" y="-98"/>
      <point x="268" y="-34" type="curve" smooth="yes"/>
      <point x="452" y="425" type="line" smooth="yes"/>
      <point x="462" y="450"/>
      <point x="474" y="470"/>
      <point x="498" y="470" type="curve" smooth="yes"/>
      <point x="526" y="470"/>
      <point x="555" y="408"/>
      <point x="578" y="408" type="curve" smooth="yes"/>
      <point x="606" y="408"/>
      <point x="637" y="462"/>
      <point x="637" y="508" type="curve" smooth="yes"/>
      <point x="637" y="540"/>
      <point x="590" y="557"/>
      <point x="540" y="557" type="curve" smooth="yes"/>
      <point x="490" y="557"/>
      <point x="440" y="538"/>
      <point x="413" y="470" type="curve" smooth="yes"/>
      <point x="297" y="176" type="line" smooth="yes"/>
      <point x="296" y="173"/>
      <point x="294" y="173"/>
      <point x="293" y="176" type="curve" smooth="yes"/>
      <point x="241" y="305" type="line" smooth="yes"/>
      <point x="231" y="329"/>
      <point x="229" y="343"/>
      <point x="229" y="355" type="curve" smooth="yes"/>
      <point x="229" y="379"/>
      <point x="238" y="388"/>
      <point x="253" y="394" type="curve"/>
      <point x="264" y="399"/>
      <point x="275" y="401"/>
      <point x="275" y="413" type="curve" smooth="yes"/>
      <point x="275" y="424"/>
      <point x="260" y="427"/>
      <point x="251" y="427" type="curve" smooth="yes"/>
      <point x="202" y="427"/>
      <point x="178" y="423"/>
      <point x="135" y="423" type="curve" smooth="yes"/>
      <point x="109" y="423"/>
      <point x="82" y="427"/>
      <point x="33" y="427" type="curve" smooth="yes"/>
      <point x="24" y="427"/>
      <point x="8" y="426"/>
      <point x="8" y="415" type="curve" smooth="yes"/>
      <point x="8" y="403"/>
      <point x="13" y="398"/>
      <point x="26" y="393" type="curve" smooth="yes"/>
      <point x="51" y="384"/>
      <point x="63" y="362"/>
      <point x="77" y="332" type="curve" smooth="yes"/>
      <point x="201" y="55" type="line" smooth="yes"/>
      <point x="209" y="37"/>
      <point x="217" y="20"/>
      <point x="217" y="-1" type="curve" smooth="yes"/>
      <point x="217" y="-17"/>
      <point x="212" y="-35"/>
      <point x="203" y="-55" type="curve" smooth="yes"/>
      <point x="179" y="-108"/>
      <point x="155" y="-146"/>
      <point x="139" y="-174" type="curve" smooth="yes"/>
      <point x="132" y="-186"/>
      <point x="122" y="-191"/>
      <point x="111" y="-191" type="curve" smooth="yes"/>
      <point x="94" y="-191"/>
      <point x="76" y="-182"/>
      <point x="53" y="-182" type="curve" smooth="yes"/>
      <point x="23" y="-182"/>
      <point x="11" y="-203"/>
      <point x="11" y="-228" type="curve" smooth="yes"/>
      <point x="11" y="-262"/>
      <point x="53" y="-283"/>
      <point x="90" y="-283" type="curve" smooth="yes"/>
    </contour>
  </outline>
</glyph>
<glyph name="uni01BB" format="1">
  <advance width="503"/>
  <unicode hex="01BB"/>
  <note>
	uni01BB
  </note>
  <outline>
    <contour>
      <point x="423" y="-4"/>
      <point x="441" y="4"/>
      <point x="441" y="18" type="curve" smooth="yes"/>
      <point x="441" y="31"/>
      <point x="465" y="113"/>
      <point x="487" y="174" type="curve" smooth="yes"/>
      <point x="488" y="177"/>
      <point x="489" y="180"/>
      <point x="488" y="183" type="curve" smooth="yes"/>
      <point x="488" y="190"/>
      <point x="483" y="196"/>
      <point x="475" y="196" type="curve" smooth="yes"/>
      <point x="462" y="196"/>
      <point x="450" y="184"/>
      <point x="446" y="175" type="curve" smooth="yes"/>
      <point x="428" y="134"/>
      <point x="398" y="116"/>
      <point x="357" y="111" type="curve" smooth="yes"/>
      <point x="330" y="108"/>
      <point x="302" y="107"/>
      <point x="274" y="107" type="curve" smooth="yes"/>
      <point x="247" y="107"/>
      <point x="226" y="109"/>
      <point x="201" y="111" type="curve" smooth="yes"/>
      <point x="193" y="112"/>
      <point x="186" y="114"/>
      <point x="186" y="117" type="curve" smooth="yes"/>
      <point x="186" y="123"/>
      <point x="321" y="294"/>
      <point x="354" y="338" type="curve" smooth="yes"/>
      <point x="396" y="396"/>
      <point x="421" y="446"/>
      <point x="421" y="496" type="curve" smooth="yes"/>
      <point x="421" y="585"/>
      <point x="363" y="664"/>
      <point x="260" y="664" type="curve" smooth="yes"/>
      <point x="141" y="664"/>
      <point x="47" y="562"/>
      <point x="47" y="521" type="curve" smooth="yes"/>
      <point x="47" y="491"/>
      <point x="59" y="477"/>
      <point x="70" y="477" type="curve" smooth="yes"/>
      <point x="89" y="477"/>
      <point x="100" y="492"/>
      <point x="107" y="501" type="curve" smooth="yes"/>
      <point x="131" y="531"/>
      <point x="169" y="561"/>
      <point x="211" y="561" type="curve" smooth="yes"/>
      <point x="257" y="561"/>
      <point x="285" y="518"/>
      <point x="285" y="474" type="curve" smooth="yes"/>
      <point x="285" y="390"/>
      <point x="259" y="310"/>
      <point x="188" y="222" type="curve" smooth="yes"/>
      <point x="25" y="18" type="line"/>
      <point x="20" y="11"/>
      <point x="18" y="10"/>
      <point x="18" y="6" type="curve" smooth="yes"/>
      <point x="18" y="1"/>
      <point x="22" y="-3"/>
      <point x="25" y="-3" type="curve" smooth="yes"/>
      <point x="31" y="-3"/>
      <point x="130" y="0"/>
      <point x="198" y="0" type="curve" smooth="yes"/>
      <point x="268" y="0"/>
      <point x="405" y="-4"/>
      <point x="420" y="-4" type="curve" smooth="yes"/>
    </contour>
    <contour>
      <point x="423" y="256" type="line" smooth="yes"/>
      <point x="445" y="256"/>
      <point x="466" y="281"/>
      <point x="466" y="299" type="curve" smooth="yes"/>
      <point x="466" y="309"/>
      <point x="456" y="318"/>
      <point x="443" y="318" type="curve" smooth="yes"/>
      <point x="101" y="318" type="line" smooth="yes"/>
      <point x="84" y="318"/>
      <point x="72" y="305"/>
      <point x="72" y="287" type="curve" smooth="yes"/>
      <point x="72" y="273"/>
      <point x="79" y="256"/>
      <point x="96" y="256" type="curve" smooth="yes"/>
    </contour>
  </outline>
</glyph>
<glyph name="uni01EB" format="1">
  <advance width="505"/>
  <unicode hex="01EB"/>
  <note>
	uni01EB
  </note>
  <outline>
    <component base="o"/>
    <component base="ogonek" xOffset="197"/>
    <contour>
      <point x="252" y="440" type="move" name="top"/>
    </contour>
  </outline>
</glyph>
<glyph name="uni021C" format="1">
  <advance width="557"/>
  <unicode hex="021C"/>
  <note>
	uni021C
  </note>
  <outline>
    <contour>
      <point x="380" y="-200"/>
      <point x="517" y="-55"/>
      <point x="517" y="126" type="curve" smooth="yes"/>
      <point x="517" y="214"/>
      <point x="456" y="307"/>
      <point x="368" y="314" type="curve" smooth="yes"/>
      <point x="362" y="314"/>
      <point x="351" y="324"/>
      <point x="365" y="332" type="curve" smooth="yes"/>
      <point x="425" y="365"/>
      <point x="472" y="428"/>
      <point x="472" y="508" type="curve" smooth="yes"/>
      <point x="472" y="603"/>
      <point x="372" y="664"/>
      <point x="227" y="664" type="curve" smooth="yes"/>
      <point x="165" y="664"/>
      <point x="90" y="647"/>
      <point x="43" y="628" type="curve"/>
      <point x="32" y="623"/>
      <point x="24" y="616"/>
      <point x="22" y="601" type="curve" smooth="yes"/>
      <point x="15" y="553"/>
      <point x="14" y="509"/>
      <point x="14" y="480" type="curve" smooth="yes"/>
      <point x="14" y="456"/>
      <point x="52" y="456"/>
      <point x="58" y="480" type="curve" smooth="yes"/>
      <point x="65" y="507"/>
      <point x="74" y="538"/>
      <point x="92" y="560" type="curve" smooth="yes"/>
      <point x="114" y="588"/>
      <point x="149" y="609"/>
      <point x="208" y="609" type="curve" smooth="yes"/>
      <point x="267" y="609"/>
      <point x="305" y="548"/>
      <point x="305" y="486" type="curve" smooth="yes"/>
      <point x="305" y="386"/>
      <point x="262" y="338"/>
      <point x="152" y="294" type="curve" smooth="yes"/>
      <point x="137" y="288"/>
      <point x="107" y="264"/>
      <point x="107" y="252" type="curve" smooth="yes"/>
      <point x="107" y="236"/>
      <point x="129" y="215"/>
      <point x="152" y="215" type="curve" smooth="yes"/>
      <point x="164" y="215"/>
      <point x="210" y="248"/>
      <point x="247" y="248" type="curve" smooth="yes"/>
      <point x="307" y="248"/>
      <point x="336" y="185"/>
      <point x="336" y="107" type="curve" smooth="yes"/>
      <point x="336" y="-16"/>
      <point x="291" y="-147"/>
      <point x="188" y="-147" type="curve" smooth="yes"/>
      <point x="112" y="-147"/>
      <point x="83" y="-89"/>
      <point x="55" y="-89" type="curve" smooth="yes"/>
      <point x="32" y="-89"/>
      <point x="10" y="-126"/>
      <point x="10" y="-161" type="curve" smooth="yes"/>
      <point x="10" y="-188"/>
      <point x="62" y="-200"/>
      <point x="155" y="-200" type="curve" smooth="yes"/>
    </contour>
  </outline>
</glyph>
<glyph name="uni021D" format="1">
  <advance width="437"/>
  <unicode hex="021D"/>
  <note>
	uni021D
  </note>
  <outline>
    <contour>
      <point x="281" y="-291"/>
      <point x="409" y="-132"/>
      <point x="409" y="8" type="curve" smooth="yes"/>
      <point x="409" y="83"/>
      <point x="359" y="153"/>
      <point x="288" y="169" type="curve"/>
      <point x="281" y="169"/>
      <point x="281" y="176"/>
      <point x="287" y="179" type="curve"/>
      <point x="335" y="211"/>
      <point x="385" y="254"/>
      <point x="385" y="318" type="curve" smooth="yes"/>
      <point x="385" y="389"/>
      <point x="308" y="436"/>
      <point x="209" y="436" type="curve" smooth="yes"/>
      <point x="128" y="436"/>
      <point x="78" y="399"/>
      <point x="50" y="399" type="curve" smooth="yes"/>
      <point x="34" y="399"/>
      <point x="26" y="363"/>
      <point x="24" y="351" type="curve" smooth="yes"/>
      <point x="18" y="314"/>
      <point x="15" y="313"/>
      <point x="15" y="281" type="curve" smooth="yes"/>
      <point x="15" y="264"/>
      <point x="18" y="252"/>
      <point x="34" y="252" type="curve" smooth="yes"/>
      <point x="56" y="252"/>
      <point x="72" y="285"/>
      <point x="79" y="309" type="curve" smooth="yes"/>
      <point x="92" y="353"/>
      <point x="129" y="386"/>
      <point x="175" y="386" type="curve" smooth="yes"/>
      <point x="222" y="386"/>
      <point x="256" y="348"/>
      <point x="256" y="305" type="curve" smooth="yes"/>
      <point x="256" y="251"/>
      <point x="210" y="207"/>
      <point x="192" y="191" type="curve" smooth="yes"/>
      <point x="162" y="166"/>
      <point x="134" y="149"/>
      <point x="111" y="136" type="curve" smooth="yes"/>
      <point x="99" y="129"/>
      <point x="78" y="100"/>
      <point x="78" y="91" type="curve" smooth="yes"/>
      <point x="78" y="75"/>
      <point x="95" y="68"/>
      <point x="109" y="68" type="curve"/>
      <point x="118" y="76"/>
      <point x="140" y="112"/>
      <point x="178" y="112" type="curve" smooth="yes"/>
      <point x="237" y="112"/>
      <point x="274" y="47"/>
      <point x="274" y="-19" type="curve" smooth="yes"/>
      <point x="274" y="-126"/>
      <point x="250" y="-234"/>
      <point x="170" y="-234" type="curve" smooth="yes"/>
      <point x="125" y="-234"/>
      <point x="90" y="-188"/>
      <point x="74" y="-188" type="curve" smooth="yes"/>
      <point x="50" y="-188"/>
      <point x="27" y="-208"/>
      <point x="27" y="-244" type="curve" smooth="yes"/>
      <point x="27" y="-274"/>
      <point x="91" y="-291"/>
      <point x="166" y="-291" type="curve" smooth="yes"/>
    </contour>
  </outline>
</glyph>
<glyph name="uni0222" format="1">
  <advance width="643"/>
  <unicode hex="0222"/>
  <note>
	uni0222
  </note>
  <outline>
    <contour>
      <point x="463" y="-15"/>
      <point x="615" y="38"/>
      <point x="615" y="163" type="curve" smooth="yes"/>
      <point x="615" y="279"/>
      <point x="515" y="338"/>
      <point x="424" y="380" type="curve"/>
      <point x="509" y="413"/>
      <point x="588" y="463"/>
      <point x="588" y="543" type="curve" smooth="yes"/>
      <point x="588" y="628"/>
      <point x="506" y="674"/>
      <point x="402" y="676" type="curve" smooth="yes"/>
      <point x="385" y="676"/>
      <point x="375" y="658"/>
      <point x="375" y="645" type="curve" smooth="yes"/>
      <point x="375" y="636"/>
      <point x="440" y="605"/>
      <point x="440" y="545" type="curve" smooth="yes"/>
      <point x="440" y="492"/>
      <point x="414" y="439"/>
      <point x="365" y="409" type="curve"/>
      <point x="291" y="448"/>
      <point x="222" y="484"/>
      <point x="222" y="550" type="curve" smooth="yes"/>
      <point x="222" y="620"/>
      <point x="280" y="630"/>
      <point x="280" y="637" type="curve" smooth="yes"/>
      <point x="280" y="649"/>
      <point x="271" y="660"/>
      <point x="261" y="660" type="curve" smooth="yes"/>
      <point x="151" y="660"/>
      <point x="65" y="607"/>
      <point x="65" y="514" type="curve" smooth="yes"/>
      <point x="65" y="430"/>
      <point x="150" y="375"/>
      <point x="223" y="339" type="curve"/>
      <point x="136" y="295"/>
      <point x="28" y="251"/>
      <point x="28" y="148" type="curve" smooth="yes"/>
      <point x="28" y="33"/>
      <point x="177" y="-15"/>
      <point x="308" y="-15" type="curve" smooth="yes"/>
    </contour>
    <contour>
      <point x="261" y="54"/>
      <point x="203" y="107"/>
      <point x="203" y="177" type="curve" smooth="yes"/>
      <point x="203" y="224"/>
      <point x="236" y="271"/>
      <point x="284" y="304" type="curve"/>
      <point x="349" y="269"/>
      <point x="440" y="224"/>
      <point x="440" y="141" type="curve" smooth="yes"/>
      <point x="440" y="81"/>
      <point x="375" y="54"/>
      <point x="322" y="54" type="curve" smooth="yes"/>
    </contour>
  </outline>
</glyph>
<glyph name="uni0224" format="1">
  <advance width="620"/>
  <unicode hex="0224"/>
  <note>
	uni0224
  </note>
  <outline>
    <contour>
      <point x="453" y="-276"/>
      <point x="623" y="-199"/>
      <point x="623" y="-44" type="curve" smooth="yes"/>
      <point x="623" y="24"/>
      <point x="578" y="59"/>
      <point x="501" y="59" type="curve" smooth="yes"/>
      <point x="282" y="59" type="line"/>
      <point x="265" y="60"/>
      <point x="257" y="63"/>
      <point x="257" y="71" type="curve" smooth="yes"/>
      <point x="257" y="78"/>
      <point x="260" y="86"/>
      <point x="269" y="100" type="curve"/>
      <point x="339" y="226"/>
      <point x="433" y="384"/>
      <point x="514" y="516" type="curve" smooth="yes"/>
      <point x="584" y="630" type="line" smooth="yes"/>
      <point x="587" y="635"/>
      <point x="576" y="655"/>
      <point x="566" y="655" type="curve" smooth="yes"/>
      <point x="522" y="655"/>
      <point x="380" y="650"/>
      <point x="340" y="650" type="curve" smooth="yes"/>
      <point x="301" y="650"/>
      <point x="263" y="650"/>
      <point x="224" y="650" type="curve" smooth="yes"/>
      <point x="186" y="650"/>
      <point x="164" y="648"/>
      <point x="138" y="658" type="curve" smooth="yes"/>
      <point x="118" y="666"/>
      <point x="95" y="688"/>
      <point x="82" y="688" type="curve" smooth="yes"/>
      <point x="66" y="688"/>
      <point x="61" y="680"/>
      <point x="59" y="659" type="curve" smooth="yes"/>
      <point x="54" y="602"/>
      <point x="54" y="579"/>
      <point x="29" y="526" type="curve" smooth="yes"/>
      <point x="25" y="518"/>
      <point x="22" y="507"/>
      <point x="22" y="499" type="curve" smooth="yes"/>
      <point x="22" y="490"/>
      <point x="26" y="481"/>
      <point x="38" y="481" type="curve" smooth="yes"/>
      <point x="59" y="481"/>
      <point x="72" y="500"/>
      <point x="82" y="516" type="curve" smooth="yes"/>
      <point x="111" y="564"/>
      <point x="163" y="592"/>
      <point x="207" y="592" type="curve" smooth="yes"/>
      <point x="251" y="592"/>
      <point x="294" y="592"/>
      <point x="338" y="592" type="curve" smooth="yes"/>
      <point x="350" y="592"/>
      <point x="353" y="587"/>
      <point x="353" y="581" type="curve" smooth="yes"/>
      <point x="353" y="575"/>
      <point x="350" y="569"/>
      <point x="347" y="563" type="curve"/>
      <point x="259" y="416"/>
      <point x="165" y="272"/>
      <point x="79" y="122" type="curve" smooth="yes"/>
      <point x="61" y="91"/>
      <point x="41" y="59"/>
      <point x="21" y="27" type="curve" smooth="yes"/>
      <point x="17" y="21"/>
      <point x="22" y="-5"/>
      <point x="36" y="-5" type="curve" smooth="yes"/>
      <point x="113" y="-3" type="line" smooth="yes"/>
      <point x="134" y="-2"/>
      <point x="186" y="-1"/>
      <point x="243" y="0" type="curve" smooth="yes"/>
      <point x="448" y="0" type="line" smooth="yes"/>
      <point x="497" y="0"/>
      <point x="524" y="-21"/>
      <point x="524" y="-62" type="curve" smooth="yes"/>
      <point x="524" y="-106"/>
      <point x="469" y="-213"/>
      <point x="378" y="-214" type="curve" smooth="yes"/>
      <point x="298" y="-214"/>
      <point x="245" y="-132"/>
      <point x="220" y="-132" type="curve" smooth="yes"/>
      <point x="194" y="-132"/>
      <point x="172" y="-191"/>
      <point x="172" y="-223" type="curve" smooth="yes"/>
      <point x="172" y="-276"/>
      <point x="308" y="-276"/>
      <point x="337" y="-276" type="curve" smooth="yes"/>
    </contour>
  </outline>
</glyph>
<glyph name="uni023A" format="1">
  <advance width="739"/>
  <unicode hex="023A"/>
  <note>
	uni023A
  </note>
  <outline>
    <contour>
      <point x="170" y="-92"/>
      <point x="197" y="-88"/>
      <point x="211" y="-63" type="curve" smooth="yes"/>
      <point x="631" y="681" type="line"/>
      <point x="631" y="682"/>
      <point x="639" y="697"/>
      <point x="639" y="698" type="curve" smooth="yes"/>
      <point x="639" y="709"/>
      <point x="628" y="718"/>
      <point x="617" y="718" type="curve" smooth="yes"/>
      <point x="586" y="718"/>
      <point x="559" y="718"/>
      <point x="544" y="692" type="curve" smooth="yes"/>
      <point x="125" y="-49" type="line"/>
      <point x="119" y="-59"/>
      <point x="115" y="-68"/>
      <point x="115" y="-68" type="curve"/>
      <point x="115" y="-80"/>
      <point x="121" y="-92"/>
      <point x="139" y="-92" type="curve" smooth="yes"/>
    </contour>
    <component base="A"/>
  </outline>
</glyph>
<glyph name="uni0240" format="1">
  <advance width="446"/>
  <unicode hex="0240"/>
  <note>
	uni0240
  </note>
  <outline>
    <contour>
      <point x="474" y="-287"/>
      <point x="531" y="-200"/>
      <point x="531" y="-116" type="curve" smooth="yes"/>
      <point x="531" y="-99"/>
      <point x="526" y="-75"/>
      <point x="513" y="-75" type="curve" smooth="yes"/>
      <point x="472" y="-75"/>
      <point x="397" y="-126"/>
      <point x="397" y="-159" type="curve" smooth="yes"/>
      <point x="397" y="-172"/>
      <point x="406" y="-174"/>
      <point x="406" y="-187" type="curve" smooth="yes"/>
      <point x="406" y="-208"/>
      <point x="400" y="-231"/>
      <point x="387" y="-231" type="curve" smooth="yes"/>
      <point x="329" y="-231"/>
      <point x="310" y="43"/>
      <point x="213" y="43" type="curve" smooth="yes"/>
      <point x="198" y="43"/>
      <point x="191" y="47"/>
      <point x="205" y="68" type="curve" smooth="yes"/>
      <point x="387" y="329" type="line" smooth="yes"/>
      <point x="403" y="351"/>
      <point x="414" y="366"/>
      <point x="430" y="385" type="curve"/>
      <point x="438" y="396"/>
      <point x="427" y="429"/>
      <point x="410" y="429" type="curve"/>
      <point x="342" y="426"/>
      <point x="256" y="425"/>
      <point x="194" y="425" type="curve" smooth="yes"/>
      <point x="184" y="425"/>
      <point x="168" y="424"/>
      <point x="152" y="424" type="curve" smooth="yes"/>
      <point x="131" y="424"/>
      <point x="110" y="425"/>
      <point x="103" y="431" type="curve"/>
      <point x="97" y="437"/>
      <point x="91" y="441"/>
      <point x="83" y="441" type="curve" smooth="yes"/>
      <point x="71" y="441"/>
      <point x="59" y="429"/>
      <point x="59" y="414" type="curve" smooth="yes"/>
      <point x="59" y="372"/>
      <point x="38" y="292"/>
      <point x="33" y="271" type="curve"/>
      <point x="32" y="264"/>
      <point x="37" y="252"/>
      <point x="47" y="251" type="curve" smooth="yes"/>
      <point x="56" y="250"/>
      <point x="64" y="257"/>
      <point x="66" y="261" type="curve" smooth="yes"/>
      <point x="111" y="340"/>
      <point x="137" y="373"/>
      <point x="179" y="373" type="curve" smooth="yes"/>
      <point x="224" y="373" type="line" smooth="yes"/>
      <point x="241" y="373"/>
      <point x="238" y="366"/>
      <point x="235" y="361" type="curve" smooth="yes"/>
      <point x="156" y="231"/>
      <point x="129" y="197"/>
      <point x="64" y="94" type="curve" smooth="yes"/>
      <point x="51" y="73"/>
      <point x="10" y="39"/>
      <point x="10" y="25" type="curve" smooth="yes"/>
      <point x="10" y="12"/>
      <point x="29" y="-5"/>
      <point x="35" y="-5" type="curve" smooth="yes"/>
      <point x="234" y="-5"/>
      <point x="134" y="-287"/>
      <point x="365" y="-287" type="curve" smooth="yes"/>
    </contour>
  </outline>
</glyph>
<glyph name="uni0247" format="1">
  <advance width="423"/>
  <unicode hex="0247"/>
  <note>
	uni0247
  </note>
  <outline>
    <contour>
      <point x="73" y="-77"/>
      <point x="98" y="-73"/>
      <point x="111" y="-50" type="curve" smooth="yes"/>
      <point x="383" y="442" type="line"/>
      <point x="383" y="443"/>
      <point x="390" y="457"/>
      <point x="390" y="458" type="curve" smooth="yes"/>
      <point x="390" y="468"/>
      <point x="380" y="477"/>
      <point x="369" y="477" type="curve" smooth="yes"/>
      <point x="340" y="477"/>
      <point x="314" y="476"/>
      <point x="301" y="452" type="curve" smooth="yes"/>
      <point x="31" y="-37" type="line"/>
      <point x="25" y="-46"/>
      <point x="21" y="-55"/>
      <point x="21" y="-55" type="curve"/>
      <point x="21" y="-66"/>
      <point x="27" y="-77"/>
      <point x="44" y="-77" type="curve" smooth="yes"/>
    </contour>
    <component base="e"/>
  </outline>
</glyph>
